<?xml version="1.0" standalone="no"?>
<!DOCTYPE svg PUBLIC "-//W3C//DTD SVG 1.1//EN" "http://www.w3.org/Graphics/SVG/1.1/DTD/svg11.dtd" >
<svg>
<metadata>
Created by FontForge 20090914 at Sat Jul  4 19:08:56 2020
 By www-data
Copyright 2015 Google Inc. All Rights Reserved.
</metadata>
<defs>
<font id="NotoSans-Regular" horiz-adv-x="0" >
  <font-face 
    font-family="Noto Sans"
    font-weight="400"
    font-stretch="normal"
    units-per-em="1000"
    panose-1="2 11 5 2 4 5 4 2 2 4"
    ascent="800"
    descent="-200"
    x-height="536"
    cap-height="714"
    bbox="-621 -389 2800 1067"
    underline-thickness="50"
    underline-position="-75"
    unicode-range="U+000D-U+FFFD"
  />
<missing-glyph horiz-adv-x="600" 
d="M94 0v714h411v-714h-411zM145 51h309v612h-309v-612z" />
    <glyph glyph-name=".notdef" horiz-adv-x="600" 
d="M94 0v714h411v-714h-411zM145 51h309v612h-309v-612z" />
    <glyph glyph-name="NULL" 
 />
    <glyph glyph-name="NULL" 
 />
    <glyph glyph-name="CR" unicode="&#xd;" horiz-adv-x="260" 
 />
    <glyph glyph-name="space" unicode=" " horiz-adv-x="260" 
 />
    <glyph glyph-name="exclam" unicode="!" horiz-adv-x="269" 
d="M163 201h-57l-25 513h107zM72 54c0 24.667 6 42 18 52s26.667 15 44 15c16.667 0 31.167 -5 43.5 -15s18.5 -27.333 18.5 -52c0 -24 -6.16699 -41.333 -18.5 -52s-26.833 -16 -43.5 -16c-17.333 0 -32 5.33301 -44 16s-18 28 -18 52z" />
    <glyph glyph-name="quotedbl" unicode="&#x22;" horiz-adv-x="408" 
d="M160 714l-20 -258h-55l-20 258h95zM343 714l-20 -258h-55l-20 258h95z" />
    <glyph glyph-name="numbersign" unicode="#" horiz-adv-x="646" 
d="M480 436l-31 -160h137v-67h-150l-41 -209h-71l41 209h-143l-39 -209h-70l38 209h-126v67h139l32 160h-134v66h146l40 212h72l-40 -212h144l40 212h69l-40 -212h127v-66h-140zM235 276h143l31 160h-143z" />
    <glyph glyph-name="dollar" unicode="$" horiz-adv-x="572" 
d="M253 -58l0.00195312 107c-36.667 0.666992 -72.334 3.83398 -107.001 9.50098s-62.667 13.5 -84 23.5v85c22.667 -10.667 51.667 -20 87 -28s70 -12.333 104 -13v202c-66 18 -114.333 40.667 -145 68s-46 64.666 -46 111.999c0 49.333 17.167 88 51.5 116
s80.833 43.667 139.5 47v88h64v-87c35.333 -1.33301 67.5 -5.33301 96.5 -12s55.5 -15 79.5 -25l-27 -74c-21.333 8.66699 -44.833 16.167 -70.5 22.5s-51.834 10.5 -78.501 12.5v-201c44 -12.667 80.667 -26.167 110 -40.5s51.5 -32 66.5 -53s22.5 -48.167 22.5 -81.5
c0 -46.667 -17.333 -84.5 -52 -113.5s-83.667 -46.833 -147 -53.5v-111h-64zM253.002 417v177c-36 -2.66699 -62.5 -11 -79.5 -25s-25.5 -32 -25.5 -54c0 -26.667 7.5 -47.167 22.5 -61.5s42.5 -26.5 82.5 -36.5zM317.002 131c39.333 4 68 13.167 86 27.5s27 32.833 27 55.5
c0 25.333 -8 44.333 -24 57s-45.667 24.667 -89 36v-176z" />
    <glyph glyph-name="percent" unicode="%" horiz-adv-x="831" 
d="M195 724c48.667 0 85.832 -19.5 111.499 -58.5s38.5 -93.833 38.5 -164.5s-12.167 -125.834 -36.5 -165.501s-62.166 -59.5 -113.499 -59.5c-47.333 0 -83.5 19.833 -108.5 59.5s-37.5 94.834 -37.5 165.501s11.667 125.5 35 164.5s60.333 58.5 111 58.5zM651.998 714
l-396 -714h-77l396 714h77zM194.998 662c-25.333 0 -43.833 -13.501 -55.5 -40.501s-17.5 -67.167 -17.5 -120.5s5.83301 -93.666 17.5 -120.999s30.167 -41 55.5 -41c51.333 0 77 54 77 162c0 107.333 -25.667 161 -77 161zM631.998 437.999
c48.667 0 85.832 -19.5 111.499 -58.5s38.5 -93.833 38.5 -164.5s-12.167 -125.834 -36.5 -165.501s-62.166 -59.5 -113.499 -59.5c-47.333 0 -83.5 19.833 -108.5 59.5s-37.5 94.834 -37.5 165.501s11.667 125.5 35 164.5s60.333 58.5 111 58.5zM631.996 374.999
c-25.333 0 -43.833 -13.333 -55.5 -40s-17.5 -66.667 -17.5 -120c0 -54 5.83301 -94.5 17.5 -121.5s30.167 -40.5 55.5 -40.5c51.333 0 77 54 77 162c0 106.667 -25.667 160 -77 160z" />
    <glyph glyph-name="ampersand" unicode="&#x26;" horiz-adv-x="732" 
d="M304 725c53.333 0 95.498 -13.5029 126.498 -40.5029s46.5 -64.833 46.5 -113.5c0 -42 -13.5 -77.667 -40.5 -107s-61.167 -56 -102.5 -80l193 -186c17.333 20.667 31.5 44.5 42.5 71.5s20.167 56.167 27.5 87.5h89c-10.667 -43.333 -24 -83.166 -40 -119.499
s-36.667 -68.166 -62 -95.499l146 -142h-119l-87 84c-31.333 -28 -66.333 -50.667 -105 -68s-85.667 -26 -141 -26c-69.333 0 -124.166 17 -164.499 51s-60.5 82.333 -60.5 145c0 50.667 13.833 91.667 41.5 123s65.167 60.333 112.5 87
c-21.333 24 -41.166 49.667 -59.499 77s-27.5 59.333 -27.5 96c0 48.667 16.333 86.834 49 114.501s77.667 41.5 135 41.5zM300.998 652.997c-28 0 -50.833 -7.33301 -68.5 -22s-26.5 -35 -26.5 -61c0 -24 6.33301 -46.167 19 -66.5s31 -42.833 55 -67.5
c39.333 22.667 67.5 44 84.5 64s25.5 43.667 25.5 71c0 24 -8 43.667 -24 59s-37.667 23 -65 23zM259.998 340.997c-36 -21.333 -64.166 -43 -84.499 -65s-30.5 -51 -30.5 -87c0 -36.667 12.333 -66 37 -88s57.667 -33 99 -33c42.667 0 79.167 7 109.5 21
s56.166 30.667 77.499 50z" />
    <glyph glyph-name="quotesingle" unicode="'" horiz-adv-x="225" 
d="M160 714l-20 -258h-55l-20 258h95z" />
    <glyph glyph-name="parenleft" unicode="(" horiz-adv-x="300" 
d="M40 274c0 81.333 11.834 159.83 35.501 235.497s60.834 143.834 111.501 204.501h83c-46.667 -62.667 -81.834 -131.667 -105.501 -207s-35.5 -152.666 -35.5 -231.999c0 -77.333 11.833 -153.166 35.5 -227.499s58.5 -142.833 104.5 -205.5h-82
c-50.667 58.667 -87.834 125.167 -111.501 199.5s-35.5 151.833 -35.5 232.5z" />
    <glyph glyph-name="parenright" unicode=")" horiz-adv-x="300" 
d="M260 274c0 -80.667 -11.832 -158.164 -35.499 -232.497s-60.834 -140.833 -111.501 -199.5h-82c46 62.667 80.833 131.167 104.5 205.5s35.5 150.166 35.5 227.499c0 79.333 -11.833 156.666 -35.5 231.999s-58.834 144.333 -105.501 207h83
c50.667 -60.667 87.834 -128.834 111.501 -204.501s35.5 -154.167 35.5 -235.5z" />
    <glyph glyph-name="asterisk" unicode="*" horiz-adv-x="551" 
d="M322 760l-20 -192l192 54l14 -92l-184 -15l119 -158l-86 -47l-85 175l-77 -175l-89 47l117 158l-182 15l14 92l190 -54l-21 192h98z" />
    <glyph glyph-name="plus" unicode="+" horiz-adv-x="572" 
d="M321 388h199v-71h-199v-206h-72v206h-199v71h199v207h72v-207z" />
    <glyph glyph-name="comma" unicode="," horiz-adv-x="268" 
d="M185 116l6.99902 -11.001c-9.33301 -35.333 -22 -74.166 -38 -116.499s-32 -81.5 -48 -117.5h-65c9.33301 38 18.833 79.667 28.5 125s16.834 85.333 21.501 120h94z" />
    <glyph glyph-name="hyphen" unicode="-" horiz-adv-x="322" 
d="M40 229v78h242v-78h-242z" />
    <glyph glyph-name="period" unicode="." horiz-adv-x="268" 
d="M72 54c0 24.667 6 42 18 52s26.333 15 43 15s31.334 -5 44.001 -15s19 -27.333 19 -52c0 -24 -6.33301 -41.333 -19 -52s-27.334 -16 -44.001 -16s-31 5.33301 -43 16s-18 28 -18 52z" />
    <glyph glyph-name="slash" unicode="/" horiz-adv-x="372" 
d="M362 714l-266 -714h-86l266 714h86z" />
    <glyph glyph-name="zero" unicode="0" horiz-adv-x="572" 
d="M523 358c0 -77.333 -8.00195 -143.333 -24.002 -198s-41.5 -96.667 -76.5 -126s-80.833 -44 -137.5 -44c-80.667 0 -140.167 32.5 -178.5 97.5s-57.5 155.167 -57.5 270.5c0 77.333 7.83301 143.333 23.5 198s40.834 96.5 75.501 125.5s80.334 43.5 137.001 43.5
c80 0 139.667 -32.167 179 -96.5s59 -154.5 59 -270.5zM136.998 358c0 -98 11.167 -171.333 33.5 -220s60.5 -73 114.5 -73c53.333 0 91.5 24.167 114.5 72.5s34.5 121.833 34.5 220.5c0 97.333 -11.5 170.333 -34.5 219s-61.167 73 -114.5 73
c-54 0 -92.167 -24.333 -114.5 -73s-33.5 -121.667 -33.5 -219z" />
    <glyph glyph-name="one" unicode="1" horiz-adv-x="572" 
d="M355 0l-86 -0.000976562v499c0 28.667 0.333008 51.667 1 69s1.66699 35.333 3 54c-10.667 -10.667 -20.5 -19.667 -29.5 -27s-19.833 -16.666 -32.5 -27.999l-76 -62l-46 59l193 150h73v-714z" />
    <glyph glyph-name="two" unicode="2" horiz-adv-x="572" 
d="M520 0l-472.002 0.000976562v73l187 189c35.333 36 65.5 68 90.5 96s43.833 55.333 56.5 82s19 56.334 19 89.001c0 39.333 -11.667 69.166 -35 89.499s-53.666 30.5 -90.999 30.5c-35.333 0 -66 -6 -92 -18s-52.667 -28.667 -80 -50l-47 59
c28 23.333 60.167 43.166 96.5 59.499s77.166 24.5 122.499 24.5c66.667 0 119.334 -17 158.001 -51s58 -80.333 58 -139c0 -37.333 -7.66699 -72.333 -23 -105s-36.666 -65 -63.999 -97s-59.333 -65.667 -96 -101l-149 -147v-4h361v-80z" />
    <glyph glyph-name="three" unicode="3" horiz-adv-x="572" 
d="M493 547c0 -48 -13.502 -86.1738 -40.502 -114.507s-62.833 -47.166 -107.5 -56.499v-4c56.667 -6.66699 99.167 -24.667 127.5 -54s42.5 -67.666 42.5 -114.999c0 -42 -9.66699 -79 -29 -111s-49.166 -57 -89.499 -75s-92.166 -27 -155.499 -27
c-37.333 0 -72 2.83301 -104 8.5s-62.667 15.834 -92 30.501v82c30 -15.333 62.333 -27 97 -35s68 -12 100 -12c64 0 110.167 12.5 138.5 37.5s42.5 59.5 42.5 103.5c0 44.667 -17.5 76.834 -52.5 96.501s-84.167 29.5 -147.5 29.5h-69v75h70
c58.667 0 103.167 12.333 133.5 37s45.5 57.334 45.5 98.001c0 34.667 -11.667 61.5 -35 80.5s-55 28.5 -95 28.5c-38.667 0 -71.667 -5.66699 -99 -17s-54.333 -25.666 -81 -42.999l-44 60c25.333 20 56.833 37.333 94.5 52s80.5 22 128.5 22
c74.667 0 130.167 -16.667 166.5 -50s54.5 -75.666 54.5 -126.999z" />
    <glyph glyph-name="four" unicode="4" horiz-adv-x="572" 
d="M552 162h-104v-162h-85v162h-342v75l336 481h91v-477h104v-79zM363 241v225.001c0 34.667 0.5 64.167 1.5 88.5s2.16699 47.5 3.5 69.5h-4c-5.33301 -12.667 -12 -26.334 -20 -41.001s-15.667 -27 -23 -37l-214 -305h256z" />
    <glyph glyph-name="five" unicode="5" horiz-adv-x="572" 
d="M275 438c72.667 0 130.836 -18.334 174.503 -55.001s65.5 -88.334 65.5 -155.001c0 -74 -23.5 -132.167 -70.5 -174.5s-112.5 -63.5 -196.5 -63.5c-37.333 0 -72 3.33301 -104 10s-59 16.334 -81 29.001v83c24 -14.667 53.167 -26.167 87.5 -34.5
s67.166 -12.5 98.499 -12.5c52.667 0 95.167 12.5 127.5 37.5s48.5 63.833 48.5 116.5c0 46.667 -14.333 82.5 -43 107.5s-74 37.5 -136 37.5c-18.667 0 -40 -1.66699 -64 -5s-43.333 -6.66602 -58 -9.99902l-44 28l27 337h358v-80h-283l-17 -207
c11.333 2 26.666 4.33301 45.999 7s40.666 4 63.999 4z" />
    <glyph glyph-name="six" unicode="6" horiz-adv-x="572" 
d="M55 305c0 51.333 4.50195 101.834 13.502 151.501s25.333 94.667 49 135s56.834 72.5 99.501 96.5s97.667 36 165 36c14 0 29.5 -0.666992 46.5 -2s30.833 -3.66602 41.5 -6.99902v-75c-12 4 -25.667 7 -41 9s-30.333 3 -45 3c-46 0 -84.333 -7.66699 -115 -23
s-54.834 -36.333 -72.501 -63s-30.5 -57.334 -38.5 -92.001s-13 -71.667 -15 -111h6c15.333 23.333 36.666 43.166 63.999 59.499s62.333 24.5 105 24.5c62 0 112 -18.833 150 -56.5s57 -91.167 57 -160.5c0 -74.667 -20.5 -133.334 -61.5 -176.001s-96.167 -64 -165.5 -64
c-45.333 0 -86.333 11.333 -123 34s-65.834 57.334 -87.501 104.001s-32.5 105.667 -32.5 177zM297.002 64.001c42 0 75.999 13.499 101.999 40.499s39 68.833 39 125.5c0 45.333 -11.5 81.333 -34.5 108s-57.5 40 -103.5 40c-31.333 0 -58.666 -6.5 -81.999 -19.5
s-41.5 -29.667 -54.5 -50s-19.5 -40.833 -19.5 -61.5c0 -28.667 5.66699 -57.167 17 -85.5s28.333 -51.666 51 -69.999s51 -27.5 85 -27.5z" />
    <glyph glyph-name="seven" unicode="7" horiz-adv-x="572" 
d="M136 0l293 634h-385v80h479v-68l-290 -646h-97z" />
    <glyph glyph-name="eight" unicode="8" horiz-adv-x="572" 
d="M285 724c62.667 0 114.001 -14.6689 154.001 -44.002s60 -71.666 60 -126.999c0 -28.667 -6.16699 -53.667 -18.5 -75s-28.833 -40.166 -49.5 -56.499s-43.334 -30.833 -68.001 -43.5c29.333 -14.667 56 -30.667 80 -48s43.167 -37.666 57.5 -60.999
s21.5 -51.333 21.5 -84c0 -60 -21.333 -107.5 -64 -142.5s-99.334 -52.5 -170.001 -52.5c-77.333 0 -136.5 16.833 -177.5 50.5s-61.5 80.834 -61.5 141.501c0 32 6.83301 60.167 20.5 84.5s31.834 45.166 54.501 62.499s47 32 73 44c-35.333 20 -65 44.167 -89 72.5
s-36 64.5 -36 108.5c0 36 9.33301 66.667 28 92s44 44.666 76 57.999s68.333 20 109 20zM284.001 652.998c-37.333 0 -67.668 -8.83105 -91.001 -26.498s-35 -43.167 -35 -76.5c0 -24.667 5.83301 -45.334 17.5 -62.001s27.5 -30.834 47.5 -42.501s42 -22.834 66 -33.501
c34.667 14.667 63.834 32.334 87.501 53.001s35.5 49 35.5 85c0 33.333 -11.667 58.833 -35 76.5s-54.333 26.5 -93 26.5zM134.999 181c0 -34.667 12.3311 -63.5 36.998 -86.5s62.667 -34.5 114 -34.5c48.667 0 85.834 11.5 111.501 34.5s38.5 52.833 38.5 89.5
c0 34.667 -13.667 63.5 -41 86.5s-63.666 43.167 -108.999 60.5l-16 6c-44 -19.333 -77.5 -41 -100.5 -65s-34.5 -54.333 -34.5 -91z" />
    <glyph glyph-name="nine" unicode="9" horiz-adv-x="572" 
d="M520 409c0 -51.333 -4.50195 -101.834 -13.502 -151.501s-25.333 -94.667 -49 -135s-57 -72.5 -100 -96.5s-98.167 -36 -165.5 -36c-13.333 0 -29 0.833008 -47 2.5s-32.333 4.16699 -43 7.5v75c26 -8.66699 55.333 -13 88 -13c46.667 0 85.167 7.66699 115.5 23
s54.5 36.166 72.5 62.499s31 57 39 92s12.667 71.833 14 110.5h-6c-15.333 -22.667 -36.666 -42.167 -63.999 -58.5s-62.666 -24.5 -105.999 -24.5c-61.333 0 -110.833 18.833 -148.5 56.5s-56.5 90.834 -56.5 159.501c0 50 9.33301 93 28 129s45.167 63.667 79.5 83
s74.5 29 120.5 29c45.333 0 86.333 -11.5 123 -34.5s65.667 -57.667 87 -104s32 -105.166 32 -176.499zM277.998 649.999c-41.333 0 -75.167 -13.667 -101.5 -41s-39.5 -69 -39.5 -125c0 -46 11.167 -82.167 33.5 -108.5s56.833 -39.5 103.5 -39.5c32 0 59.667 6.5 83 19.5
s41.5 29.5 54.5 49.5s19.5 40.667 19.5 62c0 28.667 -5.66699 57 -17 85s-28.333 51.333 -51 70s-51 28 -85 28z" />
    <glyph glyph-name="colon" unicode=":" horiz-adv-x="268" 
d="M72 482c0 25.333 6 43 18 53s26.333 15 43 15s31.334 -5 44.001 -15s19 -27.667 19 -53c0 -24 -6.33301 -41.333 -19 -52s-27.334 -16 -44.001 -16s-31 5.33301 -43 16s-18 28 -18 52zM72 54c0 24.667 6 42 18 52s26.333 15 43 15s31.334 -5 44.001 -15
s19 -27.333 19 -52c0 -24 -6.33301 -41.333 -19 -52s-27.334 -16 -44.001 -16s-31 5.33301 -43 16s-18 28 -18 52z" />
    <glyph glyph-name="semicolon" unicode=";" horiz-adv-x="268" 
d="M70 482c0 25.333 6 43 18 53s26.333 15 43 15c17.333 0 32.166 -5 44.499 -15s18.5 -27.667 18.5 -53c0 -24 -6.16699 -41.333 -18.5 -52s-27.166 -16 -44.499 -16c-16.667 0 -31 5.33301 -43 16s-18 28 -18 52zM176 116l6.99902 -10.998
c-8.66699 -35.333 -21.167 -74.333 -37.5 -117s-32.5 -81.667 -48.5 -117h-66l19 81c6.66699 29.333 12.834 58.166 18.501 86.499s10.167 54.166 13.5 77.499h94z" />
    <glyph glyph-name="less" unicode="&#x3c;" horiz-adv-x="572" 
d="M521 116l-471 207v50l471 235v-78l-377 -178l377 -158v-78z" />
    <glyph glyph-name="equal" unicode="=" horiz-adv-x="572" 
d="M56 416v71h458v-71h-458zM56 217v71h458v-71h-458z" />
    <glyph glyph-name="greater" unicode="&#x3e;" horiz-adv-x="572" 
d="M50 194l377 157l-377 179v78l471 -235v-50l-471 -207v78z" />
    <glyph glyph-name="question" unicode="?" horiz-adv-x="434" 
d="M140 201l0.000976562 27.001c0 25.333 2.5 47.166 7.5 65.499s13.667 35.666 26 51.999s29.166 33.833 50.499 52.5c25.333 21.333 45.333 39.5 60 54.5s25 29.5 31 43.5s9 31 9 51c0 32 -10.333 56.667 -31 74s-50.667 26 -90 26c-32.667 0 -61.667 -4.16699 -87 -12.5
s-49.666 -18.166 -72.999 -29.499l-31 70c26.667 14 56.167 25.667 88.5 35s68.5 14 108.5 14c63.333 0 112.333 -15.667 147 -47s52 -74 52 -128c0 -30 -4.83301 -55.5 -14.5 -76.5s-23.334 -40.333 -41.001 -58s-38.5 -36.5 -62.5 -56.5
c-22.667 -18.667 -39.667 -35 -51 -49s-19 -28 -23 -42s-6 -30.333 -6 -49v-17h-70zM117.001 54.001c0 24.667 5.83301 42 17.5 52s26.5 15 44.5 15c16.667 0 31 -5 43 -15s18 -27.333 18 -52c0 -24 -6 -41.333 -18 -52s-26.333 -16 -43 -16c-18 0 -32.833 5.33301 -44.5 16
s-17.5 28 -17.5 52z" />
    <glyph glyph-name="at" unicode="@" horiz-adv-x="899" 
d="M841 357c0 -30.667 -3.5 -60.665 -10.5 -89.998s-17.833 -55.833 -32.5 -79.5s-32.667 -42.667 -54 -57s-46.666 -21.5 -75.999 -21.5c-30.667 0 -54.834 8.83301 -72.501 26.5s-28.5 37.834 -32.5 60.501h-5c-12 -24.667 -29.667 -45.334 -53 -62.001
s-52.666 -25 -87.999 -25c-51.333 0 -90.666 17 -117.999 51s-41 79 -41 135c0 43.333 8.66699 82 26 116s41.833 60.667 73.5 80s69.167 29 112.5 29c29.333 0 58.166 -2.5 86.499 -7.5s50.5 -10.5 66.5 -16.5l-10 -203c-0.666992 -12 -1 -20.5 -1 -25.5v-10.5
c0 -35.333 6.16699 -58.5 18.5 -69.5s26.833 -16.5 43.5 -16.5c20.667 0 38.167 8.5 52.5 25.5s25.333 39.5 33 67.5s11.5 59.333 11.5 94c0 61.333 -12.5 113.666 -37.5 156.999s-59.333 76.333 -103 99s-93.167 34 -148.5 34c-76 0 -140.167 -15.667 -192.5 -47
s-92 -74.5 -119 -129.5s-40.5 -117.833 -40.5 -188.5c0 -98.667 26 -174.334 78 -227.001s127 -79 225 -79c40.667 0 79.5 4.5 116.5 13.5s69.833 18.833 98.5 29.5v-68c-28.667 -12 -60.834 -21.833 -96.501 -29.5s-75.167 -11.5 -118.5 -11.5
c-78.667 0 -146 14.667 -202 44s-98.833 71.5 -128.5 126.5s-44.5 121.167 -44.5 198.5c0 62 9.66699 119.5 29 172.5s47.333 99 84 138s81.167 69.333 133.5 91s111.5 32.5 177.5 32.5c69.333 0 131 -14.333 185 -43s96.5 -69.667 127.5 -123s46.5 -117 46.5 -191z
M336 293.002c0 -43.333 8.33398 -74.5 25.001 -93.5s39.667 -28.5 69 -28.5c37.333 0 64.166 14 80.499 42s25.833 64.333 28.5 109l6 125c-8.66699 2.66699 -19.667 5 -33 7s-27 3 -41 3c-32.667 0 -59 -8 -79 -24s-34.333 -36.5 -43 -61.5s-13 -51.167 -13 -78.5z" />
    <glyph glyph-name="A" unicode="A" horiz-adv-x="639" 
d="M545 0l-86 221h-283l-85 -221h-91l279 717h81l278 -717h-93zM432 301l-80 216.001c-2 5.33301 -5.33301 15 -10 29s-9.16699 28.5 -13.5 43.5s-7.83301 26.5 -10.5 34.5c-5.33301 -20.667 -10.833 -40.834 -16.5 -60.501s-10.5 -35.167 -14.5 -46.5l-81 -216h226z" />
    <glyph glyph-name="B" unicode="B" horiz-adv-x="650" 
d="M97 714l204 0.000976562c88.667 0 156 -13.333 202 -40s69 -72.334 69 -137.001c0 -42 -11.667 -76.833 -35 -104.5s-57 -45.5 -101 -53.5v-5c30 -5.33301 57.167 -14.333 81.5 -27s43.5 -30.667 57.5 -54s21 -53.333 21 -90c0 -64.667 -22.167 -114.667 -66.5 -150
s-104.833 -53 -181.5 -53h-251v714zM187 410.001l132.001 -0.000976562c60.667 0 102.5 9.83301 125.5 29.5s34.5 48.834 34.5 87.501c0 39.333 -13.833 67.5 -41.5 84.5s-71.834 25.5 -132.501 25.5h-118v-227zM187.001 335v-259h144c63.333 0 107.333 12.333 132 37
s37 57 37 97c0 37.333 -12.833 67.5 -38.5 90.5s-71.5 34.5 -137.5 34.5h-137z" />
    <glyph glyph-name="C" unicode="C" horiz-adv-x="632" 
d="M403 645c-76.667 0 -136.998 -25.667 -180.998 -77s-66 -121.666 -66 -210.999c0 -88.667 20.5 -158.834 61.5 -210.501s102.5 -77.5 184.5 -77.5c30.667 0 60 2.66699 88 8s55.667 12 83 20v-78c-26.667 -10 -54.167 -17.333 -82.5 -22s-62.166 -7 -101.499 -7
c-72.667 0 -133.334 15 -182.001 45s-85.167 72.667 -109.5 128s-36.5 120.333 -36.5 195c0 72 13.167 135.5 39.5 190.5s65.166 98 116.499 129s113.666 46.5 186.999 46.5c75.333 0 141 -14 197 -42l-36 -76c-22 10 -46.5 19 -73.5 27s-56.5 12 -88.5 12z" />
    <glyph glyph-name="D" unicode="D" horiz-adv-x="730" 
d="M669 364c0 -120.667 -32.833 -211.5 -98.5 -272.5s-157.167 -91.5 -274.5 -91.5h-199v714h220c71.333 0 133.5 -13.333 186.5 -40s93.833 -66 122.5 -118s43 -116 43 -192zM574 361c0 95.333 -23.5 165.167 -70.5 209.5s-113.5 66.5 -199.5 66.5h-117v-560h97
c193.333 0 290 94.667 290 284z" />
    <glyph glyph-name="E" unicode="E" horiz-adv-x="556" 
d="M496 0h-399v714h399v-79h-309v-223h291v-78h-291v-255h309v-79z" />
    <glyph glyph-name="F" unicode="F" horiz-adv-x="519" 
d="M187 0h-90v714h399v-79h-309v-253h290v-79h-290v-303z" />
    <glyph glyph-name="G" unicode="G" horiz-adv-x="728" 
d="M407 377l247 0.000976562v-350c-38.667 -12.667 -77.667 -22 -117 -28s-84 -9 -134 -9c-74 0 -136.333 14.833 -187 44.5s-89.167 72 -115.5 127s-39.5 120.167 -39.5 195.5c0 74 14.5 138.5 43.5 193.5s71.167 97.667 126.5 128s122 45.5 200 45.5
c40 0 77.833 -3.66699 113.5 -11s68.834 -17.666 99.501 -30.999l-34 -78c-25.333 10.667 -53.833 20.167 -85.5 28.5s-64.5 12.5 -98.5 12.5c-85.333 0 -151.833 -25.833 -199.5 -77.5s-71.5 -121.834 -71.5 -210.501c0 -56.667 9.16699 -106.834 27.5 -150.501
s47.166 -77.667 86.499 -102s91 -36.5 155 -36.5c31.333 0 58 1.66699 80 5s42 7.33301 60 12v212h-157v80z" />
    <glyph glyph-name="H" unicode="H" horiz-adv-x="741" 
d="M643 0h-90v333h-366v-333h-90v714h90v-302h366v302h90v-714z" />
    <glyph glyph-name="I" unicode="I" horiz-adv-x="339" 
d="M298 0h-258v52l84 19v571l-84 20v52h258v-52l-84 -20v-571l84 -19v-52z" />
    <glyph glyph-name="J" unicode="J" horiz-adv-x="273" 
d="M-4 -190c-16 0 -30 1.16797 -42 3.50098s-22.667 5.5 -32 9.5v76c10.667 -3.33301 22 -5.83301 34 -7.5s24.667 -2.5 38 -2.5c16.667 0 32.5 3.33301 47.5 10s27.167 18.167 36.5 34.5s14 39.833 14 70.5v710h90v-703c0 -68.667 -17 -119.334 -51 -152.001
s-79 -49 -135 -49z" />
    <glyph glyph-name="K" unicode="K" horiz-adv-x="619" 
d="M619 0h-106l-253 341l-73 -64v-277h-90v714h90v-352l61 68l62 68l193 216h105l-283 -311z" />
    <glyph glyph-name="L" unicode="L" horiz-adv-x="524" 
d="M97 0v714h90v-634h312v-80h-402z" />
    <glyph glyph-name="M" unicode="M" horiz-adv-x="907" 
d="M412 0l-235 626h-4c2 -20.667 3.66699 -48.5 5 -83.5s2 -71.5 2 -109.5v-433h-83v714h133l220 -585h4l224 585h132v-714h-89v439c0 34.667 0.833008 69 2.5 103s3.16699 61.667 4.5 83h-4l-238 -625h-74z" />
    <glyph glyph-name="N" unicode="N" horiz-adv-x="760" 
d="M663 0l-105 0.000976562l-382 593h-4l5 -87c2 -34.667 3 -70.334 3 -107.001v-399h-83v714h104l381 -591h4c-0.666992 10.667 -1.5 26.667 -2.5 48s-2 44.5 -3 69.5s-1.5 48.5 -1.5 70.5v403h84v-714z" />
    <glyph glyph-name="O" unicode="O" horiz-adv-x="781" 
d="M720 358c0 -74 -12.5 -138.5 -37.5 -193.5s-62 -97.833 -111 -128.5s-109.167 -46 -180.5 -46c-74 0 -135.5 15.333 -184.5 46s-85.5 73.667 -109.5 129s-36 120 -36 194c0 72.667 12 136.5 36 191.5s60.5 97.833 109.5 128.5s110.833 46 185.5 46
c71.333 0 131.333 -15.167 180 -45.5s85.5 -73 110.5 -128s37.5 -119.5 37.5 -193.5zM156 358c0 -90 18.999 -160.833 56.999 -212.5s97.333 -77.5 178 -77.5s139.834 25.833 177.501 77.5s56.5 122.5 56.5 212.5s-18.667 160.5 -56 211.5s-96.333 76.5 -177 76.5
c-81.333 0 -141 -25.5 -179 -76.5s-57 -121.5 -57 -211.5z" />
    <glyph glyph-name="P" unicode="P" horiz-adv-x="605" 
d="M286 714c93.333 0 161.334 -18.334 204.001 -55.001s64 -88.334 64 -155.001c0 -39.333 -8.83301 -76.166 -26.5 -110.499s-47.334 -62.166 -89.001 -83.499s-98.167 -32 -169.5 -32h-82v-278h-90v714h189zM278.001 636.999h-90.999v-282h72c68 0 118.667 11 152 33
s50 59.333 50 112c0 46 -14.833 80.333 -44.5 103s-75.834 34 -138.501 34z" />
    <glyph glyph-name="Q" unicode="Q" horiz-adv-x="781" 
d="M720 358c0 -87.333 -17.5 -161.832 -52.5 -223.499s-86.833 -103.834 -155.5 -126.501l171 -178h-129l-138 161c-4 0 -8.16699 -0.166992 -12.5 -0.5s-8.5 -0.5 -12.5 -0.5c-74 0 -135.5 15.333 -184.5 46s-85.5 73.667 -109.5 129s-36 120 -36 194
c0 72.667 12 136.5 36 191.5s60.5 97.833 109.5 128.5s110.833 46 185.5 46c71.333 0 131.333 -15.167 180 -45.5s85.5 -73 110.5 -128s37.5 -119.5 37.5 -193.5zM156 358.001c0 -90 18.999 -160.833 56.999 -212.5s97.333 -77.5 178 -77.5s139.834 25.833 177.501 77.5
s56.5 122.5 56.5 212.5s-18.667 160.5 -56 211.5s-96.333 76.5 -177 76.5c-81.333 0 -141 -25.5 -179 -76.5s-57 -121.5 -57 -211.5z" />
    <glyph glyph-name="R" unicode="R" horiz-adv-x="622" 
d="M294 714c88.667 0 154.167 -16.834 196.5 -50.501s63.5 -84.5 63.5 -152.5c0 -38 -7 -69.667 -21 -95s-31.833 -45.666 -53.5 -60.999s-44.5 -27 -68.5 -35l196 -320h-105l-173 295h-142v-295h-90v714h197zM289 635.999l-102 -0.000976562v-265h107
c58 0 100.333 11.5 127 34.5s40 56.833 40 101.5c0 46.667 -14 79.834 -42 99.501s-71.333 29.5 -130 29.5z" />
    <glyph glyph-name="S" unicode="S" horiz-adv-x="549" 
d="M502 191c0 -63.333 -23 -112.664 -69 -147.997s-108 -53 -186 -53c-40 0 -77 3 -111 9s-62.333 14.333 -85 25v86c24 -10.667 53.833 -20.334 89.5 -29.001s72.5 -13 110.5 -13c52.667 0 92.667 10.333 120 31s41 48.667 41 84c0 23.333 -5 43 -15 59
s-27.333 30.667 -52 44s-58.334 28 -101.001 44c-61.333 22 -107.333 49 -138 81s-46 75.667 -46 131c0 37.333 9.66699 69.666 29 96.999s46 48.333 80 63s73.667 22 119 22c38.667 0 74.334 -3.66699 107.001 -11s62.667 -17 90 -29l-28 -77
c-24.667 10.667 -51.667 19.667 -81 27s-59.333 11 -90 11c-44.667 0 -78.334 -9.5 -101.001 -28.5s-34 -44.167 -34 -75.5c0 -24 5 -44 15 -60s26.333 -30.5 49 -43.5s53.334 -26.5 92.001 -40.5c42 -15.333 77.5 -31.833 106.5 -49.5s51 -38.834 66 -63.501
s22.5 -55.667 22.5 -93z" />
    <glyph glyph-name="T" unicode="T" horiz-adv-x="556" 
d="M323 0h-90v635h-223v79h535v-79h-222v-635z" />
    <glyph glyph-name="U" unicode="U" horiz-adv-x="731" 
d="M640 714v-461.999c0 -49.333 -10 -93.833 -30 -133.5s-50.667 -71 -92 -94s-93.333 -34.5 -156 -34.5c-89.333 0 -157 24.167 -203 72.5s-69 112.166 -69 191.499v460h90v-463c0 -58 15.5 -103 46.5 -135s77.833 -48 140.5 -48c64.667 0 111.5 17.167 140.5 51.5
s43.5 78.5 43.5 132.5v462h89z" />
    <glyph glyph-name="V" unicode="V" horiz-adv-x="600" 
d="M600 714l-255 -714h-90l-255 714h94l161 -458c10.667 -29.333 19.5 -56.833 26.5 -82.5s13.167 -50.167 18.5 -73.5c4.66699 23.333 10.667 48 18 74s16.333 54 27 84l160 456h95z" />
    <glyph glyph-name="W" unicode="W" horiz-adv-x="930" 
d="M917 714l-189.998 -713.998h-91l-139 468c-6 18.667 -11.5 37.834 -16.5 57.501l-13 52c-3.66699 15 -5.83398 25.5 -6.50098 31.5c-0.666992 -8.66699 -4.33398 -27.167 -11.001 -55.5s-14.334 -57.833 -23.001 -88.5l-135 -465h-91l-189 714h94l111 -436
c8 -30.667 14.833 -60.334 20.5 -89.001s10.167 -55.667 13.5 -81c3.33301 26 8.33301 54.333 15 85s14.334 60.667 23.001 90l126 431h93l131 -434c9.33301 -30.667 17.333 -61.334 24 -92.001s11.667 -57.334 15 -80.001c2.66699 24.667 7.16699 51.5 13.5 80.5
s13.5 59.167 21.5 90.5l110 435h94z" />
    <glyph glyph-name="X" unicode="X" horiz-adv-x="586" 
d="M582 0h-102l-189 310l-192 -310h-95l237 372l-222 342h100l175 -280l176 280h95l-221 -340z" />
    <glyph glyph-name="Y" unicode="Y" horiz-adv-x="566" 
d="M283 363l186 351h97l-238 -437v-277h-90v273l-238 441h98z" />
    <glyph glyph-name="Z" unicode="Z" horiz-adv-x="572" 
d="M533 0h-495v68l376 566h-364v80h473v-68l-376 -566h386v-80z" />
    <glyph glyph-name="bracketleft" unicode="[" horiz-adv-x="329" 
d="M304 -158h-224v872h224v-72h-138v-728h138v-72z" />
    <glyph glyph-name="backslash" unicode="\" horiz-adv-x="372" 
d="M96 714l267 -714h-87l-266 714h86z" />
    <glyph glyph-name="bracketright" unicode="]" horiz-adv-x="329" 
d="M25 -86h138v728h-138v72h224v-872h-224v72z" />
    <glyph glyph-name="asciicircum" unicode="^" horiz-adv-x="572" 
d="M38 267l212 452h50l234 -452h-78l-180 359l-160 -359h-78z" />
    <glyph glyph-name="underscore" unicode="_" horiz-adv-x="444" 
d="M446 -154h-448v64h448v-64z" />
    <glyph glyph-name="grave" unicode="`" horiz-adv-x="281" 
d="M145 766c7.33301 -14.667 16.498 -31.167 27.498 -49.5s22.667 -36.333 35 -54s23.5 -32.5 33.5 -44.5v-12h-59c-15.333 12 -32.666 27.5 -51.999 46.5s-37.166 38 -53.499 57s-28.5 34.5 -36.5 46.5v10h105z" />
    <glyph glyph-name="a" unicode="a" horiz-adv-x="561" 
d="M288 545c65.333 0 113.666 -14.333 144.999 -43s47 -74.334 47 -137.001v-365h-64l-17 76h-4c-23.333 -29.333 -48 -51 -74 -65s-61.333 -21 -106 -21c-48.667 0 -89 12.833 -121 38.5s-48 65.834 -48 120.501c0 53.333 21 94.5 63 123.5s106.667 44.833 194 47.5l91 3
v32c0 44.667 -9.66699 75.667 -29 93s-46.666 26 -81.999 26c-28 0 -54.667 -4.16699 -80 -12.5s-49 -17.833 -71 -28.5l-27 66c23.333 12.667 51 23.5 83 32.5s65.333 13.5 100 13.5zM393 262l-78.999 -2.99902c-66.667 -2.66699 -112.834 -13.334 -138.501 -32.001
s-38.5 -45 -38.5 -79c0 -30 9.16699 -52 27.5 -66s41.833 -21 70.5 -21c44.667 0 82.167 12.5 112.5 37.5s45.5 63.5 45.5 115.5v48z" />
    <glyph glyph-name="b" unicode="b" horiz-adv-x="615" 
d="M173 760v-184.998c0 -22.667 -0.5 -43.834 -1.5 -63.501s-2.16699 -35.167 -3.5 -46.5h5c15.333 22.667 36.333 41.667 63 57s61 23 103 23c66.667 0 120.167 -23.167 160.5 -69.5s60.5 -115.5 60.5 -207.5s-20.333 -161.333 -61 -208s-94 -70 -160 -70
c-42 0 -76.333 7.66699 -103 23s-47.667 33.666 -63 54.999h-7l-18 -68h-63v760h88zM324 472.002c-57.333 0 -96.834 -16.332 -118.501 -48.999s-32.5 -83.334 -32.5 -152.001v-4c0 -66 10.833 -116.5 32.5 -151.5s61.834 -52.5 120.501 -52.5c48 0 83.833 17.667 107.5 53
s35.5 86.333 35.5 153c0 135.333 -48.333 203 -145 203z" />
    <glyph glyph-name="c" unicode="c" horiz-adv-x="480" 
d="M300 -10c-48 0 -90.3359 9.66797 -127.003 29.001s-65.5 49.333 -86.5 90s-31.5 92.667 -31.5 156c0 66 10.833 119.667 32.5 161s51.5 71.666 89.5 90.999s81 29 129 29c26.667 0 52.834 -2.83301 78.501 -8.5s46.5 -12.5 62.5 -20.5l-27 -73
c-16 6 -34.667 11.667 -56 17s-41.333 8 -60 8c-105.333 0 -158 -67.667 -158 -203c0 -64.667 12.833 -114.167 38.5 -148.5s63.834 -51.5 114.501 -51.5c28.667 0 54.334 3 77.001 9s43.334 13.333 62.001 22v-78c-18 -9.33301 -37.833 -16.5 -59.5 -21.5
s-47.834 -7.5 -78.501 -7.5z" />
    <glyph glyph-name="d" unicode="d" horiz-adv-x="615" 
d="M275 -10c-66.667 0 -120 23.167 -160 69.5s-60 115.5 -60 207.5s20.167 161.5 60.5 208.5s93.833 70.5 160.5 70.5c41.333 0 75.166 -7.66699 101.499 -23s47.833 -34 64.5 -56h6c-1.33301 8.66699 -2.66602 21.5 -3.99902 38.5s-2 30.5 -2 40.5v214h88v-760h-71l-13 72
h-4c-16 -22.667 -37.333 -42 -64 -58s-61 -24 -103 -24zM289 63c56.667 0 96.5 15.499 119.5 46.499s34.5 77.833 34.5 140.5v16c0 66.667 -11 117.834 -33 153.501s-62.667 53.5 -122 53.5c-47.333 0 -82.833 -18.833 -106.5 -56.5s-35.5 -88.167 -35.5 -151.5
c0 -64 11.833 -113.667 35.5 -149s59.5 -53 107.5 -53z" />
    <glyph glyph-name="e" unicode="e" horiz-adv-x="564" 
d="M292 546c45.333 0 84.668 -10 118.001 -30s58.833 -48.167 76.5 -84.5s26.5 -78.833 26.5 -127.5v-53h-367c1.33301 -60.667 16.833 -106.834 46.5 -138.501s71.167 -47.5 124.5 -47.5c34 0 64.167 3.16699 90.5 9.5s53.5 15.5 81.5 27.5v-77
c-27.333 -12 -54.333 -20.833 -81 -26.5s-58.334 -8.5 -95.001 -8.5c-51.333 0 -96.333 10.333 -135 31s-68.834 51.334 -90.501 92.001s-32.5 91 -32.5 151c0 58.667 9.83301 109 29.5 151s47.334 74.333 83.001 97s77.167 34 124.5 34zM291.002 474
c-42 0 -75.165 -13.499 -99.498 -40.499s-38.833 -64.5 -43.5 -112.5h273c-0.666992 45.333 -11.334 82.166 -32.001 110.499s-53.334 42.5 -98.001 42.5z" />
    <glyph glyph-name="f" unicode="f" horiz-adv-x="344" 
d="M332 468l-135 0.00292969v-468h-88v468h-94v41l94 30v31c0 69.333 15.167 119.166 45.5 149.499s73.166 45.5 128.499 45.5c20.667 0 40 -1.83301 58 -5.5s33.333 -7.83398 46 -12.501l-23 -69c-10.667 3.33301 -23 6.66602 -37 9.99902s-28.333 5 -43 5
c-29.333 0 -51.166 -9.83301 -65.499 -29.5s-21.5 -50.5 -21.5 -92.5v-35h135v-68z" />
    <glyph glyph-name="g" unicode="g" horiz-adv-x="615" 
d="M275 546c35.333 0 67.166 -6.66602 95.499 -19.999s52.5 -33.666 72.5 -60.999h5l12 71h70v-545c0 -76.667 -19.5 -134.334 -58.5 -173.001s-99.5 -58 -181.5 -58c-78.667 0 -143 11.333 -193 34v81c52.667 -28 118.667 -42 198 -42c46 0 82.167 13.5 108.5 40.5
s39.5 63.833 39.5 110.5v21c0 8 0.333008 19.5 1 34.5s1.33398 25.5 2.00098 31.5h-4c-36 -54 -91.333 -81 -166 -81c-69.333 0 -123.5 24.333 -162.5 73s-58.5 116.667 -58.5 204c0 85.333 19.5 153.166 58.5 203.499s92.833 75.5 161.5 75.5zM287 472.001
c-44.667 0 -79.333 -17.833 -104 -53.5s-37 -86.5 -37 -152.5s12 -116.5 36 -151.5s59.667 -52.5 107 -52.5c54 0 93.333 14.5 118 43.5s37 75.833 37 140.5v21c0 72.667 -12.667 125 -38 157s-65 48 -119 48z" />
    <glyph glyph-name="h" unicode="h" horiz-adv-x="618" 
d="M173 760l-0.000976562 -222.999c0 -26.667 -1.66699 -51.667 -5 -75h6c17.333 27.333 40.833 48 70.5 62s61.834 21 96.501 21c64.667 0 113.5 -15.5 146.5 -46.5s49.5 -80.833 49.5 -149.5v-349h-87v343c0 86 -40 129 -120 129c-60 0 -101.167 -16.833 -123.5 -50.5
s-33.5 -81.834 -33.5 -144.501v-277h-88v760h88z" />
    <glyph glyph-name="i" unicode="i" horiz-adv-x="258" 
d="M130 737c13.333 0 25.166 -4.5 35.499 -13.5s15.5 -23.167 15.5 -42.5s-5.16699 -33.5 -15.5 -42.5s-22.166 -13.5 -35.499 -13.5c-14.667 0 -27 4.5 -37 13.5s-15 23.167 -15 42.5s5 33.5 15 42.5s22.333 13.5 37 13.5zM173 536v-536h-88v536h88z" />
    <glyph glyph-name="j" unicode="j" horiz-adv-x="258" 
d="M78 681c0 19.333 5 33.5 15 42.5s22.333 13.5 37 13.5c13.333 0 25.166 -4.5 35.499 -13.5s15.5 -23.167 15.5 -42.5s-5.16699 -33.5 -15.5 -42.5s-22.166 -13.5 -35.499 -13.5c-14.667 0 -27 4.5 -37 13.5s-15 23.167 -15 42.5zM22 -240
c-17.333 0 -32.333 1.16699 -45 3.5s-23.334 5.16602 -32.001 8.49902v71c10 -3.33301 20.333 -5.83301 31 -7.5s22.334 -2.5 35.001 -2.5c21.333 0 39 5.83301 53 17.5s21 33.834 21 66.501v619h88v-616c0 -50 -12 -89.167 -36 -117.5s-62.333 -42.5 -115 -42.5z" />
    <glyph glyph-name="k" unicode="k" horiz-adv-x="534" 
d="M172 760v-397c0 -10.667 -0.5 -24.667 -1.5 -42s-1.83301 -32.333 -2.5 -45h4l18 23l24.5 30.5c8.33301 10.333 15.5 18.833 21.5 25.5l171 181h103l-217 -229l232 -307h-106l-186 250l-61 -53v-197h-87v760h87z" />
    <glyph glyph-name="l" unicode="l" horiz-adv-x="258" 
d="M173 0h-88v760h88v-760z" />
    <glyph glyph-name="m" unicode="m" horiz-adv-x="935" 
d="M673 546c60.667 0 106 -15.668 136 -47.001s45 -81.333 45 -150v-349h-87v345c0 84.667 -36.333 127 -109 127c-52 0 -89.167 -15 -111.5 -45s-33.5 -73.667 -33.5 -131v-296h-87v345c0 84.667 -36.667 127 -110 127c-54 0 -91.333 -16.667 -112 -50
s-31 -81.333 -31 -144v-278h-88v536h71l13 -73h5c16.667 28 39.167 48.833 67.5 62.5s58.5 20.5 90.5 20.5c84 0 138.667 -30 164 -90h5c18 30.667 42.333 53.334 73 68.001s63.667 22 99 22z" />
    <glyph glyph-name="n" unicode="n" horiz-adv-x="618" 
d="M343 546c64 0 112.333 -15.667 145 -47s49 -81.333 49 -150v-349h-87v343c0 86 -40 129 -120 129c-59.333 0 -100.333 -16.667 -123 -50s-34 -81.333 -34 -144v-278h-88v536h71l13 -73h5c17.333 28 41.333 48.833 72 62.5s63 20.5 97 20.5z" />
    <glyph glyph-name="o" unicode="o" horiz-adv-x="605" 
d="M551 269c0 -88.667 -22.499 -157.334 -67.499 -206.001s-105.833 -73 -182.5 -73c-47.333 0 -89.5 10.833 -126.5 32.5s-66.167 53.334 -87.5 95.001s-32 92.167 -32 151.5c0 88.667 22.167 157 66.5 205s105.166 72 182.499 72c48 0 90.667 -10.833 128 -32.5
s66.5 -53 87.5 -94s31.5 -91.167 31.5 -150.5zM146.001 269c0 -63.333 12.501 -113.5 37.501 -150.5s64.833 -55.5 119.5 -55.5c54 0 93.667 18.5 119 55.5s38 87.167 38 150.5s-12.667 113 -38 149s-65.333 54 -120 54s-94.334 -18 -119.001 -54s-37 -85.667 -37 -149z" />
    <glyph glyph-name="p" unicode="p" horiz-adv-x="615" 
d="M340 546c66 0 119.166 -23.001 159.499 -69.001s60.5 -115.333 60.5 -208c0 -91.333 -20.167 -160.666 -60.5 -207.999s-93.833 -71 -160.5 -71c-41.333 0 -75.5 7.66699 -102.5 23s-48.167 33.666 -63.5 54.999h-6c0.666992 -11.333 1.83398 -25.666 3.50098 -42.999
s2.5 -32.333 2.5 -45v-220h-88v776h72l12 -73h4c16 23.333 37 43 63 59s60.667 24 104 24zM323.999 471.999c-54.667 0 -93.332 -15.332 -115.999 -45.999s-34.334 -77.334 -35.001 -140.001v-17c0 -66 10.833 -116.833 32.5 -152.5s61.834 -53.5 120.501 -53.5
c32 0 58.667 8.83301 80 26.5s37.166 42.167 47.499 73.5s15.5 67 15.5 107c0 61.333 -11.833 110.333 -35.5 147s-60.167 55 -109.5 55z" />
    <glyph glyph-name="q" unicode="q" horiz-adv-x="615" 
d="M442 -240v229c0 12 0.333008 26 1 42s2 29.667 4 41h-6c-15.333 -22.667 -36.5 -42 -63.5 -58s-61.833 -24 -104.5 -24c-64.667 0 -117.167 23.167 -157.5 69.5s-60.5 115.5 -60.5 207.5s20.5 161.5 61.5 208.5s94.167 70.5 159.5 70.5c42 0 76.333 -8 103 -24
s48 -35.667 64 -59h4l13 73h70v-776h-88zM290 63c54.667 0 93.668 15.167 117.001 45.5s35.333 76.833 36 139.5v18c0 68 -11.333 119.5 -34 154.5s-63 52.5 -121 52.5c-48 0 -83.667 -18.833 -107 -56.5s-35 -88.167 -35 -151.5s11.667 -112.833 35 -148.5
s59.666 -53.5 108.999 -53.5z" />
    <glyph glyph-name="r" unicode="r" horiz-adv-x="413" 
d="M335 546c10 0 20.6689 -0.499023 32.002 -1.49902s21.666 -2.5 30.999 -4.5l-11 -81c-8.66699 2 -18.334 3.66699 -29.001 5s-20.334 2 -29.001 2c-27.333 0 -53 -7.5 -77 -22.5s-43.167 -36 -57.5 -63s-21.5 -58.5 -21.5 -94.5v-286h-88v536h72l10 -98h4
c16.667 29.333 38.834 54.666 66.501 75.999s60.167 32 97.5 32z" />
    <glyph glyph-name="s" unicode="s" horiz-adv-x="479" 
d="M434 148c0 -52 -19.3291 -91.332 -57.9961 -117.999s-90.667 -40 -156 -40c-37.333 0 -69.5 3 -96.5 9s-50.833 14.333 -71.5 25v80c21.333 -10.667 47.166 -20.5 77.499 -29.5s61.166 -13.5 92.499 -13.5c44.667 0 77 7.16699 97 21.5s30 33.5 30 57.5
c0 13.333 -3.66699 25.333 -11 36s-20.5 21.334 -39.5 32.001s-46.167 22.667 -81.5 36c-34.667 13.333 -64.334 26.666 -89.001 39.999s-43.667 29.333 -57 48s-20 42.667 -20 72c0 45.333 18.5 80.333 55.5 105s85.5 37 145.5 37c32.667 0 63.167 -3.33301 91.5 -10
s54.833 -15.334 79.5 -26.001l-30 -70c-22.667 9.33301 -46.334 17.333 -71.001 24s-50 10 -76 10c-36 0 -63.5 -5.83301 -82.5 -17.5s-28.5 -27.5 -28.5 -47.5c0 -15.333 4.33301 -28 13 -38s23.167 -20 43.5 -30s47.5 -21.333 81.5 -34s63 -25.667 87 -39
s42.333 -29.5 55 -48.5s19 -42.833 19 -71.5z" />
    <glyph glyph-name="t" unicode="t" horiz-adv-x="361" 
d="M264 62c13.333 0 26.999 1.00098 40.999 3.00098s25.333 4.66699 34 8v-67c-9.33301 -4.66699 -22.666 -8.5 -39.999 -11.5s-34 -4.5 -50 -4.5c-28 0 -53.833 4.83301 -77.5 14.5s-42.834 26.5 -57.501 50.5s-22 57.667 -22 101v312h-76v42l77 35l35 114h52v-123h155v-68
h-155v-310c0 -32.667 7.83301 -56.834 23.5 -72.501s35.834 -23.5 60.501 -23.5z" />
    <glyph glyph-name="u" unicode="u" horiz-adv-x="618" 
d="M533 536l0.00195312 -536h-72l-13 71h-4c-17.333 -28 -41.333 -48.5 -72 -61.5s-63.334 -19.5 -98.001 -19.5c-64.667 0 -113.334 15.5 -146.001 46.5s-49 80.5 -49 148.5v351h89v-345c0 -85.333 39.667 -128 119 -128c59.333 0 100.5 16.667 123.5 50
s34.5 81.333 34.5 144v279h88z" />
    <glyph glyph-name="v" unicode="v" horiz-adv-x="508" 
d="M203 0l-203 536.001h94l114 -316l17 -49c6 -18 11.333 -35.333 16 -52s8 -30.334 10 -41.001h4c2 10.667 5.66699 24.5 11 41.5l17 52l17 48.5l114 316h94l-204 -536h-101z" />
    <glyph glyph-name="w" unicode="w" horiz-adv-x="786" 
d="M523 1l-92 302c-8.66699 27.333 -16.334 54 -23.001 80s-11.334 46.667 -14.001 62h-4c-2.66699 -15.333 -7 -36 -13 -62s-13.667 -53 -23 -81l-96 -301h-100l-147 536h91l74 -286c7.33301 -28.667 14.333 -57.667 21 -87s11.334 -53.666 14.001 -72.999h4
c2 11.333 5 25.333 9 42l13 52.5c4.66699 18.333 9.33398 34.833 14.001 49.5l95 302h96l92 -302l21 -75c7.33301 -26.667 12.333 -49.334 15 -68.001h4c2 16.667 6.5 39.667 13.5 69l22.5 90l75 286h90l-149 -536h-103z" />
    <glyph glyph-name="x" unicode="x" horiz-adv-x="529" 
d="M212 274l-185 262h100l138 -202l137 202h99l-185 -262l195 -274h-100l-146 214l-148 -214h-99z" />
    <glyph glyph-name="y" unicode="y" horiz-adv-x="510" 
d="M1 536l94 -0.000976562l116 -305c10 -27.333 19 -53 27 -77s14 -47 18 -69h4c4 16.667 10.333 38.5 19 65.5l27 81.5l109 304h95l-231 -610c-19.333 -50.667 -43.666 -91 -72.999 -121s-70 -45 -122 -45c-16 0 -30 0.833008 -42 2.5s-22.333 3.5 -31 5.5v70
c7.33301 -1.33301 16.166 -2.66602 26.499 -3.99902s21.166 -2 32.499 -2c30.667 0 55.334 8.66699 74.001 26s33.667 40.333 45 69l28 71z" />
    <glyph glyph-name="z" unicode="z" horiz-adv-x="470" 
d="M431 0h-392v58l288 410h-271v68h368v-66l-284 -402h291v-68z" />
    <glyph glyph-name="braceleft" unicode="{" horiz-adv-x="380" 
d="M348 -158c-61.333 0.666992 -109.666 14.001 -144.999 40.001s-53 65.667 -53 119v147c0 34 -10.5 58.167 -31.5 72.5s-51.167 21.5 -90.5 21.5v73c39.333 0.666992 69.5 8 90.5 22s31.5 37.667 31.5 71v148c0 53.333 18.333 93 55 119s84.334 39 143.001 39v-72
c-34.667 -1.33301 -61.834 -9.16602 -81.501 -23.499s-29.5 -37.833 -29.5 -70.5v-144c0 -68.667 -36.333 -109.334 -109 -122.001v-6c72.667 -12.667 109 -53.334 109 -122.001v-147c0 -32.667 9.66699 -56.167 29 -70.5s46.666 -21.833 81.999 -22.5v-72z" />
    <glyph glyph-name="bar" unicode="|" horiz-adv-x="551" 
d="M239 760h73v-1001h-73v1001z" />
    <glyph glyph-name="braceright" unicode="}" horiz-adv-x="380" 
d="M32 -158v71.999c34.667 1.33301 61.834 9.16602 81.501 23.499s29.5 37.833 29.5 70.5v145c0 68.667 36.333 109.334 109 122.001v6c-72.667 12.667 -109 53.334 -109 122.001v146c0 32.667 -9.66699 56.167 -29 70.5s-46.666 21.833 -81.999 22.5v72
c61.333 -0.666992 109.666 -14 144.999 -40s53 -65.667 53 -119v-146c0 -34 10.5 -58.167 31.5 -72.5s51.167 -21.5 90.5 -21.5v-73c-39.333 -0.666992 -69.5 -8 -90.5 -22s-31.5 -37.667 -31.5 -71v-149c0 -53.333 -18.333 -93 -55 -119s-84.334 -39 -143.001 -39z" />
    <glyph glyph-name="asciitilde" unicode="~" horiz-adv-x="572" 
d="M269 319c-24 10.667 -43.832 17.834 -59.499 21.501s-30.834 5.5 -45.501 5.5c-18.667 0 -38.334 -5.66699 -59.001 -17s-39 -25.333 -55 -42v78c32 35.333 72 53 120 53c18.667 0 37.667 -2 57 -6s44.333 -12.667 75 -26c24 -10.667 43.833 -17.834 59.5 -21.501
s30.5 -5.5 44.5 -5.5c19.333 0 39.333 5.66699 60 17s39 25.333 55 42v-77c-32.667 -36 -72.667 -54 -120 -54c-19.333 0 -38.666 2.16699 -57.999 6.5s-44 12.833 -74 25.5z" />
    <glyph glyph-name="uni00A0" unicode="&#xa0;" horiz-adv-x="260" 
 />
    <glyph glyph-name="exclamdown" unicode="&#xa1;" horiz-adv-x="269" 
d="M196 478c0 -25.333 -6 -42.833 -18 -52.5s-26.667 -14.5 -44 -14.5s-32 4.83301 -44 14.5s-18 27.167 -18 52.5c0 24 6 41.333 18 52s26.667 16 44 16s32 -5.33301 44 -16s18 -28 18 -52zM104 330h58l25 -512h-108z" />
    <glyph glyph-name="cent" unicode="&#xa2;" horiz-adv-x="572" 
d="M353 724v-80.0049c24.667 -1.33301 48.667 -4.66602 72 -9.99902s43.333 -11.666 60 -18.999l-26 -73c-17.333 6.66699 -37 12.667 -59 18s-42 8 -60 8c-54.667 0 -94.834 -17 -120.501 -51s-38.5 -85.333 -38.5 -154c0 -69.333 13.167 -119.833 39.5 -151.5
s64.833 -47.5 115.5 -47.5c29.333 0 54.833 2.83301 76.5 8.5s42.834 12.834 63.501 21.501v-77c-18 -8.66699 -36.667 -15.667 -56 -21s-42 -8.33301 -68 -9v-97h-67v100c-39.333 6 -73.5 19 -102.5 39s-51.5 48.833 -67.5 86.5s-24 86.5 -24 146.5
c0 60.667 8 110.334 24 149.001s38.5 68.334 67.5 89.001s63.167 34 102.5 40v84h68z" />
    <glyph glyph-name="sterling" unicode="&#xa3;" horiz-adv-x="572" 
d="M334 723c36.667 0 69.5 -3.99805 98.5 -11.998s55.167 -17.667 78.5 -29l-31 -70c-20 9.33301 -42.333 18 -67 26s-50.334 12 -77.001 12c-38 0 -67 -9.83301 -87 -29.5s-30 -51.5 -30 -95.5v-139h204v-66h-204v-104c0 -40.667 -7 -70.834 -21 -90.501
s-29.667 -34.834 -47 -45.501h384v-80h-503v74c28.667 6.66699 52.334 20.834 71.001 42.501s28 54.5 28 98.5v105h-96v66h96v148c0 59.333 18.5 105.666 55.5 138.999s86.167 50 147.5 50z" />
    <glyph glyph-name="currency" unicode="&#xa4;" horiz-adv-x="572" 
d="M90 353c0 20 3.16797 39.5 9.50098 58.5s14.833 36.167 25.5 51.5l-66 68l49 47l66 -64c15.333 10.667 32.5 19.167 51.5 25.5s39.167 9.5 60.5 9.5c20.667 0 40.167 -3.16699 58.5 -9.5s35.5 -14.833 51.5 -25.5l67 64l48 -47l-64 -67c10 -15.333 18.333 -32.5 25 -51.5
s10 -38.833 10 -59.5c0 -42 -11.667 -79.333 -35 -112l63 -66l-47 -47l-67 64c-15.333 -10.667 -32.333 -19 -51 -25s-38.334 -9 -59.001 -9c-42.667 0 -80 11.667 -112 35l-66 -64l-48 47l65 66c-10.667 15.333 -19.167 32.5 -25.5 51.5s-9.5 38.833 -9.5 59.5z
M157.001 353c0 -24 5.66699 -45.833 17 -65.5s26.833 -35.167 46.5 -46.5s41.5 -17 65.5 -17s45.833 5.66699 65.5 17s35.334 26.833 47.001 46.5s17.5 41.5 17.5 65.5c0 24.667 -5.83301 46.834 -17.5 66.501s-27.334 35.334 -47.001 47.001s-41.5 17.5 -65.5 17.5
s-45.833 -5.83301 -65.5 -17.5s-35.167 -27.334 -46.5 -47.001s-17 -41.834 -17 -66.501z" />
    <glyph glyph-name="yen" unicode="&#xa5;" horiz-adv-x="572" 
d="M285 365l179 349h92l-201 -375h124v-64h-151v-82h151v-64h-151v-129h-86v129h-151v64h151v82h-151v64h122l-199 375h93z" />
    <glyph glyph-name="brokenbar" unicode="&#xa6;" horiz-adv-x="551" 
d="M239 760h73v-381h-73v381zM239 140h73v-381h-73v381z" />
    <glyph glyph-name="section" unicode="&#xa7;" horiz-adv-x="513" 
d="M67 395c0 32.667 7.99707 59.334 23.9971 80.001s34.333 36 55 46c-24 12.667 -42.667 28.334 -56 47.001s-20 41.334 -20 68.001c0 40 17 71.5 51 94.5s82.667 34.5 146 34.5c37.333 0 68.833 -3.16699 94.5 -9.5s51.167 -14.5 76.5 -24.5l-27 -67
c-23.333 9.33301 -46.166 17.166 -68.499 23.499s-49.5 9.5 -81.5 9.5c-40 0 -68.167 -5.16699 -84.5 -15.5s-24.5 -24.833 -24.5 -43.5s9.33301 -34.5 28 -47.5s53.334 -28.833 104.001 -47.5c51.333 -19.333 91.333 -40.833 120 -64.5s43 -55.5 43 -95.5
c0 -34 -7.66699 -61.833 -23 -83.5s-32.666 -38.167 -51.999 -49.5c23.333 -12.667 41.5 -27.834 54.5 -45.501s19.5 -39.167 19.5 -64.5c0 -46 -19.167 -81.667 -57.5 -107s-91.833 -38 -160.5 -38c-37.333 0 -69.666 2.83301 -96.999 8.5s-51.333 13.834 -72 24.501v75
c21.333 -10 47.666 -19.333 78.999 -28s62.666 -13 93.999 -13c49.333 0 83.333 7 102 21s28 30.667 28 50c0 12.667 -3.16699 23.667 -9.5 33s-18.666 19 -36.999 29s-45.833 22 -82.5 36c-35.333 12.667 -65.333 26.167 -90 40.5s-43.5 31.166 -56.5 50.499
s-19.5 43.666 -19.5 72.999zM141.997 405c0 -24.667 10.501 -45.501 31.501 -62.501s58.167 -35.5 111.5 -55.5l22 -8c15.333 8.66699 29.833 20.334 43.5 35.001s20.5 33.334 20.5 56.001c0 16.667 -4.5 31.667 -13.5 45s-24.833 26.166 -47.5 38.499
s-54.667 24.833 -96 37.5c-18.667 -4.66699 -35.334 -14.667 -50.001 -30s-22 -34 -22 -56z" />
    <glyph glyph-name="dieresis" unicode="&#xa8;" horiz-adv-x="580" 
d="M149 681c0 17.333 4.5 29.833 13.5 37.5s20.167 11.5 33.5 11.5c12.667 0 23.667 -3.83301 33 -11.5s14 -20.167 14 -37.5c0 -16.667 -4.66699 -29.167 -14 -37.5s-20.333 -12.5 -33 -12.5c-13.333 0 -24.5 4.16699 -33.5 12.5s-13.5 20.833 -13.5 37.5zM337 681
c0 17.333 4.5 29.833 13.5 37.5s19.833 11.5 32.5 11.5s23.667 -3.83301 33 -11.5s14 -20.167 14 -37.5c0 -16.667 -4.66699 -29.167 -14 -37.5s-20.333 -12.5 -33 -12.5s-23.5 4.16699 -32.5 12.5s-13.5 20.833 -13.5 37.5z" />
    <glyph glyph-name="copyright" unicode="&#xa9;" horiz-adv-x="832" 
d="M416 -10c-53.333 0 -102.333 9 -147 27s-83.5 43.5 -116.5 76.5s-58.5 71.833 -76.5 116.5s-27 93.667 -27 147s9 102.333 27 147s43.5 83.5 76.5 116.5s71.833 58.5 116.5 76.5s93.667 27 147 27c50.667 0 98.167 -9 142.5 -27s83.333 -43.5 117 -76.5
s60 -71.833 79 -116.5s28.5 -93.667 28.5 -147s-9 -102.333 -27 -147s-43.5 -83.5 -76.5 -116.5s-71.833 -58.5 -116.5 -76.5s-93.667 -27 -147 -27zM416 43c42.667 0 82.668 7.66797 120.001 23.001s70.333 37.166 99 65.499s51 61.5 67 99.5s24 80 24 126
c0 43.333 -7.66699 84 -23 122s-36.833 71.333 -64.5 100s-60.334 51.167 -98.001 67.5s-79.167 24.5 -124.5 24.5c-60 0 -113.5 -13.5 -160.5 -40.5s-83.833 -64.167 -110.5 -111.5s-40 -101.333 -40 -162c0 -43.333 7.66699 -84 23 -122s36.833 -71.333 64.5 -100
s60.5 -51.167 98.5 -67.5s79.667 -24.5 125 -24.5zM431.001 133.001c-66 0 -115.333 20.498 -148 61.498s-49 95.167 -49 162.5c0 43.333 7.66699 81.833 23 115.5s38 60 68 79s66.667 28.5 110 28.5s84.333 -10 123 -30l-29 -61c-33.333 17.333 -64.333 26 -93 26
c-39.333 0 -69.833 -14.167 -91.5 -42.5s-32.5 -66.833 -32.5 -115.5c0 -51.333 9.5 -90.666 28.5 -117.999s50.5 -41 94.5 -41c15.333 0 32.5 2.16699 51.5 6.5s36.833 9.83301 53.5 16.5v-64c-16 -7.33301 -32.333 -13.166 -49 -17.499s-36.667 -6.5 -60 -6.5z" />
    <glyph glyph-name="ordfeminine" unicode="&#xaa;" horiz-adv-x="357" 
d="M177 722c43.333 0 76.002 -8.99902 98.002 -26.999s33 -46.667 33 -86v-220h-47l-12 42c-13.333 -14 -29.5 -25.5 -48.5 -34.5s-40.833 -13.5 -65.5 -13.5c-31.333 0 -56.333 8.16699 -75 24.5s-28 41.166 -28 74.499c0 66 52.667 101 158 105l56 2v22
c0 22 -7 37.333 -21 46s-30.667 13 -50 13c-18.667 0 -36.5 -2.5 -53.5 -7.5s-32.833 -11.167 -47.5 -18.5l-22 49c17.333 8.66699 36.666 15.667 57.999 21s43.666 8 66.999 8zM246.002 544.001l-48.001 -2.00293c-40 -1.33301 -67 -7.16602 -81 -17.499
s-21 -24.5 -21 -42.5c0 -17.333 4.83301 -29.666 14.5 -36.999s22.834 -11 39.501 -11c34 0 58.5 7.83301 73.5 23.5s22.5 36.834 22.5 63.501v23z" />
    <glyph glyph-name="guillemotleft" unicode="&#xab;" horiz-adv-x="509" 
d="M40 270l168 201l63 -36l-140 -171l140 -171l-63 -37l-168 201v13zM238 270l170 201l62 -36l-140 -171l140 -171l-62 -37l-170 201v13z" />
    <glyph glyph-name="logicalnot" unicode="&#xac;" horiz-adv-x="572" 
d="M520 388v-260h-71v189h-399v71h470z" />
    <glyph glyph-name="uni00AD" unicode="&#xad;" horiz-adv-x="322" 
d="M40 229v78h242v-78h-242z" />
    <glyph glyph-name="registered" unicode="&#xae;" horiz-adv-x="832" 
d="M416 -10c-53.333 0 -102.333 9 -147 27s-83.5 43.5 -116.5 76.5s-58.5 71.833 -76.5 116.5s-27 93.667 -27 147s9 102.333 27 147s43.5 83.5 76.5 116.5s71.833 58.5 116.5 76.5s93.667 27 147 27c50.667 0 98.167 -9 142.5 -27s83.333 -43.5 117 -76.5
s60 -71.833 79 -116.5s28.5 -93.667 28.5 -147s-9 -102.333 -27 -147s-43.5 -83.5 -76.5 -116.5s-71.833 -58.5 -116.5 -76.5s-93.667 -27 -147 -27zM416 43c42.667 0 82.668 7.66797 120.001 23.001s70.333 37.166 99 65.499s51 61.5 67 99.5s24 80 24 126
c0 43.333 -7.66699 84 -23 122s-36.833 71.333 -64.5 100s-60.334 51.167 -98.001 67.5s-79.167 24.5 -124.5 24.5c-60 0 -113.5 -13.5 -160.5 -40.5s-83.833 -64.167 -110.5 -111.5s-40 -101.333 -40 -162c0 -43.333 7.66699 -84 23 -122s36.833 -71.333 64.5 -100
s60.5 -51.167 98.5 -67.5s79.667 -24.5 125 -24.5zM279.001 138.001v437h128c54.667 0 94.667 -10.833 120 -32.5s38 -53.834 38 -96.501c0 -31.333 -8 -56.166 -24 -74.499s-34 -31.5 -54 -39.5l116 -194h-86l-100 173h-62v-173h-76zM355.001 373.001h49.999
c26 0 46.333 6.5 61 19.5s22 30.167 22 51.5c0 23.333 -6.66699 40.333 -20 51s-34.666 16 -63.999 16h-49v-138z" />
    <glyph glyph-name="overscore" unicode="&#xaf;" horiz-adv-x="500" 
d="M503 760h-506v66h506v-66z" />
    <glyph glyph-name="degree" unicode="&#xb0;" horiz-adv-x="428" 
d="M214 417c-48 0 -86.499 14.167 -115.499 42.5s-43.5 65.166 -43.5 110.499s14.167 82.333 42.5 111s67.166 43 116.499 43c46.667 0 84.834 -14.333 114.501 -43s44.5 -65.667 44.5 -111s-14.833 -82.166 -44.5 -110.499s-67.834 -42.5 -114.501 -42.5zM215.001 476
c32 0 55.501 8.66699 70.501 26s22.5 40 22.5 68c0 29.333 -7.83301 52.666 -23.5 69.999s-38.834 26 -69.501 26c-32.667 0 -56.667 -8.66699 -72 -26s-23 -40.666 -23 -69.999c0 -28 7.66699 -50.667 23 -68s39.333 -26 72 -26z" />
    <glyph glyph-name="plusminus" unicode="&#xb1;" horiz-adv-x="572" 
d="M321 391h199v-71h-199v-206h-72v206h-199v71h199v207h72v-207zM50 0v71h471v-71h-471z" />
    <glyph glyph-name="uni00B2" unicode="&#xb2;" horiz-adv-x="350" 
d="M306 416h-282.001v54l115 112c27.333 26 47.833 47.167 61.5 63.5s23 30.833 28 43.5s7.5 26.667 7.5 42c0 20.667 -6.16699 36.5 -18.5 47.5s-28.5 16.5 -48.5 16.5s-38.167 -3.83301 -54.5 -11.5s-33.166 -18.167 -50.499 -31.5l-35 46c19.333 16.667 40.5 30 63.5 40
s48.833 15 77.5 15c42.667 0 76.167 -10.5 100.5 -31.5s36.5 -49.833 36.5 -86.5c0 -32.667 -9.83301 -62 -29.5 -88s-48.167 -56.667 -85.5 -92l-81 -77h195v-62z" />
    <glyph glyph-name="uni00B3" unicode="&#xb3;" horiz-adv-x="350" 
d="M165 853c47.333 0 83 -10.333 107 -31s36 -47 36 -79c0 -27.333 -7.16699 -49.5 -21.5 -66.5s-31.5 -28.833 -51.5 -35.5v-3c26 -5.33301 46.833 -16.333 62.5 -33s23.5 -38.667 23.5 -66c0 -38.667 -14.167 -70.167 -42.5 -94.5s-71.833 -36.5 -130.5 -36.5
c-24.667 0 -47.667 2.16699 -69 6.5s-42 11.5 -62 21.5v63c46.667 -22.667 90.667 -34 132 -34c34.667 0 60 6.83301 76 20.5s24 32.167 24 55.5c0 24 -9.66699 41.5 -29 52.5s-46.333 16.5 -81 16.5h-57v55h57c33.333 0 57.833 6.5 73.5 19.5s23.5 29.833 23.5 50.5
s-6.83301 36 -20.5 46s-30.167 15 -49.5 15c-20.667 0 -39.834 -3.5 -57.501 -10.5s-35.5 -16.167 -53.5 -27.5l-36 46c20.667 14.667 42.334 26.5 65.001 35.5s49.667 13.5 81 13.5z" />
    <glyph glyph-name="acute" unicode="&#xb4;" horiz-adv-x="281" 
d="M241 766l0.000976562 -10c-8.66699 -12 -21.167 -27.5 -37.5 -46.5s-34 -38 -53 -57s-36.5 -34.5 -52.5 -46.5h-58v12c9.33301 12 20 26.833 32 44.5l35 54c11.333 18.333 20.666 34.833 27.999 49.5h106z" />
    <glyph glyph-name="uni00B5" unicode="&#xb5;" horiz-adv-x="623" 
d="M538 536l-0.00195312 -535.999h-71l-14 72h-5c-17.333 -26.667 -39.166 -47 -65.499 -61s-58.166 -21 -95.499 -21c-26 0 -48.333 4.16699 -67 12.5s-34.667 19.166 -48 32.499h-4c1.33301 -12 2.5 -28.167 3.5 -48.5s1.5 -43.833 1.5 -70.5v-156h-88v776h88v-346
c0 -84.667 40 -127 120 -127c59.333 0 100.333 16.667 123 50s34 81.333 34 144v279h88z" />
    <glyph glyph-name="paragraph" unicode="&#xb6;" horiz-adv-x="655" 
d="M549 -127l-57.998 -0.000976562v831h-102v-831h-58v400c-10 -3.33301 -21.5 -5.66602 -34.5 -6.99902s-25.167 -2 -36.5 -2c-41.333 0 -77.333 7.66699 -108 23s-54.5 41 -71.5 77s-25.5 84.333 -25.5 145c0 63.333 9.16699 113.333 27.5 150s44.166 62.667 77.499 78
s71.666 23 114.999 23h274v-887z" />
    <glyph glyph-name="periodcentered" unicode="&#xb7;" horiz-adv-x="268" 
d="M72 353c0 24.667 6 42 18 52s26.333 15 43 15s31.334 -5 44.001 -15s19 -27.333 19 -52c0 -24 -6.33301 -41.333 -19 -52s-27.334 -16 -44.001 -16s-31 5.33301 -43 16s-18 28 -18 52z" />
    <glyph glyph-name="cedilla" unicode="&#xb8;" horiz-adv-x="225" 
d="M212 -139c0 -32 -12.333 -56.835 -37 -74.502s-61.667 -26.5 -111 -26.5c-21.333 0 -38 1.66699 -50 5v55c6 -1.33301 14 -2.5 24 -3.5s19.667 -1.5 29 -1.5c24 0 42.333 3.16699 55 9.5s19 17.833 19 34.5c0 17.333 -8.83301 30 -26.5 38s-39.167 13.667 -64.5 17l43 86
h58l-26 -53c24 -5.33301 44.5 -14.666 61.5 -27.999s25.5 -32.666 25.5 -57.999z" />
    <glyph glyph-name="uni00B9" unicode="&#xb9;" horiz-adv-x="350" 
d="M240 844v-428h-71v276c0 17.333 0.5 33 1.5 47s1.83301 28 2.5 42l-22 -19.5c-8 -7 -16.333 -13.5 -25 -19.5l-54 -39l-35 49l130 92h73z" />
    <glyph glyph-name="ordmasculine" unicode="&#xba;" horiz-adv-x="376" 
d="M345 553c0 -54 -14.332 -95.833 -42.999 -125.5s-67 -44.5 -115 -44.5c-44.667 0 -81.667 14.5 -111 43.5s-44 71.167 -44 126.5c0 54.667 14 96.5 42 125.5s66.333 43.5 115 43.5c47.333 0 85.166 -14.333 113.499 -43s42.5 -70.667 42.5 -126zM95.001 553
c0 -39.333 7.16895 -68.666 21.502 -87.999s38.166 -29 71.499 -29c32.667 0 56.334 9.66699 71.001 29s22 48.666 22 87.999s-7.33301 68.5 -22 87.5s-38.334 28.5 -71.001 28.5s-56.334 -9.5 -71.001 -28.5s-22 -48.167 -22 -87.5z" />
    <glyph glyph-name="guillemotright" unicode="&#xbb;" horiz-adv-x="509" 
d="M469 257l-170 -201l-62 37l140 171l-140 171l62 36l170 -201v-13zM270 257l-169 -201l-62 37l140 171l-140 171l62 36l169 -201v-13z" />
    <glyph glyph-name="onequarter" unicode="&#xbc;" horiz-adv-x="745" 
d="M126 0l436 714h75l-436 -714h-75zM166 286v276c0 17.333 0.333008 33 1 47s1.66699 28 3 42l-22 -19.5c-8 -7 -16.333 -13.5 -25 -19.5l-54 -39l-35 49l130 92h73v-428h-71zM600 0v96h-195v52l197 283h73v-275h61v-60h-61v-96h-75zM475 156l124.999 -0.000976562v93
c0 14 0.333008 30.333 1 49s1.33398 36 2.00098 52c-3.33301 -7.33301 -10.333 -19.166 -21 -35.499l-27 -41.5z" />
    <glyph glyph-name="onehalf" unicode="&#xbd;" horiz-adv-x="771" 
d="M96 0l436 714h75l-436 -714h-75zM154 286v276c0 17.333 0.333008 33 1 47s1.66699 28 3 42l-22 -19.5c-8 -7 -16.333 -13.5 -25 -19.5l-54 -39l-35 49l130 92h73v-428h-71zM445 0l0.000976562 54l115 112c26.667 26 47 47.167 61 63.5s23.5 30.833 28.5 43.5
s7.5 26.667 7.5 42c0 20.667 -6.16699 36.5 -18.5 47.5s-28.5 16.5 -48.5 16.5s-38.333 -3.83301 -55 -11.5s-33.334 -18.167 -50.001 -31.5l-35 46c19.333 16.667 40.5 30 63.5 40s48.833 15 77.5 15c42.667 0 76.167 -10.5 100.5 -31.5s36.5 -49.833 36.5 -86.5
c0 -32.667 -10 -62 -30 -88s-48.333 -56.667 -85 -92l-81 -77h195v-62h-282z" />
    <glyph glyph-name="threequarters" unicode="&#xbe;" horiz-adv-x="781" 
d="M146 278c-24.667 0 -47.667 2.16699 -69 6.5s-42 11.5 -62 21.5v63c46.667 -22.667 90.667 -34 132 -34c34.667 0 60 6.83301 76 20.5s24 32.167 24 55.5c0 24 -9.66699 41.5 -29 52.5s-46.333 16.5 -81 16.5h-57v55h57c33.333 0 57.833 6.5 73.5 19.5
s23.5 29.833 23.5 50.5s-6.83301 36 -20.5 46s-30.167 15 -49.5 15c-20.667 0 -39.834 -3.5 -57.501 -10.5s-35.5 -16.167 -53.5 -27.5l-36 46c20.667 14.667 42.334 26.5 65.001 35.5s49.667 13.5 81 13.5c47.333 0 83 -10.333 107 -31s36 -47 36 -79
c0 -27.333 -7.16699 -49.5 -21.5 -66.5s-31.5 -28.833 -51.5 -35.5v-3c26 -5.33301 46.833 -16.333 62.5 -33s23.5 -38.667 23.5 -66c0 -38.667 -14.167 -70.167 -42.5 -94.5s-71.833 -36.5 -130.5 -36.5zM170 0l436 714h75l-436 -714h-75zM636 0v96h-195v52l197 283h73
v-275h61v-60h-61v-96h-75zM511 156l124.999 -0.000976562v93c0 14 0.333008 30.333 1 49s1.33398 36 2.00098 52c-3.33301 -7.33301 -10.333 -19.166 -21 -35.499l-27 -41.5z" />
    <glyph glyph-name="questiondown" unicode="&#xbf;" horiz-adv-x="434" 
d="M292 331l-0.000976562 -27.001c0 -25.333 -2.5 -47.166 -7.5 -65.499s-13.667 -35.666 -26 -51.999s-29.166 -33.833 -50.499 -52.5c-25.333 -21.333 -45.333 -39.5 -60 -54.5s-25 -29.5 -31 -43.5s-9 -31 -9 -51c0 -32 10.333 -56.667 31 -74s50.667 -26 90 -26
c32.667 0 61.667 4.16699 87 12.5s49.666 18.166 72.999 29.499l31 -70c-26.667 -14 -56.167 -25.667 -88.5 -35s-68.5 -14 -108.5 -14c-63.333 0 -112.333 15.667 -147 47s-52 74 -52 128c0 30 4.83301 55.5 14.5 76.5s23.334 40.333 41.001 58s38.5 36.5 62.5 56.5
c22.667 18.667 39.667 35 51 49s19 28 23 42s6 30.333 6 49v17h70zM314.999 477.999c0 -24.667 -5.83301 -42 -17.5 -52s-26.5 -15 -44.5 -15c-16.667 0 -31 5 -43 15s-18 27.333 -18 52c0 24 6 41.333 18 52s26.333 16 43 16c18 0 32.833 -5.33301 44.5 -16
s17.5 -28 17.5 -52z" />
    <glyph glyph-name="Agrave" unicode="&#xc0;" horiz-adv-x="639" 
d="M545 0l-86 221h-283l-85 -221h-91l279 717h81l278 -717h-93zM432 301l-80 216.001c-2 5.33301 -5.33301 15 -10 29s-9.16699 28.5 -13.5 43.5s-7.83301 26.5 -10.5 34.5c-5.33301 -20.667 -10.833 -40.834 -16.5 -60.501s-10.5 -35.167 -14.5 -46.5l-81 -216h226z
M292 944.001c7.33301 -14.667 16.498 -31.167 27.498 -49.5s22.667 -36.333 35 -54s23.5 -32.5 33.5 -44.5v-12h-59c-15.333 12 -32.666 27.5 -51.999 46.5s-37.166 38 -53.499 57s-28.5 34.5 -36.5 46.5v10h105z" />
    <glyph glyph-name="Aacute" unicode="&#xc1;" horiz-adv-x="639" 
d="M545 0l-86 221h-283l-85 -221h-91l279 717h81l278 -717h-93zM432 301l-80 216.001c-2 5.33301 -5.33301 15 -10 29s-9.16699 28.5 -13.5 43.5s-7.83301 26.5 -10.5 34.5c-5.33301 -20.667 -10.833 -40.834 -16.5 -60.501s-10.5 -35.167 -14.5 -46.5l-81 -216h226z
M459 944.001l0.000976562 -10c-8.66699 -12 -21.167 -27.5 -37.5 -46.5s-34 -38 -53 -57s-36.5 -34.5 -52.5 -46.5h-58v12c9.33301 12 20 26.833 32 44.5l35 54c11.333 18.333 20.666 34.833 27.999 49.5h106z" />
    <glyph glyph-name="Acircumflex" unicode="&#xc2;" horiz-adv-x="639" 
d="M545 0l-86 221h-283l-85 -221h-91l279 717h81l278 -717h-93zM432 301l-80 216.001c-2 5.33301 -5.33301 15 -10 29s-9.16699 28.5 -13.5 43.5s-7.83301 26.5 -10.5 34.5c-5.33301 -20.667 -10.833 -40.834 -16.5 -60.501s-10.5 -35.167 -14.5 -46.5l-81 -216h226z
M364 944.001c8 -14.667 19.499 -31.167 34.499 -49.5s30.667 -36.333 47 -54l43.5 -45.5v-11h-62c-17.333 10.667 -35.333 23.834 -54 39.501s-37 32.5 -55 50.5c-18 -18 -36 -34.833 -54 -50.5s-35.667 -28.834 -53 -39.501h-60v11l42 45.5c16 17.667 31.333 35.667 46 54
s26.334 34.833 35.001 49.5h90z" />
    <glyph glyph-name="Atilde" unicode="&#xc3;" horiz-adv-x="639" 
d="M545 0l-86 221h-283l-85 -221h-91l279 717h81l278 -717h-93zM432 301l-80 216.001c-2 5.33301 -5.33301 15 -10 29s-9.16699 28.5 -13.5 43.5s-7.83301 26.5 -10.5 34.5c-5.33301 -20.667 -10.833 -40.834 -16.5 -60.501s-10.5 -35.167 -14.5 -46.5l-81 -216h226z
M134 784.001c4 39.333 15.502 70.5 34.502 93.5s44.167 34.5 75.5 34.5c20 0 38.833 -4.83301 56.5 -14.5l50.5 -28.5c16 -9.33301 31 -14 45 -14c15.333 0 27.166 4.83301 35.499 14.5s14.833 24.167 19.5 43.5h50c-4 -39.333 -15.333 -70.5 -34 -93.5
s-43.667 -34.5 -75 -34.5c-18.667 0 -36.834 4.66699 -54.501 14s-34.667 18.833 -51 28.5s-31.833 14.5 -46.5 14.5c-16 0 -28 -4.83301 -36 -14.5s-14.333 -24.167 -19 -43.5h-51z" />
    <glyph glyph-name="Adieresis" unicode="&#xc4;" horiz-adv-x="639" 
d="M545 0l-86 221h-283l-85 -221h-91l279 717h81l278 -717h-93zM432 301l-80 216.001c-2 5.33301 -5.33301 15 -10 29s-9.16699 28.5 -13.5 43.5s-7.83301 26.5 -10.5 34.5c-5.33301 -20.667 -10.833 -40.834 -16.5 -60.501s-10.5 -35.167 -14.5 -46.5l-81 -216h226z
M177 859.001c0 17.333 4.5 29.833 13.5 37.5s20.167 11.5 33.5 11.5c12.667 0 23.667 -3.83301 33 -11.5s14 -20.167 14 -37.5c0 -16.667 -4.66699 -29.167 -14 -37.5s-20.333 -12.5 -33 -12.5c-13.333 0 -24.5 4.16699 -33.5 12.5s-13.5 20.833 -13.5 37.5zM365 859.001
c0 17.333 4.5 29.833 13.5 37.5s19.833 11.5 32.5 11.5s23.667 -3.83301 33 -11.5s14 -20.167 14 -37.5c0 -16.667 -4.66699 -29.167 -14 -37.5s-20.333 -12.5 -33 -12.5s-23.5 4.16699 -32.5 12.5s-13.5 20.833 -13.5 37.5z" />
    <glyph glyph-name="Aring" unicode="&#xc5;" horiz-adv-x="639" 
d="M545 0l-86 221h-283l-85 -221h-91l279 717h81l278 -717h-93zM432 301l-80 216.001c-2 5.33301 -5.33301 15 -10 29s-9.16699 28.5 -13.5 43.5s-7.83301 26.5 -10.5 34.5c-5.33301 -20.667 -10.833 -40.834 -16.5 -60.501s-10.5 -35.167 -14.5 -46.5l-81 -216h226z
M317 667.001c-32.667 0 -58.999 9.33398 -78.999 28.001s-30 44.667 -30 78s10 59.166 30 77.499s46.333 27.5 79 27.5c31.333 0 57.666 -9.16699 78.999 -27.5s32 -43.833 32 -76.5c0 -34 -10.5 -60.333 -31.5 -79s-47.5 -28 -79.5 -28zM317.001 717.002
c16.667 0 30.167 5 40.5 15s15.5 23.667 15.5 41s-5.33301 31 -16 41s-24 15 -40 15s-29.333 -5 -40 -15s-16 -23.667 -16 -41s4.83301 -31 14.5 -41s23.5 -15 41.5 -15z" />
    <glyph glyph-name="AE" unicode="&#xc6;" horiz-adv-x="881" 
d="M821 0h-372v221h-250l-107 -221h-93l339 714h483v-79h-282v-223h263v-78h-263v-255h282v-79zM234 301h215v333h-58z" />
    <glyph glyph-name="Ccedilla" unicode="&#xc7;" horiz-adv-x="632" 
d="M403 645c-76.667 0 -136.998 -25.667 -180.998 -77s-66 -121.666 -66 -210.999c0 -88.667 20.5 -158.834 61.5 -210.501s102.5 -77.5 184.5 -77.5c30.667 0 60 2.66699 88 8s55.667 12 83 20v-78c-26.667 -10 -54.167 -17.333 -82.5 -22s-62.166 -7 -101.499 -7
c-72.667 0 -133.334 15 -182.001 45s-85.167 72.667 -109.5 128s-36.5 120.333 -36.5 195c0 72 13.167 135.5 39.5 190.5s65.166 98 116.499 129s113.666 46.5 186.999 46.5c75.333 0 141 -14 197 -42l-36 -76c-22 10 -46.5 19 -73.5 27s-56.5 12 -88.5 12zM473.002 -139
c0 -32 -12.333 -56.835 -37 -74.502s-61.667 -26.5 -111 -26.5c-21.333 0 -38 1.66699 -50 5v55c6 -1.33301 14 -2.5 24 -3.5s19.667 -1.5 29 -1.5c24 0 42.333 3.16699 55 9.5s19 17.833 19 34.5c0 17.333 -8.83301 30 -26.5 38s-39.167 13.667 -64.5 17l43 86h58l-26 -53
c24 -5.33301 44.5 -14.666 61.5 -27.999s25.5 -32.666 25.5 -57.999z" />
    <glyph glyph-name="Egrave" unicode="&#xc8;" horiz-adv-x="556" 
d="M496 0h-399v714h399v-79h-309v-223h291v-78h-291v-255h309v-79zM279 944c7.33301 -14.667 16.498 -31.167 27.498 -49.5s22.667 -36.333 35 -54s23.5 -32.5 33.5 -44.5v-12h-59c-15.333 12 -32.666 27.5 -51.999 46.5s-37.166 38 -53.499 57s-28.5 34.5 -36.5 46.5v10
h105z" />
    <glyph glyph-name="Eacute" unicode="&#xc9;" horiz-adv-x="556" 
d="M496 0h-399v714h399v-79h-309v-223h291v-78h-291v-255h309v-79zM446 944l0.000976562 -10c-8.66699 -12 -21.167 -27.5 -37.5 -46.5s-34 -38 -53 -57s-36.5 -34.5 -52.5 -46.5h-58v12c9.33301 12 20 26.833 32 44.5l35 54c11.333 18.333 20.666 34.833 27.999 49.5h106z
" />
    <glyph glyph-name="Ecircumflex" unicode="&#xca;" horiz-adv-x="556" 
d="M496 0h-399v714h399v-79h-309v-223h291v-78h-291v-255h309v-79zM351 944c8 -14.667 19.499 -31.167 34.499 -49.5s30.667 -36.333 47 -54l43.5 -45.5v-11h-62c-17.333 10.667 -35.333 23.834 -54 39.501s-37 32.5 -55 50.5c-18 -18 -36 -34.833 -54 -50.5
s-35.667 -28.834 -53 -39.501h-60v11l42 45.5c16 17.667 31.333 35.667 46 54s26.334 34.833 35.001 49.5h90z" />
    <glyph glyph-name="Edieresis" unicode="&#xcb;" horiz-adv-x="556" 
d="M496 0h-399v714h399v-79h-309v-223h291v-78h-291v-255h309v-79zM164 859c0 17.333 4.5 29.833 13.5 37.5s20.167 11.5 33.5 11.5c12.667 0 23.667 -3.83301 33 -11.5s14 -20.167 14 -37.5c0 -16.667 -4.66699 -29.167 -14 -37.5s-20.333 -12.5 -33 -12.5
c-13.333 0 -24.5 4.16699 -33.5 12.5s-13.5 20.833 -13.5 37.5zM352 859c0 17.333 4.5 29.833 13.5 37.5s19.833 11.5 32.5 11.5s23.667 -3.83301 33 -11.5s14 -20.167 14 -37.5c0 -16.667 -4.66699 -29.167 -14 -37.5s-20.333 -12.5 -33 -12.5s-23.5 4.16699 -32.5 12.5
s-13.5 20.833 -13.5 37.5z" />
    <glyph glyph-name="Igrave" unicode="&#xcc;" horiz-adv-x="339" 
d="M298 0h-258v52l84 19v571l-84 20v52h258v-52l-84 -20v-571l84 -19v-52zM144 944c7.33301 -14.667 16.498 -31.167 27.498 -49.5s22.667 -36.333 35 -54s23.5 -32.5 33.5 -44.5v-12h-59c-15.333 12 -32.666 27.5 -51.999 46.5s-37.166 38 -53.499 57
s-28.5 34.5 -36.5 46.5v10h105z" />
    <glyph glyph-name="Iacute" unicode="&#xcd;" horiz-adv-x="339" 
d="M298 0h-258v52l84 19v571l-84 20v52h258v-52l-84 -20v-571l84 -19v-52zM311 944l0.000976562 -10c-8.66699 -12 -21.167 -27.5 -37.5 -46.5s-34 -38 -53 -57s-36.5 -34.5 -52.5 -46.5h-58v12c9.33301 12 20 26.833 32 44.5l35 54
c11.333 18.333 20.666 34.833 27.999 49.5h106z" />
    <glyph glyph-name="Icircumflex" unicode="&#xce;" horiz-adv-x="339" 
d="M298 0h-258v52l84 19v571l-84 20v52h258v-52l-84 -20v-571l84 -19v-52zM216 944c8 -14.667 19.499 -31.167 34.499 -49.5s30.667 -36.333 47 -54l43.5 -45.5v-11h-62c-17.333 10.667 -35.333 23.834 -54 39.501s-37 32.5 -55 50.5c-18 -18 -36 -34.833 -54 -50.5
s-35.667 -28.834 -53 -39.501h-60v11l42 45.5c16 17.667 31.333 35.667 46 54s26.334 34.833 35.001 49.5h90z" />
    <glyph glyph-name="Idieresis" unicode="&#xcf;" horiz-adv-x="339" 
d="M298 0h-258v52l84 19v571l-84 20v52h258v-52l-84 -20v-571l84 -19v-52zM29 859c0 17.333 4.5 29.833 13.5 37.5s20.167 11.5 33.5 11.5c12.667 0 23.667 -3.83301 33 -11.5s14 -20.167 14 -37.5c0 -16.667 -4.66699 -29.167 -14 -37.5s-20.333 -12.5 -33 -12.5
c-13.333 0 -24.5 4.16699 -33.5 12.5s-13.5 20.833 -13.5 37.5zM217 859c0 17.333 4.5 29.833 13.5 37.5s19.833 11.5 32.5 11.5s23.667 -3.83301 33 -11.5s14 -20.167 14 -37.5c0 -16.667 -4.66699 -29.167 -14 -37.5s-20.333 -12.5 -33 -12.5s-23.5 4.16699 -32.5 12.5
s-13.5 20.833 -13.5 37.5z" />
    <glyph glyph-name="Eth" unicode="&#xd0;" horiz-adv-x="730" 
d="M317 714c71.333 0 133.333 -13.333 186 -40s93.5 -66 122.5 -118s43.5 -116 43.5 -192c0 -120.667 -32.833 -211.5 -98.5 -272.5s-157.5 -91.5 -275.5 -91.5h-191v314h-74v78h74v322h213zM304 637l-110.001 0.000976562v-245h178v-78h-178v-237h90
c193.333 0 290 94.667 290 284c0 95.333 -23.667 165.166 -71 209.499s-113.666 66.5 -198.999 66.5z" />
    <glyph glyph-name="Ntilde" unicode="&#xd1;" horiz-adv-x="760" 
d="M663 0l-105 0.000976562l-382 593h-4l5 -87c2 -34.667 3 -70.334 3 -107.001v-399h-83v714h104l381 -591h4c-0.666992 10.667 -1.5 26.667 -2.5 48s-2 44.5 -3 69.5s-1.5 48.5 -1.5 70.5v403h84v-714zM196 784.001c4 39.333 15.502 70.5 34.502 93.5
s44.167 34.5 75.5 34.5c20 0 38.833 -4.83301 56.5 -14.5l50.5 -28.5c16 -9.33301 31 -14 45 -14c15.333 0 27.166 4.83301 35.499 14.5s14.833 24.167 19.5 43.5h50c-4 -39.333 -15.333 -70.5 -34 -93.5s-43.667 -34.5 -75 -34.5c-18.667 0 -36.834 4.66699 -54.501 14
s-34.667 18.833 -51 28.5s-31.833 14.5 -46.5 14.5c-16 0 -28 -4.83301 -36 -14.5s-14.333 -24.167 -19 -43.5h-51z" />
    <glyph glyph-name="Ograve" unicode="&#xd2;" horiz-adv-x="781" 
d="M720 358c0 -74 -12.5 -138.5 -37.5 -193.5s-62 -97.833 -111 -128.5s-109.167 -46 -180.5 -46c-74 0 -135.5 15.333 -184.5 46s-85.5 73.667 -109.5 129s-36 120 -36 194c0 72.667 12 136.5 36 191.5s60.5 97.833 109.5 128.5s110.833 46 185.5 46
c71.333 0 131.333 -15.167 180 -45.5s85.5 -73 110.5 -128s37.5 -119.5 37.5 -193.5zM156 358c0 -90 18.999 -160.833 56.999 -212.5s97.333 -77.5 178 -77.5s139.834 25.833 177.501 77.5s56.5 122.5 56.5 212.5s-18.667 160.5 -56 211.5s-96.333 76.5 -177 76.5
c-81.333 0 -141 -25.5 -179 -76.5s-57 -121.5 -57 -211.5zM364.999 944c7.33301 -14.667 16.498 -31.167 27.498 -49.5s22.667 -36.333 35 -54s23.5 -32.5 33.5 -44.5v-12h-59c-15.333 12 -32.666 27.5 -51.999 46.5s-37.166 38 -53.499 57s-28.5 34.5 -36.5 46.5v10h105z
" />
    <glyph glyph-name="Oacute" unicode="&#xd3;" horiz-adv-x="781" 
d="M720 358c0 -74 -12.5 -138.5 -37.5 -193.5s-62 -97.833 -111 -128.5s-109.167 -46 -180.5 -46c-74 0 -135.5 15.333 -184.5 46s-85.5 73.667 -109.5 129s-36 120 -36 194c0 72.667 12 136.5 36 191.5s60.5 97.833 109.5 128.5s110.833 46 185.5 46
c71.333 0 131.333 -15.167 180 -45.5s85.5 -73 110.5 -128s37.5 -119.5 37.5 -193.5zM156 358c0 -90 18.999 -160.833 56.999 -212.5s97.333 -77.5 178 -77.5s139.834 25.833 177.501 77.5s56.5 122.5 56.5 212.5s-18.667 160.5 -56 211.5s-96.333 76.5 -177 76.5
c-81.333 0 -141 -25.5 -179 -76.5s-57 -121.5 -57 -211.5zM531.999 944l0.000976562 -10c-8.66699 -12 -21.167 -27.5 -37.5 -46.5s-34 -38 -53 -57s-36.5 -34.5 -52.5 -46.5h-58v12c9.33301 12 20 26.833 32 44.5l35 54c11.333 18.333 20.666 34.833 27.999 49.5h106z" />
    <glyph glyph-name="Ocircumflex" unicode="&#xd4;" horiz-adv-x="781" 
d="M720 358c0 -74 -12.5 -138.5 -37.5 -193.5s-62 -97.833 -111 -128.5s-109.167 -46 -180.5 -46c-74 0 -135.5 15.333 -184.5 46s-85.5 73.667 -109.5 129s-36 120 -36 194c0 72.667 12 136.5 36 191.5s60.5 97.833 109.5 128.5s110.833 46 185.5 46
c71.333 0 131.333 -15.167 180 -45.5s85.5 -73 110.5 -128s37.5 -119.5 37.5 -193.5zM156 358c0 -90 18.999 -160.833 56.999 -212.5s97.333 -77.5 178 -77.5s139.834 25.833 177.501 77.5s56.5 122.5 56.5 212.5s-18.667 160.5 -56 211.5s-96.333 76.5 -177 76.5
c-81.333 0 -141 -25.5 -179 -76.5s-57 -121.5 -57 -211.5zM436.999 944c8 -14.667 19.499 -31.167 34.499 -49.5s30.667 -36.333 47 -54l43.5 -45.5v-11h-62c-17.333 10.667 -35.333 23.834 -54 39.501s-37 32.5 -55 50.5c-18 -18 -36 -34.833 -54 -50.5
s-35.667 -28.834 -53 -39.501h-60v11l42 45.5c16 17.667 31.333 35.667 46 54s26.334 34.833 35.001 49.5h90z" />
    <glyph glyph-name="Otilde" unicode="&#xd5;" horiz-adv-x="781" 
d="M720 358c0 -74 -12.5 -138.5 -37.5 -193.5s-62 -97.833 -111 -128.5s-109.167 -46 -180.5 -46c-74 0 -135.5 15.333 -184.5 46s-85.5 73.667 -109.5 129s-36 120 -36 194c0 72.667 12 136.5 36 191.5s60.5 97.833 109.5 128.5s110.833 46 185.5 46
c71.333 0 131.333 -15.167 180 -45.5s85.5 -73 110.5 -128s37.5 -119.5 37.5 -193.5zM156 358c0 -90 18.999 -160.833 56.999 -212.5s97.333 -77.5 178 -77.5s139.834 25.833 177.501 77.5s56.5 122.5 56.5 212.5s-18.667 160.5 -56 211.5s-96.333 76.5 -177 76.5
c-81.333 0 -141 -25.5 -179 -76.5s-57 -121.5 -57 -211.5zM206.999 784c4 39.333 15.502 70.5 34.502 93.5s44.167 34.5 75.5 34.5c20 0 38.833 -4.83301 56.5 -14.5l50.5 -28.5c16 -9.33301 31 -14 45 -14c15.333 0 27.166 4.83301 35.499 14.5s14.833 24.167 19.5 43.5h50
c-4 -39.333 -15.333 -70.5 -34 -93.5s-43.667 -34.5 -75 -34.5c-18.667 0 -36.834 4.66699 -54.501 14s-34.667 18.833 -51 28.5s-31.833 14.5 -46.5 14.5c-16 0 -28 -4.83301 -36 -14.5s-14.333 -24.167 -19 -43.5h-51z" />
    <glyph glyph-name="Odieresis" unicode="&#xd6;" horiz-adv-x="781" 
d="M720 358c0 -74 -12.5 -138.5 -37.5 -193.5s-62 -97.833 -111 -128.5s-109.167 -46 -180.5 -46c-74 0 -135.5 15.333 -184.5 46s-85.5 73.667 -109.5 129s-36 120 -36 194c0 72.667 12 136.5 36 191.5s60.5 97.833 109.5 128.5s110.833 46 185.5 46
c71.333 0 131.333 -15.167 180 -45.5s85.5 -73 110.5 -128s37.5 -119.5 37.5 -193.5zM156 358c0 -90 18.999 -160.833 56.999 -212.5s97.333 -77.5 178 -77.5s139.834 25.833 177.501 77.5s56.5 122.5 56.5 212.5s-18.667 160.5 -56 211.5s-96.333 76.5 -177 76.5
c-81.333 0 -141 -25.5 -179 -76.5s-57 -121.5 -57 -211.5zM249.999 859c0 17.333 4.5 29.833 13.5 37.5s20.167 11.5 33.5 11.5c12.667 0 23.667 -3.83301 33 -11.5s14 -20.167 14 -37.5c0 -16.667 -4.66699 -29.167 -14 -37.5s-20.333 -12.5 -33 -12.5
c-13.333 0 -24.5 4.16699 -33.5 12.5s-13.5 20.833 -13.5 37.5zM437.999 859c0 17.333 4.5 29.833 13.5 37.5s19.833 11.5 32.5 11.5s23.667 -3.83301 33 -11.5s14 -20.167 14 -37.5c0 -16.667 -4.66699 -29.167 -14 -37.5s-20.333 -12.5 -33 -12.5
s-23.5 4.16699 -32.5 12.5s-13.5 20.833 -13.5 37.5z" />
    <glyph glyph-name="multiply" unicode="&#xd7;" horiz-adv-x="572" 
d="M456 574l50 -51l-170 -170l169 -170l-50 -51l-171 169l-167 -169l-52 51l169 170l-170 169l52 52l169 -171z" />
    <glyph glyph-name="Oslash" unicode="&#xd8;" horiz-adv-x="781" 
d="M720 358c0 -74 -12.501 -138.501 -37.501 -193.501s-62 -97.833 -111 -128.5s-109.167 -46 -180.5 -46c-74.667 0 -136.334 15.667 -185.001 47l-48 -68l-61 40l52 74c-29.333 32.667 -51.333 72.334 -66 119.001s-22 99 -22 157c0 72.667 12 136.5 36 191.5
s60.5 97.833 109.5 128.5s110.833 46 185.5 46c34.667 0 66.834 -4 96.501 -12s56.834 -19 81.501 -33l46 66l61 -41l-51 -71c62.667 -66 94 -158 94 -276zM155.999 357.999c0 -41.333 3.83301 -78.5 11.5 -111.5s19.5 -61.833 35.5 -86.5l319 451
c-34.667 23.333 -78 35 -130 35c-81.333 0 -141 -25.5 -179 -76.5s-57 -121.5 -57 -211.5zM624.999 357.999c0 85.333 -17.001 152.667 -51.001 202l-320 -454c17.333 -12 37.5 -21.333 60.5 -28s48.5 -10 76.5 -10c80.667 0 139.834 25.833 177.501 77.5
s56.5 122.5 56.5 212.5z" />
    <glyph glyph-name="Ugrave" unicode="&#xd9;" horiz-adv-x="731" 
d="M640 714v-461.999c0 -49.333 -10 -93.833 -30 -133.5s-50.667 -71 -92 -94s-93.333 -34.5 -156 -34.5c-89.333 0 -157 24.167 -203 72.5s-69 112.166 -69 191.499v460h90v-463c0 -58 15.5 -103 46.5 -135s77.833 -48 140.5 -48c64.667 0 111.5 17.167 140.5 51.5
s43.5 78.5 43.5 132.5v462h89zM340 944.001c7.33301 -14.667 16.498 -31.167 27.498 -49.5s22.667 -36.333 35 -54s23.5 -32.5 33.5 -44.5v-12h-59c-15.333 12 -32.666 27.5 -51.999 46.5s-37.166 38 -53.499 57s-28.5 34.5 -36.5 46.5v10h105z" />
    <glyph glyph-name="Uacute" unicode="&#xda;" horiz-adv-x="731" 
d="M640 714v-461.999c0 -49.333 -10 -93.833 -30 -133.5s-50.667 -71 -92 -94s-93.333 -34.5 -156 -34.5c-89.333 0 -157 24.167 -203 72.5s-69 112.166 -69 191.499v460h90v-463c0 -58 15.5 -103 46.5 -135s77.833 -48 140.5 -48c64.667 0 111.5 17.167 140.5 51.5
s43.5 78.5 43.5 132.5v462h89zM507 944.001l0.000976562 -10c-8.66699 -12 -21.167 -27.5 -37.5 -46.5s-34 -38 -53 -57s-36.5 -34.5 -52.5 -46.5h-58v12c9.33301 12 20 26.833 32 44.5l35 54c11.333 18.333 20.666 34.833 27.999 49.5h106z" />
    <glyph glyph-name="Ucircumflex" unicode="&#xdb;" horiz-adv-x="731" 
d="M640 714v-461.999c0 -49.333 -10 -93.833 -30 -133.5s-50.667 -71 -92 -94s-93.333 -34.5 -156 -34.5c-89.333 0 -157 24.167 -203 72.5s-69 112.166 -69 191.499v460h90v-463c0 -58 15.5 -103 46.5 -135s77.833 -48 140.5 -48c64.667 0 111.5 17.167 140.5 51.5
s43.5 78.5 43.5 132.5v462h89zM412 944.001c8 -14.667 19.499 -31.167 34.499 -49.5s30.667 -36.333 47 -54l43.5 -45.5v-11h-62c-17.333 10.667 -35.333 23.834 -54 39.501s-37 32.5 -55 50.5c-18 -18 -36 -34.833 -54 -50.5s-35.667 -28.834 -53 -39.501h-60v11l42 45.5
c16 17.667 31.333 35.667 46 54s26.334 34.833 35.001 49.5h90z" />
    <glyph glyph-name="Udieresis" unicode="&#xdc;" horiz-adv-x="731" 
d="M640 714v-461.999c0 -49.333 -10 -93.833 -30 -133.5s-50.667 -71 -92 -94s-93.333 -34.5 -156 -34.5c-89.333 0 -157 24.167 -203 72.5s-69 112.166 -69 191.499v460h90v-463c0 -58 15.5 -103 46.5 -135s77.833 -48 140.5 -48c64.667 0 111.5 17.167 140.5 51.5
s43.5 78.5 43.5 132.5v462h89zM225 859.001c0 17.333 4.5 29.833 13.5 37.5s20.167 11.5 33.5 11.5c12.667 0 23.667 -3.83301 33 -11.5s14 -20.167 14 -37.5c0 -16.667 -4.66699 -29.167 -14 -37.5s-20.333 -12.5 -33 -12.5c-13.333 0 -24.5 4.16699 -33.5 12.5
s-13.5 20.833 -13.5 37.5zM413 859.001c0 17.333 4.5 29.833 13.5 37.5s19.833 11.5 32.5 11.5s23.667 -3.83301 33 -11.5s14 -20.167 14 -37.5c0 -16.667 -4.66699 -29.167 -14 -37.5s-20.333 -12.5 -33 -12.5s-23.5 4.16699 -32.5 12.5s-13.5 20.833 -13.5 37.5z" />
    <glyph glyph-name="Yacute" unicode="&#xdd;" horiz-adv-x="566" 
d="M283 363l186 351h97l-238 -437v-277h-90v273l-238 441h98zM424 944l0.000976562 -10c-8.66699 -12 -21.167 -27.5 -37.5 -46.5s-34 -38 -53 -57s-36.5 -34.5 -52.5 -46.5h-58v12c9.33301 12 20 26.833 32 44.5l35 54c11.333 18.333 20.666 34.833 27.999 49.5h106z" />
    <glyph glyph-name="Thorn" unicode="&#xde;" horiz-adv-x="605" 
d="M554 382c0 -40 -8.66602 -77.333 -25.999 -112s-46.833 -62.5 -88.5 -83.5s-98.834 -31.5 -171.501 -31.5h-81v-155h-90v714h90v-124h96c96.667 0 166 -18.333 208 -55s63 -87.667 63 -153zM187.001 231h72c70 0 121.167 11.167 153.5 33.5s48.5 59.833 48.5 112.5
c0 46 -14.5 80.167 -43.5 102.5s-76.167 33.5 -141.5 33.5h-89v-282z" />
    <glyph glyph-name="germandbls" unicode="&#xdf;" horiz-adv-x="631" 
d="M522 617c0 -22.667 -4.6709 -42.5 -14.0039 -59.5s-21 -32 -35 -45s-28 -24.833 -42 -35.5s-25.667 -21.167 -35 -31.5s-14 -21.5 -14 -33.5c0 -9.33301 2.16699 -17.5 6.5 -24.5s12.833 -15.333 25.5 -25s31.334 -22.834 56.001 -39.501c36 -24 64.333 -48.5 85 -73.5
s31 -57.167 31 -96.5c0 -56.667 -17.333 -98 -52 -124s-79.334 -39 -134.001 -39c-31.333 0 -59 3 -83 9s-44.667 14.333 -62 25v79c16.667 -10.667 37.834 -20.334 63.501 -29.001s51.834 -13 78.501 -13c36.667 0 63 7.66699 79 23s24 36.333 24 63
c0 24 -6.83301 44.167 -20.5 60.5s-38.167 36.166 -73.5 59.499c-42 27.333 -70.667 50.833 -86 70.5s-23 42.834 -23 69.501c0 20.667 4.5 38.334 13.5 53.001s20.333 27.5 34 38.5l41 32.5c13.667 10.667 25 22.334 34 35.001s13.5 28 13.5 46
c0 28 -11.833 48.333 -35.5 61s-54.167 19 -91.5 19c-23.333 0 -45.166 -3.16699 -65.499 -9.5s-36.666 -17.333 -48.999 -33s-18.5 -37.5 -18.5 -65.5v-584h-88v584c0 44.667 9.66699 80.167 29 106.5s45.666 45.333 78.999 57s71 17.5 113 17.5
c64.667 0 116.834 -12.333 156.501 -37s59.5 -61.667 59.5 -111z" />
    <glyph glyph-name="agrave" unicode="&#xe0;" horiz-adv-x="561" 
d="M288 545c65.333 0 113.666 -14.333 144.999 -43s47 -74.334 47 -137.001v-365h-64l-17 76h-4c-23.333 -29.333 -48 -51 -74 -65s-61.333 -21 -106 -21c-48.667 0 -89 12.833 -121 38.5s-48 65.834 -48 120.501c0 53.333 21 94.5 63 123.5s106.667 44.833 194 47.5l91 3
v32c0 44.667 -9.66699 75.667 -29 93s-46.666 26 -81.999 26c-28 0 -54.667 -4.16699 -80 -12.5s-49 -17.833 -71 -28.5l-27 66c23.333 12.667 51 23.5 83 32.5s65.333 13.5 100 13.5zM393 262l-78.999 -2.99902c-66.667 -2.66699 -112.834 -13.334 -138.501 -32.001
s-38.5 -45 -38.5 -79c0 -30 9.16699 -52 27.5 -66s41.833 -21 70.5 -21c44.667 0 82.167 12.5 112.5 37.5s45.5 63.5 45.5 115.5v48zM255.001 766.001c7.33301 -14.667 16.498 -31.167 27.498 -49.5s22.667 -36.333 35 -54s23.5 -32.5 33.5 -44.5v-12h-59
c-15.333 12 -32.666 27.5 -51.999 46.5s-37.166 38 -53.499 57s-28.5 34.5 -36.5 46.5v10h105z" />
    <glyph glyph-name="aacute" unicode="&#xe1;" horiz-adv-x="561" 
d="M288 545c65.333 0 113.666 -14.333 144.999 -43s47 -74.334 47 -137.001v-365h-64l-17 76h-4c-23.333 -29.333 -48 -51 -74 -65s-61.333 -21 -106 -21c-48.667 0 -89 12.833 -121 38.5s-48 65.834 -48 120.501c0 53.333 21 94.5 63 123.5s106.667 44.833 194 47.5l91 3
v32c0 44.667 -9.66699 75.667 -29 93s-46.666 26 -81.999 26c-28 0 -54.667 -4.16699 -80 -12.5s-49 -17.833 -71 -28.5l-27 66c23.333 12.667 51 23.5 83 32.5s65.333 13.5 100 13.5zM393 262l-78.999 -2.99902c-66.667 -2.66699 -112.834 -13.334 -138.501 -32.001
s-38.5 -45 -38.5 -79c0 -30 9.16699 -52 27.5 -66s41.833 -21 70.5 -21c44.667 0 82.167 12.5 112.5 37.5s45.5 63.5 45.5 115.5v48zM422.001 766.001l0.000976562 -10c-8.66699 -12 -21.167 -27.5 -37.5 -46.5s-34 -38 -53 -57s-36.5 -34.5 -52.5 -46.5h-58v12
c9.33301 12 20 26.833 32 44.5l35 54c11.333 18.333 20.666 34.833 27.999 49.5h106z" />
    <glyph glyph-name="acircumflex" unicode="&#xe2;" horiz-adv-x="561" 
d="M288 545c65.333 0 113.666 -14.333 144.999 -43s47 -74.334 47 -137.001v-365h-64l-17 76h-4c-23.333 -29.333 -48 -51 -74 -65s-61.333 -21 -106 -21c-48.667 0 -89 12.833 -121 38.5s-48 65.834 -48 120.501c0 53.333 21 94.5 63 123.5s106.667 44.833 194 47.5l91 3
v32c0 44.667 -9.66699 75.667 -29 93s-46.666 26 -81.999 26c-28 0 -54.667 -4.16699 -80 -12.5s-49 -17.833 -71 -28.5l-27 66c23.333 12.667 51 23.5 83 32.5s65.333 13.5 100 13.5zM393 262l-78.999 -2.99902c-66.667 -2.66699 -112.834 -13.334 -138.501 -32.001
s-38.5 -45 -38.5 -79c0 -30 9.16699 -52 27.5 -66s41.833 -21 70.5 -21c44.667 0 82.167 12.5 112.5 37.5s45.5 63.5 45.5 115.5v48zM327.001 766.001c8 -14.667 19.499 -31.167 34.499 -49.5s30.667 -36.333 47 -54l43.5 -45.5v-11h-62
c-17.333 10.667 -35.333 23.834 -54 39.501s-37 32.5 -55 50.5c-18 -18 -36 -34.833 -54 -50.5s-35.667 -28.834 -53 -39.501h-60v11l42 45.5c16 17.667 31.333 35.667 46 54s26.334 34.833 35.001 49.5h90z" />
    <glyph glyph-name="atilde" unicode="&#xe3;" horiz-adv-x="561" 
d="M288 545c65.333 0 113.666 -14.333 144.999 -43s47 -74.334 47 -137.001v-365h-64l-17 76h-4c-23.333 -29.333 -48 -51 -74 -65s-61.333 -21 -106 -21c-48.667 0 -89 12.833 -121 38.5s-48 65.834 -48 120.501c0 53.333 21 94.5 63 123.5s106.667 44.833 194 47.5l91 3
v32c0 44.667 -9.66699 75.667 -29 93s-46.666 26 -81.999 26c-28 0 -54.667 -4.16699 -80 -12.5s-49 -17.833 -71 -28.5l-27 66c23.333 12.667 51 23.5 83 32.5s65.333 13.5 100 13.5zM393 262l-78.999 -2.99902c-66.667 -2.66699 -112.834 -13.334 -138.501 -32.001
s-38.5 -45 -38.5 -79c0 -30 9.16699 -52 27.5 -66s41.833 -21 70.5 -21c44.667 0 82.167 12.5 112.5 37.5s45.5 63.5 45.5 115.5v48zM97.001 606.001c4 39.333 15.502 70.5 34.502 93.5s44.167 34.5 75.5 34.5c20 0 38.833 -4.83301 56.5 -14.5l50.5 -28.5
c16 -9.33301 31 -14 45 -14c15.333 0 27.166 4.83301 35.499 14.5s14.833 24.167 19.5 43.5h50c-4 -39.333 -15.333 -70.5 -34 -93.5s-43.667 -34.5 -75 -34.5c-18.667 0 -36.834 4.66699 -54.501 14s-34.667 18.833 -51 28.5s-31.833 14.5 -46.5 14.5
c-16 0 -28 -4.83301 -36 -14.5s-14.333 -24.167 -19 -43.5h-51z" />
    <glyph glyph-name="adieresis" unicode="&#xe4;" horiz-adv-x="561" 
d="M288 545c65.333 0 113.666 -14.333 144.999 -43s47 -74.334 47 -137.001v-365h-64l-17 76h-4c-23.333 -29.333 -48 -51 -74 -65s-61.333 -21 -106 -21c-48.667 0 -89 12.833 -121 38.5s-48 65.834 -48 120.501c0 53.333 21 94.5 63 123.5s106.667 44.833 194 47.5l91 3
v32c0 44.667 -9.66699 75.667 -29 93s-46.666 26 -81.999 26c-28 0 -54.667 -4.16699 -80 -12.5s-49 -17.833 -71 -28.5l-27 66c23.333 12.667 51 23.5 83 32.5s65.333 13.5 100 13.5zM393 262l-78.999 -2.99902c-66.667 -2.66699 -112.834 -13.334 -138.501 -32.001
s-38.5 -45 -38.5 -79c0 -30 9.16699 -52 27.5 -66s41.833 -21 70.5 -21c44.667 0 82.167 12.5 112.5 37.5s45.5 63.5 45.5 115.5v48zM140.001 681.001c0 17.333 4.5 29.833 13.5 37.5s20.167 11.5 33.5 11.5c12.667 0 23.667 -3.83301 33 -11.5s14 -20.167 14 -37.5
c0 -16.667 -4.66699 -29.167 -14 -37.5s-20.333 -12.5 -33 -12.5c-13.333 0 -24.5 4.16699 -33.5 12.5s-13.5 20.833 -13.5 37.5zM328.001 681.001c0 17.333 4.5 29.833 13.5 37.5s19.833 11.5 32.5 11.5s23.667 -3.83301 33 -11.5s14 -20.167 14 -37.5
c0 -16.667 -4.66699 -29.167 -14 -37.5s-20.333 -12.5 -33 -12.5s-23.5 4.16699 -32.5 12.5s-13.5 20.833 -13.5 37.5z" />
    <glyph glyph-name="aring" unicode="&#xe5;" horiz-adv-x="561" 
d="M288 545c65.333 0 113.666 -14.333 144.999 -43s47 -74.334 47 -137.001v-365h-64l-17 76h-4c-23.333 -29.333 -48 -51 -74 -65s-61.333 -21 -106 -21c-48.667 0 -89 12.833 -121 38.5s-48 65.834 -48 120.501c0 53.333 21 94.5 63 123.5s106.667 44.833 194 47.5l91 3
v32c0 44.667 -9.66699 75.667 -29 93s-46.666 26 -81.999 26c-28 0 -54.667 -4.16699 -80 -12.5s-49 -17.833 -71 -28.5l-27 66c23.333 12.667 51 23.5 83 32.5s65.333 13.5 100 13.5zM393 262l-78.999 -2.99902c-66.667 -2.66699 -112.834 -13.334 -138.501 -32.001
s-38.5 -45 -38.5 -79c0 -30 9.16699 -52 27.5 -66s41.833 -21 70.5 -21c44.667 0 82.167 12.5 112.5 37.5s45.5 63.5 45.5 115.5v48zM282.001 606.001c-32.667 0 -58.999 9.33398 -78.999 28.001s-30 44.667 -30 78s10 59.166 30 77.499s46.333 27.5 79 27.5
c31.333 0 57.666 -9.16699 78.999 -27.5s32 -43.833 32 -76.5c0 -34 -10.5 -60.333 -31.5 -79s-47.5 -28 -79.5 -28zM282.002 656.002c16.667 0 30.167 5 40.5 15s15.5 23.667 15.5 41s-5.33301 31 -16 41s-24 15 -40 15s-29.333 -5 -40 -15s-16 -23.667 -16 -41
s4.83301 -31 14.5 -41s23.5 -15 41.5 -15z" />
    <glyph glyph-name="ae" unicode="&#xe6;" horiz-adv-x="864" 
d="M603 546c43.333 0 80.6689 -9.99902 112.002 -29.999s55.5 -48 72.5 -84s25.5 -78 25.5 -126v-54h-343c1.33301 -64 15.166 -111.167 41.499 -141.5s64.166 -45.5 113.499 -45.5c32.667 0 61.834 3.16699 87.501 9.5s51.167 15.5 76.5 27.5v-77
c-26.667 -12 -52.834 -20.833 -78.501 -26.5s-55.167 -8.5 -88.5 -8.5c-94 0 -161.667 37.667 -203 113c-23.333 -34.667 -50.166 -62.167 -80.499 -82.5s-71.166 -30.5 -122.499 -30.5c-48.667 0 -89.167 12.833 -121.5 38.5s-48.5 65.834 -48.5 120.501
c0 53.333 20 94.5 60 123.5s101.333 44.833 184 47.5l90 3v34c0 43.333 -10.167 73.666 -30.5 90.999s-47.5 26 -81.5 26c-26.667 0 -52.834 -4 -78.501 -12s-49.5 -17.667 -71.5 -29l-27 66c23.333 12.667 51.666 23.5 84.999 32.5s66.333 13.5 99 13.5
c41.333 0 75.5 -6.83301 102.5 -20.5s47.5 -35.5 61.5 -65.5c17.333 27.333 40 48.666 68 63.999s60 23 96 23zM602.003 474.001c-38.667 0 -69.168 -13.168 -91.501 -39.501s-35.166 -64.166 -38.499 -113.499h248c0 46 -9.5 83 -28.5 111s-48.833 42 -89.5 42z
M378.002 262l-75 -2.99902c-62.667 -2.66699 -106 -13.334 -130 -32.001s-36 -45 -36 -79c0 -30 8.5 -52 25.5 -66s39.5 -21 67.5 -21c42 0 77.167 12.5 105.5 37.5s42.5 63.5 42.5 115.5v48z" />
    <glyph glyph-name="ccedilla" unicode="&#xe7;" horiz-adv-x="480" 
d="M300 -10c-48 0 -90.3359 9.66797 -127.003 29.001s-65.5 49.333 -86.5 90s-31.5 92.667 -31.5 156c0 66 10.833 119.667 32.5 161s51.5 71.666 89.5 90.999s81 29 129 29c26.667 0 52.834 -2.83301 78.501 -8.5s46.5 -12.5 62.5 -20.5l-27 -73
c-16 6 -34.667 11.667 -56 17s-41.333 8 -60 8c-105.333 0 -158 -67.667 -158 -203c0 -64.667 12.833 -114.167 38.5 -148.5s63.834 -51.5 114.501 -51.5c28.667 0 54.334 3 77.001 9s43.334 13.333 62.001 22v-78c-18 -9.33301 -37.833 -16.5 -59.5 -21.5
s-47.834 -7.5 -78.501 -7.5zM381.997 -138.999c0 -32 -12.333 -56.835 -37 -74.502s-61.667 -26.5 -111 -26.5c-21.333 0 -38 1.66699 -50 5v55c6 -1.33301 14 -2.5 24 -3.5s19.667 -1.5 29 -1.5c24 0 42.333 3.16699 55 9.5s19 17.833 19 34.5
c0 17.333 -8.83301 30 -26.5 38s-39.167 13.667 -64.5 17l43 86h58l-26 -53c24 -5.33301 44.5 -14.666 61.5 -27.999s25.5 -32.666 25.5 -57.999z" />
    <glyph glyph-name="egrave" unicode="&#xe8;" horiz-adv-x="564" 
d="M292 546c45.333 0 84.668 -10 118.001 -30s58.833 -48.167 76.5 -84.5s26.5 -78.833 26.5 -127.5v-53h-367c1.33301 -60.667 16.833 -106.834 46.5 -138.501s71.167 -47.5 124.5 -47.5c34 0 64.167 3.16699 90.5 9.5s53.5 15.5 81.5 27.5v-77
c-27.333 -12 -54.333 -20.833 -81 -26.5s-58.334 -8.5 -95.001 -8.5c-51.333 0 -96.333 10.333 -135 31s-68.834 51.334 -90.501 92.001s-32.5 91 -32.5 151c0 58.667 9.83301 109 29.5 151s47.334 74.333 83.001 97s77.167 34 124.5 34zM291.002 474
c-42 0 -75.165 -13.499 -99.498 -40.499s-38.833 -64.5 -43.5 -112.5h273c-0.666992 45.333 -11.334 82.166 -32.001 110.499s-53.334 42.5 -98.001 42.5zM259.004 766.001c7.33301 -14.667 16.498 -31.167 27.498 -49.5s22.667 -36.333 35 -54s23.5 -32.5 33.5 -44.5v-12
h-59c-15.333 12 -32.666 27.5 -51.999 46.5s-37.166 38 -53.499 57s-28.5 34.5 -36.5 46.5v10h105z" />
    <glyph glyph-name="eacute" unicode="&#xe9;" horiz-adv-x="564" 
d="M292 546c45.333 0 84.668 -10 118.001 -30s58.833 -48.167 76.5 -84.5s26.5 -78.833 26.5 -127.5v-53h-367c1.33301 -60.667 16.833 -106.834 46.5 -138.501s71.167 -47.5 124.5 -47.5c34 0 64.167 3.16699 90.5 9.5s53.5 15.5 81.5 27.5v-77
c-27.333 -12 -54.333 -20.833 -81 -26.5s-58.334 -8.5 -95.001 -8.5c-51.333 0 -96.333 10.333 -135 31s-68.834 51.334 -90.501 92.001s-32.5 91 -32.5 151c0 58.667 9.83301 109 29.5 151s47.334 74.333 83.001 97s77.167 34 124.5 34zM291.002 474
c-42 0 -75.165 -13.499 -99.498 -40.499s-38.833 -64.5 -43.5 -112.5h273c-0.666992 45.333 -11.334 82.166 -32.001 110.499s-53.334 42.5 -98.001 42.5zM426.004 766.001l0.000976562 -10c-8.66699 -12 -21.167 -27.5 -37.5 -46.5s-34 -38 -53 -57
s-36.5 -34.5 -52.5 -46.5h-58v12c9.33301 12 20 26.833 32 44.5l35 54c11.333 18.333 20.666 34.833 27.999 49.5h106z" />
    <glyph glyph-name="ecircumflex" unicode="&#xea;" horiz-adv-x="564" 
d="M292 546c45.333 0 84.668 -10 118.001 -30s58.833 -48.167 76.5 -84.5s26.5 -78.833 26.5 -127.5v-53h-367c1.33301 -60.667 16.833 -106.834 46.5 -138.501s71.167 -47.5 124.5 -47.5c34 0 64.167 3.16699 90.5 9.5s53.5 15.5 81.5 27.5v-77
c-27.333 -12 -54.333 -20.833 -81 -26.5s-58.334 -8.5 -95.001 -8.5c-51.333 0 -96.333 10.333 -135 31s-68.834 51.334 -90.501 92.001s-32.5 91 -32.5 151c0 58.667 9.83301 109 29.5 151s47.334 74.333 83.001 97s77.167 34 124.5 34zM291.002 474
c-42 0 -75.165 -13.499 -99.498 -40.499s-38.833 -64.5 -43.5 -112.5h273c-0.666992 45.333 -11.334 82.166 -32.001 110.499s-53.334 42.5 -98.001 42.5zM331.004 766.001c8 -14.667 19.499 -31.167 34.499 -49.5s30.667 -36.333 47 -54l43.5 -45.5v-11h-62
c-17.333 10.667 -35.333 23.834 -54 39.501s-37 32.5 -55 50.5c-18 -18 -36 -34.833 -54 -50.5s-35.667 -28.834 -53 -39.501h-60v11l42 45.5c16 17.667 31.333 35.667 46 54s26.334 34.833 35.001 49.5h90z" />
    <glyph glyph-name="edieresis" unicode="&#xeb;" horiz-adv-x="564" 
d="M292 546c45.333 0 84.668 -10 118.001 -30s58.833 -48.167 76.5 -84.5s26.5 -78.833 26.5 -127.5v-53h-367c1.33301 -60.667 16.833 -106.834 46.5 -138.501s71.167 -47.5 124.5 -47.5c34 0 64.167 3.16699 90.5 9.5s53.5 15.5 81.5 27.5v-77
c-27.333 -12 -54.333 -20.833 -81 -26.5s-58.334 -8.5 -95.001 -8.5c-51.333 0 -96.333 10.333 -135 31s-68.834 51.334 -90.501 92.001s-32.5 91 -32.5 151c0 58.667 9.83301 109 29.5 151s47.334 74.333 83.001 97s77.167 34 124.5 34zM291.002 474
c-42 0 -75.165 -13.499 -99.498 -40.499s-38.833 -64.5 -43.5 -112.5h273c-0.666992 45.333 -11.334 82.166 -32.001 110.499s-53.334 42.5 -98.001 42.5zM144.004 681.001c0 17.333 4.5 29.833 13.5 37.5s20.167 11.5 33.5 11.5c12.667 0 23.667 -3.83301 33 -11.5
s14 -20.167 14 -37.5c0 -16.667 -4.66699 -29.167 -14 -37.5s-20.333 -12.5 -33 -12.5c-13.333 0 -24.5 4.16699 -33.5 12.5s-13.5 20.833 -13.5 37.5zM332.004 681.001c0 17.333 4.5 29.833 13.5 37.5s19.833 11.5 32.5 11.5s23.667 -3.83301 33 -11.5s14 -20.167 14 -37.5
c0 -16.667 -4.66699 -29.167 -14 -37.5s-20.333 -12.5 -33 -12.5s-23.5 4.16699 -32.5 12.5s-13.5 20.833 -13.5 37.5z" />
    <glyph glyph-name="igrave" unicode="&#xec;" horiz-adv-x="258" 
d="M173 0h-88v536h88v-536zM103 766c7.33301 -14.667 16.498 -31.167 27.498 -49.5s22.667 -36.333 35 -54s23.5 -32.5 33.5 -44.5v-12h-59c-15.333 12 -32.666 27.5 -51.999 46.5s-37.166 38 -53.499 57s-28.5 34.5 -36.5 46.5v10h105z" />
    <glyph glyph-name="iacute" unicode="&#xed;" horiz-adv-x="258" 
d="M173 0h-88v536h88v-536zM270 766l0.000976562 -10c-8.66699 -12 -21.167 -27.5 -37.5 -46.5s-34 -38 -53 -57s-36.5 -34.5 -52.5 -46.5h-58v12c9.33301 12 20 26.833 32 44.5l35 54c11.333 18.333 20.666 34.833 27.999 49.5h106z" />
    <glyph glyph-name="icircumflex" unicode="&#xee;" horiz-adv-x="258" 
d="M173 0h-88v536h88v-536zM175 766c8 -14.667 19.499 -31.167 34.499 -49.5s30.667 -36.333 47 -54l43.5 -45.5v-11h-62c-17.333 10.667 -35.333 23.834 -54 39.501s-37 32.5 -55 50.5c-18 -18 -36 -34.833 -54 -50.5s-35.667 -28.834 -53 -39.501h-60v11l42 45.5
c16 17.667 31.333 35.667 46 54s26.334 34.833 35.001 49.5h90z" />
    <glyph glyph-name="idieresis" unicode="&#xef;" horiz-adv-x="258" 
d="M173 0h-88v536h88v-536zM-12 681c0 17.333 4.5 29.833 13.5 37.5s20.167 11.5 33.5 11.5c12.667 0 23.667 -3.83301 33 -11.5s14 -20.167 14 -37.5c0 -16.667 -4.66699 -29.167 -14 -37.5s-20.333 -12.5 -33 -12.5c-13.333 0 -24.5 4.16699 -33.5 12.5
s-13.5 20.833 -13.5 37.5zM176 681c0 17.333 4.5 29.833 13.5 37.5s19.833 11.5 32.5 11.5s23.667 -3.83301 33 -11.5s14 -20.167 14 -37.5c0 -16.667 -4.66699 -29.167 -14 -37.5s-20.333 -12.5 -33 -12.5s-23.5 4.16699 -32.5 12.5s-13.5 20.833 -13.5 37.5z" />
    <glyph glyph-name="eth" unicode="&#xf0;" horiz-adv-x="605" 
d="M216 765c21.333 -10 42.8311 -21.002 64.498 -33.002s42.167 -25 61.5 -39l115 67l38 -54l-99 -57c45.333 -42.667 82.5 -95.5 111.5 -158.5s43.5 -134.833 43.5 -215.5c0 -95.333 -22.333 -166.666 -67 -213.999s-105.667 -71 -183 -71c-48 0 -90.5 9.83301 -127.5 29.5
s-66 47.667 -87 84s-31.5 79.5 -31.5 129.5c0 74.667 21.167 133.334 63.5 176.001s99.5 64 171.5 64c34.667 0 65.334 -4.66699 92.001 -14s48 -24 64 -44l4 2c-10.667 38 -27 73 -49 105s-47 60.667 -75 86l-130 -75l-38 55l112 64c-14 9.33301 -28.667 18.5 -44 27.5
s-30.666 17.5 -45.999 25.5zM302.998 401.998c-56 0 -96.498 -14.833 -121.498 -44.5s-37.5 -72.167 -37.5 -127.5c0 -49.333 12.667 -89.666 38 -120.999s65.666 -47 120.999 -47s95.666 16.167 120.999 48.5s38 79.166 38 140.499c0 41.333 -13 76.833 -39 106.5
s-66 44.5 -120 44.5z" />
    <glyph glyph-name="ntilde" unicode="&#xf1;" horiz-adv-x="618" 
d="M343 546c64 0 112.333 -15.667 145 -47s49 -81.333 49 -150v-349h-87v343c0 86 -40 129 -120 129c-59.333 0 -100.333 -16.667 -123 -50s-34 -81.333 -34 -144v-278h-88v536h71l13 -73h5c17.333 28 41.333 48.833 72 62.5s63 20.5 97 20.5zM125 606
c4 39.333 15.502 70.5 34.502 93.5s44.167 34.5 75.5 34.5c20 0 38.833 -4.83301 56.5 -14.5l50.5 -28.5c16 -9.33301 31 -14 45 -14c15.333 0 27.166 4.83301 35.499 14.5s14.833 24.167 19.5 43.5h50c-4 -39.333 -15.333 -70.5 -34 -93.5s-43.667 -34.5 -75 -34.5
c-18.667 0 -36.834 4.66699 -54.501 14s-34.667 18.833 -51 28.5s-31.833 14.5 -46.5 14.5c-16 0 -28 -4.83301 -36 -14.5s-14.333 -24.167 -19 -43.5h-51z" />
    <glyph glyph-name="ograve" unicode="&#xf2;" horiz-adv-x="605" 
d="M551 269c0 -88.667 -22.499 -157.334 -67.499 -206.001s-105.833 -73 -182.5 -73c-47.333 0 -89.5 10.833 -126.5 32.5s-66.167 53.334 -87.5 95.001s-32 92.167 -32 151.5c0 88.667 22.167 157 66.5 205s105.166 72 182.499 72c48 0 90.667 -10.833 128 -32.5
s66.5 -53 87.5 -94s31.5 -91.167 31.5 -150.5zM146.001 269c0 -63.333 12.501 -113.5 37.501 -150.5s64.833 -55.5 119.5 -55.5c54 0 93.667 18.5 119 55.5s38 87.167 38 150.5s-12.667 113 -38 149s-65.333 54 -120 54s-94.334 -18 -119.001 -54s-37 -85.667 -37 -149z
M277.002 766c7.33301 -14.667 16.498 -31.167 27.498 -49.5s22.667 -36.333 35 -54s23.5 -32.5 33.5 -44.5v-12h-59c-15.333 12 -32.666 27.5 -51.999 46.5s-37.166 38 -53.499 57s-28.5 34.5 -36.5 46.5v10h105z" />
    <glyph glyph-name="oacute" unicode="&#xf3;" horiz-adv-x="605" 
d="M551 269c0 -88.667 -22.499 -157.334 -67.499 -206.001s-105.833 -73 -182.5 -73c-47.333 0 -89.5 10.833 -126.5 32.5s-66.167 53.334 -87.5 95.001s-32 92.167 -32 151.5c0 88.667 22.167 157 66.5 205s105.166 72 182.499 72c48 0 90.667 -10.833 128 -32.5
s66.5 -53 87.5 -94s31.5 -91.167 31.5 -150.5zM146.001 269c0 -63.333 12.501 -113.5 37.501 -150.5s64.833 -55.5 119.5 -55.5c54 0 93.667 18.5 119 55.5s38 87.167 38 150.5s-12.667 113 -38 149s-65.333 54 -120 54s-94.334 -18 -119.001 -54s-37 -85.667 -37 -149z
M444.002 766l0.000976562 -10c-8.66699 -12 -21.167 -27.5 -37.5 -46.5s-34 -38 -53 -57s-36.5 -34.5 -52.5 -46.5h-58v12c9.33301 12 20 26.833 32 44.5l35 54c11.333 18.333 20.666 34.833 27.999 49.5h106z" />
    <glyph glyph-name="ocircumflex" unicode="&#xf4;" horiz-adv-x="605" 
d="M551 269c0 -88.667 -22.499 -157.334 -67.499 -206.001s-105.833 -73 -182.5 -73c-47.333 0 -89.5 10.833 -126.5 32.5s-66.167 53.334 -87.5 95.001s-32 92.167 -32 151.5c0 88.667 22.167 157 66.5 205s105.166 72 182.499 72c48 0 90.667 -10.833 128 -32.5
s66.5 -53 87.5 -94s31.5 -91.167 31.5 -150.5zM146.001 269c0 -63.333 12.501 -113.5 37.501 -150.5s64.833 -55.5 119.5 -55.5c54 0 93.667 18.5 119 55.5s38 87.167 38 150.5s-12.667 113 -38 149s-65.333 54 -120 54s-94.334 -18 -119.001 -54s-37 -85.667 -37 -149z
M349.002 766c8 -14.667 19.499 -31.167 34.499 -49.5s30.667 -36.333 47 -54l43.5 -45.5v-11h-62c-17.333 10.667 -35.333 23.834 -54 39.501s-37 32.5 -55 50.5c-18 -18 -36 -34.833 -54 -50.5s-35.667 -28.834 -53 -39.501h-60v11l42 45.5c16 17.667 31.333 35.667 46 54
s26.334 34.833 35.001 49.5h90z" />
    <glyph glyph-name="otilde" unicode="&#xf5;" horiz-adv-x="605" 
d="M551 269c0 -88.667 -22.499 -157.334 -67.499 -206.001s-105.833 -73 -182.5 -73c-47.333 0 -89.5 10.833 -126.5 32.5s-66.167 53.334 -87.5 95.001s-32 92.167 -32 151.5c0 88.667 22.167 157 66.5 205s105.166 72 182.499 72c48 0 90.667 -10.833 128 -32.5
s66.5 -53 87.5 -94s31.5 -91.167 31.5 -150.5zM146.001 269c0 -63.333 12.501 -113.5 37.501 -150.5s64.833 -55.5 119.5 -55.5c54 0 93.667 18.5 119 55.5s38 87.167 38 150.5s-12.667 113 -38 149s-65.333 54 -120 54s-94.334 -18 -119.001 -54s-37 -85.667 -37 -149z
M119.002 606c4 39.333 15.502 70.5 34.502 93.5s44.167 34.5 75.5 34.5c20 0 38.833 -4.83301 56.5 -14.5l50.5 -28.5c16 -9.33301 31 -14 45 -14c15.333 0 27.166 4.83301 35.499 14.5s14.833 24.167 19.5 43.5h50c-4 -39.333 -15.333 -70.5 -34 -93.5
s-43.667 -34.5 -75 -34.5c-18.667 0 -36.834 4.66699 -54.501 14s-34.667 18.833 -51 28.5s-31.833 14.5 -46.5 14.5c-16 0 -28 -4.83301 -36 -14.5s-14.333 -24.167 -19 -43.5h-51z" />
    <glyph glyph-name="odieresis" unicode="&#xf6;" horiz-adv-x="605" 
d="M551 269c0 -88.667 -22.499 -157.334 -67.499 -206.001s-105.833 -73 -182.5 -73c-47.333 0 -89.5 10.833 -126.5 32.5s-66.167 53.334 -87.5 95.001s-32 92.167 -32 151.5c0 88.667 22.167 157 66.5 205s105.166 72 182.499 72c48 0 90.667 -10.833 128 -32.5
s66.5 -53 87.5 -94s31.5 -91.167 31.5 -150.5zM146.001 269c0 -63.333 12.501 -113.5 37.501 -150.5s64.833 -55.5 119.5 -55.5c54 0 93.667 18.5 119 55.5s38 87.167 38 150.5s-12.667 113 -38 149s-65.333 54 -120 54s-94.334 -18 -119.001 -54s-37 -85.667 -37 -149z
M162.002 681c0 17.333 4.5 29.833 13.5 37.5s20.167 11.5 33.5 11.5c12.667 0 23.667 -3.83301 33 -11.5s14 -20.167 14 -37.5c0 -16.667 -4.66699 -29.167 -14 -37.5s-20.333 -12.5 -33 -12.5c-13.333 0 -24.5 4.16699 -33.5 12.5s-13.5 20.833 -13.5 37.5zM350.002 681
c0 17.333 4.5 29.833 13.5 37.5s19.833 11.5 32.5 11.5s23.667 -3.83301 33 -11.5s14 -20.167 14 -37.5c0 -16.667 -4.66699 -29.167 -14 -37.5s-20.333 -12.5 -33 -12.5s-23.5 4.16699 -32.5 12.5s-13.5 20.833 -13.5 37.5z" />
    <glyph glyph-name="divide" unicode="&#xf7;" horiz-adv-x="572" 
d="M285 462c-15.333 0 -28.5 4.83301 -39.5 14.5s-16.5 25.167 -16.5 46.5c0 22.667 5.5 38.334 16.5 47.001s24.167 13 39.5 13s28.333 -4.33301 39 -13s16 -24.334 16 -47.001c0 -21.333 -5.33301 -36.833 -16 -46.5s-23.667 -14.5 -39 -14.5zM50 317v71h471v-71h-471z
M285 121c-15.333 0 -28.5 4.83301 -39.5 14.5s-16.5 25.167 -16.5 46.5c0 22.667 5.5 38.334 16.5 47.001s24.167 13 39.5 13s28.333 -4.33301 39 -13s16 -24.334 16 -47.001c0 -21.333 -5.33301 -36.833 -16 -46.5s-23.667 -14.5 -39 -14.5z" />
    <glyph glyph-name="oslash" unicode="&#xf8;" horiz-adv-x="605" 
d="M551 269c0 -88.667 -22.499 -157.332 -67.499 -205.999s-105.833 -73 -182.5 -73c-48.667 0 -91.667 11 -129 33l-40 -56l-58 39l45 62c-20.667 24 -36.5 52.667 -47.5 86s-16.5 71.666 -16.5 114.999c0 88.667 22.167 157 66.5 205s105.166 72 182.499 72
c48.667 0 92.334 -12 131.001 -36l39 56l59 -38l-45 -63c19.333 -23.333 34.666 -51.5 45.999 -84.5s17 -70.167 17 -111.5zM146.001 269.002c0 -25.333 1.83301 -48.832 5.5 -70.499s9.83398 -40.834 18.501 -57.501l220 306c-24 16.667 -53.333 25 -88 25
c-54.667 0 -94.334 -18 -119.001 -54s-37 -85.667 -37 -149zM460.001 269.003c0 49.333 -7.66797 90.333 -23.001 123l-220 -306c22.667 -15.333 51.334 -23 86.001 -23c54 0 93.667 18.5 119 55.5s38 87.167 38 150.5z" />
    <glyph glyph-name="ugrave" unicode="&#xf9;" horiz-adv-x="618" 
d="M533 536l0.00195312 -536h-72l-13 71h-4c-17.333 -28 -41.333 -48.5 -72 -61.5s-63.334 -19.5 -98.001 -19.5c-64.667 0 -113.334 15.5 -146.001 46.5s-49 80.5 -49 148.5v351h89v-345c0 -85.333 39.667 -128 119 -128c59.333 0 100.5 16.667 123.5 50
s34.5 81.333 34.5 144v279h88zM283.002 766c7.33301 -14.667 16.498 -31.167 27.498 -49.5s22.667 -36.333 35 -54s23.5 -32.5 33.5 -44.5v-12h-59c-15.333 12 -32.666 27.5 -51.999 46.5s-37.166 38 -53.499 57s-28.5 34.5 -36.5 46.5v10h105z" />
    <glyph glyph-name="uacute" unicode="&#xfa;" horiz-adv-x="618" 
d="M533 536l0.00195312 -536h-72l-13 71h-4c-17.333 -28 -41.333 -48.5 -72 -61.5s-63.334 -19.5 -98.001 -19.5c-64.667 0 -113.334 15.5 -146.001 46.5s-49 80.5 -49 148.5v351h89v-345c0 -85.333 39.667 -128 119 -128c59.333 0 100.5 16.667 123.5 50
s34.5 81.333 34.5 144v279h88zM450.002 766l0.000976562 -10c-8.66699 -12 -21.167 -27.5 -37.5 -46.5s-34 -38 -53 -57s-36.5 -34.5 -52.5 -46.5h-58v12c9.33301 12 20 26.833 32 44.5l35 54c11.333 18.333 20.666 34.833 27.999 49.5h106z" />
    <glyph glyph-name="ucircumflex" unicode="&#xfb;" horiz-adv-x="618" 
d="M533 536l0.00195312 -536h-72l-13 71h-4c-17.333 -28 -41.333 -48.5 -72 -61.5s-63.334 -19.5 -98.001 -19.5c-64.667 0 -113.334 15.5 -146.001 46.5s-49 80.5 -49 148.5v351h89v-345c0 -85.333 39.667 -128 119 -128c59.333 0 100.5 16.667 123.5 50
s34.5 81.333 34.5 144v279h88zM355.002 766c8 -14.667 19.499 -31.167 34.499 -49.5s30.667 -36.333 47 -54l43.5 -45.5v-11h-62c-17.333 10.667 -35.333 23.834 -54 39.501s-37 32.5 -55 50.5c-18 -18 -36 -34.833 -54 -50.5s-35.667 -28.834 -53 -39.501h-60v11l42 45.5
c16 17.667 31.333 35.667 46 54s26.334 34.833 35.001 49.5h90z" />
    <glyph glyph-name="udieresis" unicode="&#xfc;" horiz-adv-x="618" 
d="M533 536l0.00195312 -536h-72l-13 71h-4c-17.333 -28 -41.333 -48.5 -72 -61.5s-63.334 -19.5 -98.001 -19.5c-64.667 0 -113.334 15.5 -146.001 46.5s-49 80.5 -49 148.5v351h89v-345c0 -85.333 39.667 -128 119 -128c59.333 0 100.5 16.667 123.5 50
s34.5 81.333 34.5 144v279h88zM168.002 681c0 17.333 4.5 29.833 13.5 37.5s20.167 11.5 33.5 11.5c12.667 0 23.667 -3.83301 33 -11.5s14 -20.167 14 -37.5c0 -16.667 -4.66699 -29.167 -14 -37.5s-20.333 -12.5 -33 -12.5c-13.333 0 -24.5 4.16699 -33.5 12.5
s-13.5 20.833 -13.5 37.5zM356.002 681c0 17.333 4.5 29.833 13.5 37.5s19.833 11.5 32.5 11.5s23.667 -3.83301 33 -11.5s14 -20.167 14 -37.5c0 -16.667 -4.66699 -29.167 -14 -37.5s-20.333 -12.5 -33 -12.5s-23.5 4.16699 -32.5 12.5s-13.5 20.833 -13.5 37.5z" />
    <glyph glyph-name="yacute" unicode="&#xfd;" horiz-adv-x="510" 
d="M1 536l94 -0.000976562l116 -305c10 -27.333 19 -53 27 -77s14 -47 18 -69h4c4 16.667 10.333 38.5 19 65.5l27 81.5l109 304h95l-231 -610c-19.333 -50.667 -43.666 -91 -72.999 -121s-70 -45 -122 -45c-16 0 -30 0.833008 -42 2.5s-22.333 3.5 -31 5.5v70
c7.33301 -1.33301 16.166 -2.66602 26.499 -3.99902s21.166 -2 32.499 -2c30.667 0 55.334 8.66699 74.001 26s33.667 40.333 45 69l28 71zM396 765.999l0.000976562 -10c-8.66699 -12 -21.167 -27.5 -37.5 -46.5s-34 -38 -53 -57s-36.5 -34.5 -52.5 -46.5h-58v12
c9.33301 12 20 26.833 32 44.5l35 54c11.333 18.333 20.666 34.833 27.999 49.5h106z" />
    <glyph glyph-name="thorn" unicode="&#xfe;" horiz-adv-x="615" 
d="M560 269c0 -91.333 -20.166 -160.666 -60.499 -207.999s-93.5 -71 -159.5 -71c-42 0 -76.333 7.66699 -103 23s-48 33.666 -64 54.999h-6c0.666992 -5.33301 1.5 -13.333 2.5 -24s1.83301 -21.667 2.5 -33s1 -20.333 1 -27v-224h-88v1000h88v-224
c0 -9.33301 -0.333008 -21.5 -1 -36.5s-1.33398 -26.833 -2.00098 -35.5h4c16 22.667 37 42 63 58s60.333 24 103 24c66 0 119.167 -23.333 159.5 -70s60.5 -115.667 60.5 -207zM469.001 270c0 67.333 -11.668 117.832 -35.001 151.499s-59.666 50.5 -108.999 50.5
c-55.333 0 -94.333 -15.333 -117 -46s-34.334 -76.667 -35.001 -138v-19c0 -66 10.833 -116.833 32.5 -152.5s61.834 -53.5 120.501 -53.5c49.333 0 85.5 17.833 108.5 53.5s34.5 86.834 34.5 153.501z" />
    <glyph glyph-name="ydieresis" unicode="&#xff;" horiz-adv-x="510" 
d="M1 536l94 -0.000976562l116 -305c10 -27.333 19 -53 27 -77s14 -47 18 -69h4c4 16.667 10.333 38.5 19 65.5l27 81.5l109 304h95l-231 -610c-19.333 -50.667 -43.666 -91 -72.999 -121s-70 -45 -122 -45c-16 0 -30 0.833008 -42 2.5s-22.333 3.5 -31 5.5v70
c7.33301 -1.33301 16.166 -2.66602 26.499 -3.99902s21.166 -2 32.499 -2c30.667 0 55.334 8.66699 74.001 26s33.667 40.333 45 69l28 71zM114 680.999c0 17.333 4.5 29.833 13.5 37.5s20.167 11.5 33.5 11.5c12.667 0 23.667 -3.83301 33 -11.5s14 -20.167 14 -37.5
c0 -16.667 -4.66699 -29.167 -14 -37.5s-20.333 -12.5 -33 -12.5c-13.333 0 -24.5 4.16699 -33.5 12.5s-13.5 20.833 -13.5 37.5zM302 680.999c0 17.333 4.5 29.833 13.5 37.5s19.833 11.5 32.5 11.5s23.667 -3.83301 33 -11.5s14 -20.167 14 -37.5
c0 -16.667 -4.66699 -29.167 -14 -37.5s-20.333 -12.5 -33 -12.5s-23.5 4.16699 -32.5 12.5s-13.5 20.833 -13.5 37.5z" />
    <glyph glyph-name="Amacron" unicode="&#x100;" horiz-adv-x="639" 
d="M545 0l-86 221h-283l-85 -221h-91l279 717h81l278 -717h-93zM432 301l-80 216.001c-2 5.33301 -5.33301 15 -10 29s-9.16699 28.5 -13.5 43.5s-7.83301 26.5 -10.5 34.5c-5.33301 -20.667 -10.833 -40.834 -16.5 -60.501s-10.5 -35.167 -14.5 -46.5l-81 -216h226z
M466 855.001v-71h-297v71h297z" />
    <glyph glyph-name="amacron" unicode="&#x101;" horiz-adv-x="561" 
d="M288 545c65.333 0 113.666 -14.333 144.999 -43s47 -74.334 47 -137.001v-365h-64l-17 76h-4c-23.333 -29.333 -48 -51 -74 -65s-61.333 -21 -106 -21c-48.667 0 -89 12.833 -121 38.5s-48 65.834 -48 120.501c0 53.333 21 94.5 63 123.5s106.667 44.833 194 47.5l91 3
v32c0 44.667 -9.66699 75.667 -29 93s-46.666 26 -81.999 26c-28 0 -54.667 -4.16699 -80 -12.5s-49 -17.833 -71 -28.5l-27 66c23.333 12.667 51 23.5 83 32.5s65.333 13.5 100 13.5zM393 262l-78.999 -2.99902c-66.667 -2.66699 -112.834 -13.334 -138.501 -32.001
s-38.5 -45 -38.5 -79c0 -30 9.16699 -52 27.5 -66s41.833 -21 70.5 -21c44.667 0 82.167 12.5 112.5 37.5s45.5 63.5 45.5 115.5v48zM429.001 677.001v-71h-297v71h297z" />
    <glyph glyph-name="Abreve" unicode="&#x102;" horiz-adv-x="639" 
d="M545 0l-86 221h-283l-85 -221h-91l279 717h81l278 -717h-93zM432 301l-80 216.001c-2 5.33301 -5.33301 15 -10 29s-9.16699 28.5 -13.5 43.5s-7.83301 26.5 -10.5 34.5c-5.33301 -20.667 -10.833 -40.834 -16.5 -60.501s-10.5 -35.167 -14.5 -46.5l-81 -216h226z
M478 918.001c-3.33301 -40 -18.5 -72.334 -45.5 -97.001s-64.5 -37 -112.5 -37c-49.333 0 -86.5 12 -111.5 36s-38.833 56.667 -41.5 98h54c2.66699 -27.333 12.5 -44.666 29.5 -51.999s40.833 -11 71.5 -11c26 0 48.5 4 67.5 12s30.167 25 33.5 51h55z" />
    <glyph glyph-name="abreve" unicode="&#x103;" horiz-adv-x="561" 
d="M288 545c65.333 0 113.666 -14.333 144.999 -43s47 -74.334 47 -137.001v-365h-64l-17 76h-4c-23.333 -29.333 -48 -51 -74 -65s-61.333 -21 -106 -21c-48.667 0 -89 12.833 -121 38.5s-48 65.834 -48 120.501c0 53.333 21 94.5 63 123.5s106.667 44.833 194 47.5l91 3
v32c0 44.667 -9.66699 75.667 -29 93s-46.666 26 -81.999 26c-28 0 -54.667 -4.16699 -80 -12.5s-49 -17.833 -71 -28.5l-27 66c23.333 12.667 51 23.5 83 32.5s65.333 13.5 100 13.5zM393 262l-78.999 -2.99902c-66.667 -2.66699 -112.834 -13.334 -138.501 -32.001
s-38.5 -45 -38.5 -79c0 -30 9.16699 -52 27.5 -66s41.833 -21 70.5 -21c44.667 0 82.167 12.5 112.5 37.5s45.5 63.5 45.5 115.5v48zM441.001 740.001c-3.33301 -40 -18.5 -72.334 -45.5 -97.001s-64.5 -37 -112.5 -37c-49.333 0 -86.5 12 -111.5 36
s-38.833 56.667 -41.5 98h54c2.66699 -27.333 12.5 -44.666 29.5 -51.999s40.833 -11 71.5 -11c26 0 48.5 4 67.5 12s30.167 25 33.5 51h55z" />
    <glyph glyph-name="Aogonek" unicode="&#x104;" horiz-adv-x="639" 
d="M545 0l-86 221h-283l-85 -221h-91l279 717h81l278 -717h-93zM432 301l-80 216.001c-2 5.33301 -5.33301 15 -10 29s-9.16699 28.5 -13.5 43.5s-7.83301 26.5 -10.5 34.5c-5.33301 -20.667 -10.833 -40.834 -16.5 -60.501s-10.5 -35.167 -14.5 -46.5l-81 -216h226z
M545 -115.999c0 -30 15.002 -44.999 45.002 -44.999c11.333 0 20.833 0.833008 28.5 2.5s14.167 2.83398 19.5 3.50098v-56c-9.33301 -2.66699 -18.833 -4.83398 -28.5 -6.50098s-20.834 -2.5 -33.501 -2.5c-35.333 0 -61.333 8.33301 -78 25s-25 39.667 -25 69
c0 18.667 4.83301 37.167 14.5 55.5s21.667 34.833 36 49.5s28.166 26.667 41.499 36l48 -15c-22.667 -21.333 -39.667 -40.833 -51 -58.5s-17 -36.834 -17 -57.501z" />
    <glyph glyph-name="aogonek" unicode="&#x105;" horiz-adv-x="561" 
d="M288 545c65.333 0 113.666 -14.333 144.999 -43s47 -74.334 47 -137.001v-365h-64l-17 76h-4c-23.333 -29.333 -48 -51 -74 -65s-61.333 -21 -106 -21c-48.667 0 -89 12.833 -121 38.5s-48 65.834 -48 120.501c0 53.333 21 94.5 63 123.5s106.667 44.833 194 47.5l91 3
v32c0 44.667 -9.66699 75.667 -29 93s-46.666 26 -81.999 26c-28 0 -54.667 -4.16699 -80 -12.5s-49 -17.833 -71 -28.5l-27 66c23.333 12.667 51 23.5 83 32.5s65.333 13.5 100 13.5zM393 262l-78.999 -2.99902c-66.667 -2.66699 -112.834 -13.334 -138.501 -32.001
s-38.5 -45 -38.5 -79c0 -30 9.16699 -52 27.5 -66s41.833 -21 70.5 -21c44.667 0 82.167 12.5 112.5 37.5s45.5 63.5 45.5 115.5v48zM412.001 -115.999c0 -30 15.002 -44.999 45.002 -44.999c11.333 0 20.833 0.833008 28.5 2.5s14.167 2.83398 19.5 3.50098v-56
c-9.33301 -2.66699 -18.833 -4.83398 -28.5 -6.50098s-20.834 -2.5 -33.501 -2.5c-35.333 0 -61.333 8.33301 -78 25s-25 39.667 -25 69c0 18.667 4.83301 37.167 14.5 55.5s21.667 34.833 36 49.5s28.166 26.667 41.499 36l48 -15
c-22.667 -21.333 -39.667 -40.833 -51 -58.5s-17 -36.834 -17 -57.501z" />
    <glyph glyph-name="Cacute" unicode="&#x106;" horiz-adv-x="632" 
d="M403 645c-76.667 0 -136.998 -25.667 -180.998 -77s-66 -121.666 -66 -210.999c0 -88.667 20.5 -158.834 61.5 -210.501s102.5 -77.5 184.5 -77.5c30.667 0 60 2.66699 88 8s55.667 12 83 20v-78c-26.667 -10 -54.167 -17.333 -82.5 -22s-62.166 -7 -101.499 -7
c-72.667 0 -133.334 15 -182.001 45s-85.167 72.667 -109.5 128s-36.5 120.333 -36.5 195c0 72 13.167 135.5 39.5 190.5s65.166 98 116.499 129s113.666 46.5 186.999 46.5c75.333 0 141 -14 197 -42l-36 -76c-22 10 -46.5 19 -73.5 27s-56.5 12 -88.5 12zM521.002 944
l0.000976562 -10c-8.66699 -12 -21.167 -27.5 -37.5 -46.5s-34 -38 -53 -57s-36.5 -34.5 -52.5 -46.5h-58v12c9.33301 12 20 26.833 32 44.5l35 54c11.333 18.333 20.666 34.833 27.999 49.5h106z" />
    <glyph glyph-name="cacute" unicode="&#x107;" horiz-adv-x="480" 
d="M300 -10c-48 0 -90.3359 9.66797 -127.003 29.001s-65.5 49.333 -86.5 90s-31.5 92.667 -31.5 156c0 66 10.833 119.667 32.5 161s51.5 71.666 89.5 90.999s81 29 129 29c26.667 0 52.834 -2.83301 78.501 -8.5s46.5 -12.5 62.5 -20.5l-27 -73
c-16 6 -34.667 11.667 -56 17s-41.333 8 -60 8c-105.333 0 -158 -67.667 -158 -203c0 -64.667 12.833 -114.167 38.5 -148.5s63.834 -51.5 114.501 -51.5c28.667 0 54.334 3 77.001 9s43.334 13.333 62.001 22v-78c-18 -9.33301 -37.833 -16.5 -59.5 -21.5
s-47.834 -7.5 -78.501 -7.5zM424.997 766.001l0.000976562 -10c-8.66699 -12 -21.167 -27.5 -37.5 -46.5s-34 -38 -53 -57s-36.5 -34.5 -52.5 -46.5h-58v12c9.33301 12 20 26.833 32 44.5l35 54c11.333 18.333 20.666 34.833 27.999 49.5h106z" />
    <glyph glyph-name="Ccircumflex" unicode="&#x108;" horiz-adv-x="632" 
d="M403 645c-76.667 0 -136.998 -25.667 -180.998 -77s-66 -121.666 -66 -210.999c0 -88.667 20.5 -158.834 61.5 -210.501s102.5 -77.5 184.5 -77.5c30.667 0 60 2.66699 88 8s55.667 12 83 20v-78c-26.667 -10 -54.167 -17.333 -82.5 -22s-62.166 -7 -101.499 -7
c-72.667 0 -133.334 15 -182.001 45s-85.167 72.667 -109.5 128s-36.5 120.333 -36.5 195c0 72 13.167 135.5 39.5 190.5s65.166 98 116.499 129s113.666 46.5 186.999 46.5c75.333 0 141 -14 197 -42l-36 -76c-22 10 -46.5 19 -73.5 27s-56.5 12 -88.5 12zM426.002 944
c8 -14.667 19.499 -31.167 34.499 -49.5s30.667 -36.333 47 -54l43.5 -45.5v-11h-62c-17.333 10.667 -35.333 23.834 -54 39.501s-37 32.5 -55 50.5c-18 -18 -36 -34.833 -54 -50.5s-35.667 -28.834 -53 -39.501h-60v11l42 45.5c16 17.667 31.333 35.667 46 54
s26.334 34.833 35.001 49.5h90z" />
    <glyph glyph-name="ccircumflex" unicode="&#x109;" horiz-adv-x="480" 
d="M300 -10c-48 0 -90.3359 9.66797 -127.003 29.001s-65.5 49.333 -86.5 90s-31.5 92.667 -31.5 156c0 66 10.833 119.667 32.5 161s51.5 71.666 89.5 90.999s81 29 129 29c26.667 0 52.834 -2.83301 78.501 -8.5s46.5 -12.5 62.5 -20.5l-27 -73
c-16 6 -34.667 11.667 -56 17s-41.333 8 -60 8c-105.333 0 -158 -67.667 -158 -203c0 -64.667 12.833 -114.167 38.5 -148.5s63.834 -51.5 114.501 -51.5c28.667 0 54.334 3 77.001 9s43.334 13.333 62.001 22v-78c-18 -9.33301 -37.833 -16.5 -59.5 -21.5
s-47.834 -7.5 -78.501 -7.5zM329.997 766.001c8 -14.667 19.499 -31.167 34.499 -49.5s30.667 -36.333 47 -54l43.5 -45.5v-11h-62c-17.333 10.667 -35.333 23.834 -54 39.501s-37 32.5 -55 50.5c-18 -18 -36 -34.833 -54 -50.5s-35.667 -28.834 -53 -39.501h-60v11l42 45.5
c16 17.667 31.333 35.667 46 54s26.334 34.833 35.001 49.5h90z" />
    <glyph glyph-name="Cdot" unicode="&#x10a;" horiz-adv-x="632" 
d="M403 645c-76.667 0 -136.998 -25.667 -180.998 -77s-66 -121.666 -66 -210.999c0 -88.667 20.5 -158.834 61.5 -210.501s102.5 -77.5 184.5 -77.5c30.667 0 60 2.66699 88 8s55.667 12 83 20v-78c-26.667 -10 -54.167 -17.333 -82.5 -22s-62.166 -7 -101.499 -7
c-72.667 0 -133.334 15 -182.001 45s-85.167 72.667 -109.5 128s-36.5 120.333 -36.5 195c0 72 13.167 135.5 39.5 190.5s65.166 98 116.499 129s113.666 46.5 186.999 46.5c75.333 0 141 -14 197 -42l-36 -76c-22 10 -46.5 19 -73.5 27s-56.5 12 -88.5 12zM383.002 915
c13.333 0 25.166 -4.5 35.499 -13.5s15.5 -23.167 15.5 -42.5s-5.16699 -33.5 -15.5 -42.5s-22.166 -13.5 -35.499 -13.5c-14.667 0 -27 4.5 -37 13.5s-15 23.167 -15 42.5s5 33.5 15 42.5s22.333 13.5 37 13.5z" />
    <glyph glyph-name="cdot" unicode="&#x10b;" horiz-adv-x="480" 
d="M300 -10c-48 0 -90.3359 9.66797 -127.003 29.001s-65.5 49.333 -86.5 90s-31.5 92.667 -31.5 156c0 66 10.833 119.667 32.5 161s51.5 71.666 89.5 90.999s81 29 129 29c26.667 0 52.834 -2.83301 78.501 -8.5s46.5 -12.5 62.5 -20.5l-27 -73
c-16 6 -34.667 11.667 -56 17s-41.333 8 -60 8c-105.333 0 -158 -67.667 -158 -203c0 -64.667 12.833 -114.167 38.5 -148.5s63.834 -51.5 114.501 -51.5c28.667 0 54.334 3 77.001 9s43.334 13.333 62.001 22v-78c-18 -9.33301 -37.833 -16.5 -59.5 -21.5
s-47.834 -7.5 -78.501 -7.5zM286.997 737.001c13.333 0 25.166 -4.5 35.499 -13.5s15.5 -23.167 15.5 -42.5s-5.16699 -33.5 -15.5 -42.5s-22.166 -13.5 -35.499 -13.5c-14.667 0 -27 4.5 -37 13.5s-15 23.167 -15 42.5s5 33.5 15 42.5s22.333 13.5 37 13.5z" />
    <glyph glyph-name="Ccaron" unicode="&#x10c;" horiz-adv-x="632" 
d="M403 645c-76.667 0 -136.998 -25.667 -180.998 -77s-66 -121.666 -66 -210.999c0 -88.667 20.5 -158.834 61.5 -210.501s102.5 -77.5 184.5 -77.5c30.667 0 60 2.66699 88 8s55.667 12 83 20v-78c-26.667 -10 -54.167 -17.333 -82.5 -22s-62.166 -7 -101.499 -7
c-72.667 0 -133.334 15 -182.001 45s-85.167 72.667 -109.5 128s-36.5 120.333 -36.5 195c0 72 13.167 135.5 39.5 190.5s65.166 98 116.499 129s113.666 46.5 186.999 46.5c75.333 0 141 -14 197 -42l-36 -76c-22 10 -46.5 19 -73.5 27s-56.5 12 -88.5 12zM334.002 784
c-8.66699 14.667 -20.334 31 -35.001 49s-30 35.667 -46 53l-42 45v13h60c17.333 -11.333 35.333 -25 54 -41s36.334 -33 53.001 -51c18 18 36.333 35 55 51s36.667 29.667 54 41h62v-13l-43.5 -45c-16.333 -17.333 -32 -35 -47 -53s-26.5 -34.333 -34.5 -49h-90z" />
    <glyph glyph-name="ccaron" unicode="&#x10d;" horiz-adv-x="480" 
d="M300 -10c-48 0 -90.3359 9.66797 -127.003 29.001s-65.5 49.333 -86.5 90s-31.5 92.667 -31.5 156c0 66 10.833 119.667 32.5 161s51.5 71.666 89.5 90.999s81 29 129 29c26.667 0 52.834 -2.83301 78.501 -8.5s46.5 -12.5 62.5 -20.5l-27 -73
c-16 6 -34.667 11.667 -56 17s-41.333 8 -60 8c-105.333 0 -158 -67.667 -158 -203c0 -64.667 12.833 -114.167 38.5 -148.5s63.834 -51.5 114.501 -51.5c28.667 0 54.334 3 77.001 9s43.334 13.333 62.001 22v-78c-18 -9.33301 -37.833 -16.5 -59.5 -21.5
s-47.834 -7.5 -78.501 -7.5zM237.997 606.001c-8.66699 14.667 -20.334 31 -35.001 49s-30 35.667 -46 53l-42 45v13h60c17.333 -11.333 35.333 -25 54 -41s36.334 -33 53.001 -51c18 18 36.333 35 55 51s36.667 29.667 54 41h62v-13l-43.5 -45
c-16.333 -17.333 -32 -35 -47 -53s-26.5 -34.333 -34.5 -49h-90z" />
    <glyph glyph-name="Dcaron" unicode="&#x10e;" horiz-adv-x="730" 
d="M669 364c0 -120.667 -32.833 -211.5 -98.5 -272.5s-157.167 -91.5 -274.5 -91.5h-199v714h220c71.333 0 133.5 -13.333 186.5 -40s93.833 -66 122.5 -118s43 -116 43 -192zM574 361c0 95.333 -23.5 165.167 -70.5 209.5s-113.5 66.5 -199.5 66.5h-117v-560h97
c193.333 0 290 94.667 290 284zM315 784.001c-8.66699 14.667 -20.334 31 -35.001 49s-30 35.667 -46 53l-42 45v13h60c17.333 -11.333 35.333 -25 54 -41s36.334 -33 53.001 -51c18 18 36.333 35 55 51s36.667 29.667 54 41h62v-13l-43.5 -45
c-16.333 -17.333 -32 -35 -47 -53s-26.5 -34.333 -34.5 -49h-90z" />
    <glyph glyph-name="dcaron" unicode="&#x10f;" horiz-adv-x="615" 
d="M275 -10c-66.667 0 -120 23.167 -160 69.5s-60 115.5 -60 207.5s20.167 161.5 60.5 208.5s93.833 70.5 160.5 70.5c41.333 0 75.166 -7.66699 101.499 -23s47.833 -34 64.5 -56h6c-1.33301 8.66699 -2.66602 21.5 -3.99902 38.5s-2 30.5 -2 40.5v214h88v-760h-71l-13 72
h-4c-16 -22.667 -37.333 -42 -64 -58s-61 -24 -103 -24zM289 63c56.667 0 96.5 15.499 119.5 46.499s34.5 77.833 34.5 140.5v16c0 66.667 -11 117.834 -33 153.501s-62.667 53.5 -122 53.5c-47.333 0 -82.833 -18.833 -106.5 -56.5s-35.5 -88.167 -35.5 -151.5
c0 -64 11.833 -113.667 35.5 -149s59.5 -53 107.5 -53zM688 759.999l0.000976562 -9.00098c-2.66699 -12 -7.83398 -27 -15.501 -45s-16.5 -36.5 -26.5 -55.5s-20 -35.833 -30 -50.5h-48v12c4 12.667 8.33301 27.834 13 45.501s8.66699 35.5 12 53.5s6 34.333 8 49h87z" />
    <glyph glyph-name="Dcroat" unicode="&#x110;" horiz-adv-x="730" 
d="M317 714c71.333 0 133.333 -13.333 186 -40s93.5 -66 122.5 -118s43.5 -116 43.5 -192c0 -120.667 -32.833 -211.5 -98.5 -272.5s-157.5 -91.5 -275.5 -91.5h-191v314h-74v78h74v322h213zM304 637l-110.001 0.000976562v-245h178v-78h-178v-237h90
c193.333 0 290 94.667 290 284c0 95.333 -23.667 165.166 -71 209.499s-113.666 66.5 -198.999 66.5z" />
    <glyph glyph-name="dcroat" unicode="&#x111;" horiz-adv-x="617" 
d="M275 -10c-67.333 0 -120.834 23 -160.501 69s-59.5 114.667 -59.5 206c0 93.333 20.167 163 60.5 209s93.5 69 159.5 69c42 0 76.167 -7.66699 102.5 -23s47.833 -34 64.5 -56h6c-1.33301 8.66699 -2.66602 21.5 -3.99902 38.5s-2 30.833 -2 41.5v61h-213v66h213v89h88
v-89h76v-66h-76v-605h-72l-13 72h-4c-16 -22.667 -37.333 -42 -64 -58s-60.667 -24 -102 -24zM289.999 63c56 0 95.499 15.333 118.499 46s34.5 77 34.5 139v17c0 67.333 -11 118.333 -33 153s-62.667 52 -122 52c-47.333 0 -82.666 -18.333 -105.999 -55s-35 -87 -35 -151
s11.667 -113.5 35 -148.5s59.333 -52.5 108 -52.5z" />
    <glyph glyph-name="Emacron" unicode="&#x112;" horiz-adv-x="556" 
d="M496 0h-399v714h399v-79h-309v-223h291v-78h-291v-255h309v-79zM453 855v-71h-297v71h297z" />
    <glyph glyph-name="emacron" unicode="&#x113;" horiz-adv-x="564" 
d="M292 546c45.333 0 84.668 -10 118.001 -30s58.833 -48.167 76.5 -84.5s26.5 -78.833 26.5 -127.5v-53h-367c1.33301 -60.667 16.833 -106.834 46.5 -138.501s71.167 -47.5 124.5 -47.5c34 0 64.167 3.16699 90.5 9.5s53.5 15.5 81.5 27.5v-77
c-27.333 -12 -54.333 -20.833 -81 -26.5s-58.334 -8.5 -95.001 -8.5c-51.333 0 -96.333 10.333 -135 31s-68.834 51.334 -90.501 92.001s-32.5 91 -32.5 151c0 58.667 9.83301 109 29.5 151s47.334 74.333 83.001 97s77.167 34 124.5 34zM291.002 474
c-42 0 -75.165 -13.499 -99.498 -40.499s-38.833 -64.5 -43.5 -112.5h273c-0.666992 45.333 -11.334 82.166 -32.001 110.499s-53.334 42.5 -98.001 42.5zM433.004 677.001v-71h-297v71h297z" />
    <glyph glyph-name="Ebreve" unicode="&#x114;" horiz-adv-x="556" 
d="M496 0h-399v714h399v-79h-309v-223h291v-78h-291v-255h309v-79zM465 918c-3.33301 -40 -18.5 -72.334 -45.5 -97.001s-64.5 -37 -112.5 -37c-49.333 0 -86.5 12 -111.5 36s-38.833 56.667 -41.5 98h54c2.66699 -27.333 12.5 -44.666 29.5 -51.999s40.833 -11 71.5 -11
c26 0 48.5 4 67.5 12s30.167 25 33.5 51h55z" />
    <glyph glyph-name="ebreve" unicode="&#x115;" horiz-adv-x="564" 
d="M292 546c45.333 0 84.668 -10 118.001 -30s58.833 -48.167 76.5 -84.5s26.5 -78.833 26.5 -127.5v-53h-367c1.33301 -60.667 16.833 -106.834 46.5 -138.501s71.167 -47.5 124.5 -47.5c34 0 64.167 3.16699 90.5 9.5s53.5 15.5 81.5 27.5v-77
c-27.333 -12 -54.333 -20.833 -81 -26.5s-58.334 -8.5 -95.001 -8.5c-51.333 0 -96.333 10.333 -135 31s-68.834 51.334 -90.501 92.001s-32.5 91 -32.5 151c0 58.667 9.83301 109 29.5 151s47.334 74.333 83.001 97s77.167 34 124.5 34zM291.002 474
c-42 0 -75.165 -13.499 -99.498 -40.499s-38.833 -64.5 -43.5 -112.5h273c-0.666992 45.333 -11.334 82.166 -32.001 110.499s-53.334 42.5 -98.001 42.5zM445.004 740.001c-3.33301 -40 -18.5 -72.334 -45.5 -97.001s-64.5 -37 -112.5 -37c-49.333 0 -86.5 12 -111.5 36
s-38.833 56.667 -41.5 98h54c2.66699 -27.333 12.5 -44.666 29.5 -51.999s40.833 -11 71.5 -11c26 0 48.5 4 67.5 12s30.167 25 33.5 51h55z" />
    <glyph glyph-name="Edotaccent" unicode="&#x116;" horiz-adv-x="556" 
d="M496 0h-399v714h399v-79h-309v-223h291v-78h-291v-255h309v-79zM308 915c13.333 0 25.166 -4.5 35.499 -13.5s15.5 -23.167 15.5 -42.5s-5.16699 -33.5 -15.5 -42.5s-22.166 -13.5 -35.499 -13.5c-14.667 0 -27 4.5 -37 13.5s-15 23.167 -15 42.5s5 33.5 15 42.5
s22.333 13.5 37 13.5z" />
    <glyph glyph-name="edotaccent" unicode="&#x117;" horiz-adv-x="564" 
d="M292 546c45.333 0 84.668 -10 118.001 -30s58.833 -48.167 76.5 -84.5s26.5 -78.833 26.5 -127.5v-53h-367c1.33301 -60.667 16.833 -106.834 46.5 -138.501s71.167 -47.5 124.5 -47.5c34 0 64.167 3.16699 90.5 9.5s53.5 15.5 81.5 27.5v-77
c-27.333 -12 -54.333 -20.833 -81 -26.5s-58.334 -8.5 -95.001 -8.5c-51.333 0 -96.333 10.333 -135 31s-68.834 51.334 -90.501 92.001s-32.5 91 -32.5 151c0 58.667 9.83301 109 29.5 151s47.334 74.333 83.001 97s77.167 34 124.5 34zM291.002 474
c-42 0 -75.165 -13.499 -99.498 -40.499s-38.833 -64.5 -43.5 -112.5h273c-0.666992 45.333 -11.334 82.166 -32.001 110.499s-53.334 42.5 -98.001 42.5zM288.004 737.001c13.333 0 25.166 -4.5 35.499 -13.5s15.5 -23.167 15.5 -42.5s-5.16699 -33.5 -15.5 -42.5
s-22.166 -13.5 -35.499 -13.5c-14.667 0 -27 4.5 -37 13.5s-15 23.167 -15 42.5s5 33.5 15 42.5s22.333 13.5 37 13.5z" />
    <glyph glyph-name="Eogonek" unicode="&#x118;" horiz-adv-x="556" 
d="M496 0h-399v714h399v-79h-309v-223h291v-78h-291v-255h309v-79zM398 -116c0 -30 15.002 -44.999 45.002 -44.999c11.333 0 20.833 0.833008 28.5 2.5s14.167 2.83398 19.5 3.50098v-56c-9.33301 -2.66699 -18.833 -4.83398 -28.5 -6.50098s-20.834 -2.5 -33.501 -2.5
c-35.333 0 -61.333 8.33301 -78 25s-25 39.667 -25 69c0 18.667 4.83301 37.167 14.5 55.5s21.667 34.833 36 49.5s28.166 26.667 41.499 36l48 -15c-22.667 -21.333 -39.667 -40.833 -51 -58.5s-17 -36.834 -17 -57.501z" />
    <glyph glyph-name="eogonek" unicode="&#x119;" horiz-adv-x="564" 
d="M389 -116c0 -30 14.9961 -45 44.9961 -45c10.667 0 20 0.833008 28 2.5s14.667 2.83398 20 3.50098v-56c-9.33301 -2.66699 -18.666 -4.83398 -27.999 -6.50098s-20.666 -2.5 -33.999 -2.5c-35.333 0 -61.333 8.33301 -78 25s-25 39.667 -25 69
c0 22.667 6.83301 44.5 20.5 65.5s28.834 39.167 45.501 54.5c-20.667 -2.66699 -44 -4 -70 -4c-51.333 0 -96.333 10.333 -135 31s-68.834 51.334 -90.501 92.001s-32.5 91 -32.5 151c0 58.667 9.83301 109 29.5 151s47.334 74.333 83.001 97s77.167 34 124.5 34
c45.333 0 84.666 -10 117.999 -30s58.833 -48.167 76.5 -84.5s26.5 -78.833 26.5 -127.5v-53h-367c1.33301 -60.667 16.833 -106.834 46.5 -138.501s71.167 -47.5 124.5 -47.5c34 0 64.167 3.16699 90.5 9.5s53.5 15.5 81.5 27.5v-77
c-27.333 -21.333 -48.166 -40 -62.499 -56s-24.166 -30.833 -29.499 -44.5s-8 -27.167 -8 -40.5zM290.996 474c-42 0 -75.165 -13.499 -99.498 -40.499s-38.833 -64.5 -43.5 -112.5h273c-0.666992 45.333 -11.334 82.166 -32.001 110.499s-53.334 42.5 -98.001 42.5z" />
    <glyph glyph-name="Ecaron" unicode="&#x11a;" horiz-adv-x="556" 
d="M496 0h-399v714h399v-79h-309v-223h291v-78h-291v-255h309v-79zM259 784c-8.66699 14.667 -20.334 31 -35.001 49s-30 35.667 -46 53l-42 45v13h60c17.333 -11.333 35.333 -25 54 -41s36.334 -33 53.001 -51c18 18 36.333 35 55 51s36.667 29.667 54 41h62v-13l-43.5 -45
c-16.333 -17.333 -32 -35 -47 -53s-26.5 -34.333 -34.5 -49h-90z" />
    <glyph glyph-name="ecaron" unicode="&#x11b;" horiz-adv-x="564" 
d="M292 546c45.333 0 84.668 -10 118.001 -30s58.833 -48.167 76.5 -84.5s26.5 -78.833 26.5 -127.5v-53h-367c1.33301 -60.667 16.833 -106.834 46.5 -138.501s71.167 -47.5 124.5 -47.5c34 0 64.167 3.16699 90.5 9.5s53.5 15.5 81.5 27.5v-77
c-27.333 -12 -54.333 -20.833 -81 -26.5s-58.334 -8.5 -95.001 -8.5c-51.333 0 -96.333 10.333 -135 31s-68.834 51.334 -90.501 92.001s-32.5 91 -32.5 151c0 58.667 9.83301 109 29.5 151s47.334 74.333 83.001 97s77.167 34 124.5 34zM291.002 474
c-42 0 -75.165 -13.499 -99.498 -40.499s-38.833 -64.5 -43.5 -112.5h273c-0.666992 45.333 -11.334 82.166 -32.001 110.499s-53.334 42.5 -98.001 42.5zM239.004 606.001c-8.66699 14.667 -20.334 31 -35.001 49s-30 35.667 -46 53l-42 45v13h60
c17.333 -11.333 35.333 -25 54 -41s36.334 -33 53.001 -51c18 18 36.333 35 55 51s36.667 29.667 54 41h62v-13l-43.5 -45c-16.333 -17.333 -32 -35 -47 -53s-26.5 -34.333 -34.5 -49h-90z" />
    <glyph glyph-name="Gcircumflex" unicode="&#x11c;" horiz-adv-x="728" 
d="M407 377l247 0.000976562v-350c-38.667 -12.667 -77.667 -22 -117 -28s-84 -9 -134 -9c-74 0 -136.333 14.833 -187 44.5s-89.167 72 -115.5 127s-39.5 120.167 -39.5 195.5c0 74 14.5 138.5 43.5 193.5s71.167 97.667 126.5 128s122 45.5 200 45.5
c40 0 77.833 -3.66699 113.5 -11s68.834 -17.666 99.501 -30.999l-34 -78c-25.333 10.667 -53.833 20.167 -85.5 28.5s-64.5 12.5 -98.5 12.5c-85.333 0 -151.833 -25.833 -199.5 -77.5s-71.5 -121.834 -71.5 -210.501c0 -56.667 9.16699 -106.834 27.5 -150.501
s47.166 -77.667 86.499 -102s91 -36.5 155 -36.5c31.333 0 58 1.66699 80 5s42 7.33301 60 12v212h-157v80zM451 944.001c8 -14.667 19.499 -31.167 34.499 -49.5s30.667 -36.333 47 -54l43.5 -45.5v-11h-62c-17.333 10.667 -35.333 23.834 -54 39.501s-37 32.5 -55 50.5
c-18 -18 -36 -34.833 -54 -50.5s-35.667 -28.834 -53 -39.501h-60v11l42 45.5c16 17.667 31.333 35.667 46 54s26.334 34.833 35.001 49.5h90z" />
    <glyph glyph-name="gcircumflex" unicode="&#x11d;" horiz-adv-x="615" 
d="M275 546c35.333 0 67.166 -6.66602 95.499 -19.999s52.5 -33.666 72.5 -60.999h5l12 71h70v-545c0 -76.667 -19.5 -134.334 -58.5 -173.001s-99.5 -58 -181.5 -58c-78.667 0 -143 11.333 -193 34v81c52.667 -28 118.667 -42 198 -42c46 0 82.167 13.5 108.5 40.5
s39.5 63.833 39.5 110.5v21c0 8 0.333008 19.5 1 34.5s1.33398 25.5 2.00098 31.5h-4c-36 -54 -91.333 -81 -166 -81c-69.333 0 -123.5 24.333 -162.5 73s-58.5 116.667 -58.5 204c0 85.333 19.5 153.166 58.5 203.499s92.833 75.5 161.5 75.5zM287 472.001
c-44.667 0 -79.333 -17.833 -104 -53.5s-37 -86.5 -37 -152.5s12 -116.5 36 -151.5s59.667 -52.5 107 -52.5c54 0 93.333 14.5 118 43.5s37 75.833 37 140.5v21c0 72.667 -12.667 125 -38 157s-65 48 -119 48zM343.001 766.001c8 -14.667 19.499 -31.167 34.499 -49.5
s30.667 -36.333 47 -54l43.5 -45.5v-11h-62c-17.333 10.667 -35.333 23.834 -54 39.501s-37 32.5 -55 50.5c-18 -18 -36 -34.833 -54 -50.5s-35.667 -28.834 -53 -39.501h-60v11l42 45.5c16 17.667 31.333 35.667 46 54s26.334 34.833 35.001 49.5h90z" />
    <glyph glyph-name="Gbreve" unicode="&#x11e;" horiz-adv-x="728" 
d="M407 377l247 0.000976562v-350c-38.667 -12.667 -77.667 -22 -117 -28s-84 -9 -134 -9c-74 0 -136.333 14.833 -187 44.5s-89.167 72 -115.5 127s-39.5 120.167 -39.5 195.5c0 74 14.5 138.5 43.5 193.5s71.167 97.667 126.5 128s122 45.5 200 45.5
c40 0 77.833 -3.66699 113.5 -11s68.834 -17.666 99.501 -30.999l-34 -78c-25.333 10.667 -53.833 20.167 -85.5 28.5s-64.5 12.5 -98.5 12.5c-85.333 0 -151.833 -25.833 -199.5 -77.5s-71.5 -121.834 -71.5 -210.501c0 -56.667 9.16699 -106.834 27.5 -150.501
s47.166 -77.667 86.499 -102s91 -36.5 155 -36.5c31.333 0 58 1.66699 80 5s42 7.33301 60 12v212h-157v80zM565 918.001c-3.33301 -40 -18.5 -72.334 -45.5 -97.001s-64.5 -37 -112.5 -37c-49.333 0 -86.5 12 -111.5 36s-38.833 56.667 -41.5 98h54
c2.66699 -27.333 12.5 -44.666 29.5 -51.999s40.833 -11 71.5 -11c26 0 48.5 4 67.5 12s30.167 25 33.5 51h55z" />
    <glyph glyph-name="gbreve" unicode="&#x11f;" horiz-adv-x="615" 
d="M275 546c35.333 0 67.166 -6.66602 95.499 -19.999s52.5 -33.666 72.5 -60.999h5l12 71h70v-545c0 -76.667 -19.5 -134.334 -58.5 -173.001s-99.5 -58 -181.5 -58c-78.667 0 -143 11.333 -193 34v81c52.667 -28 118.667 -42 198 -42c46 0 82.167 13.5 108.5 40.5
s39.5 63.833 39.5 110.5v21c0 8 0.333008 19.5 1 34.5s1.33398 25.5 2.00098 31.5h-4c-36 -54 -91.333 -81 -166 -81c-69.333 0 -123.5 24.333 -162.5 73s-58.5 116.667 -58.5 204c0 85.333 19.5 153.166 58.5 203.499s92.833 75.5 161.5 75.5zM287 472.001
c-44.667 0 -79.333 -17.833 -104 -53.5s-37 -86.5 -37 -152.5s12 -116.5 36 -151.5s59.667 -52.5 107 -52.5c54 0 93.333 14.5 118 43.5s37 75.833 37 140.5v21c0 72.667 -12.667 125 -38 157s-65 48 -119 48zM457.001 740.001c-3.33301 -40 -18.5 -72.334 -45.5 -97.001
s-64.5 -37 -112.5 -37c-49.333 0 -86.5 12 -111.5 36s-38.833 56.667 -41.5 98h54c2.66699 -27.333 12.5 -44.666 29.5 -51.999s40.833 -11 71.5 -11c26 0 48.5 4 67.5 12s30.167 25 33.5 51h55z" />
    <glyph glyph-name="Gdot" unicode="&#x120;" horiz-adv-x="728" 
d="M407 377l247 0.000976562v-350c-38.667 -12.667 -77.667 -22 -117 -28s-84 -9 -134 -9c-74 0 -136.333 14.833 -187 44.5s-89.167 72 -115.5 127s-39.5 120.167 -39.5 195.5c0 74 14.5 138.5 43.5 193.5s71.167 97.667 126.5 128s122 45.5 200 45.5
c40 0 77.833 -3.66699 113.5 -11s68.834 -17.666 99.501 -30.999l-34 -78c-25.333 10.667 -53.833 20.167 -85.5 28.5s-64.5 12.5 -98.5 12.5c-85.333 0 -151.833 -25.833 -199.5 -77.5s-71.5 -121.834 -71.5 -210.501c0 -56.667 9.16699 -106.834 27.5 -150.501
s47.166 -77.667 86.499 -102s91 -36.5 155 -36.5c31.333 0 58 1.66699 80 5s42 7.33301 60 12v212h-157v80zM408 915.001c13.333 0 25.166 -4.5 35.499 -13.5s15.5 -23.167 15.5 -42.5s-5.16699 -33.5 -15.5 -42.5s-22.166 -13.5 -35.499 -13.5c-14.667 0 -27 4.5 -37 13.5
s-15 23.167 -15 42.5s5 33.5 15 42.5s22.333 13.5 37 13.5z" />
    <glyph glyph-name="gdot" unicode="&#x121;" horiz-adv-x="615" 
d="M275 546c35.333 0 67.166 -6.66602 95.499 -19.999s52.5 -33.666 72.5 -60.999h5l12 71h70v-545c0 -76.667 -19.5 -134.334 -58.5 -173.001s-99.5 -58 -181.5 -58c-78.667 0 -143 11.333 -193 34v81c52.667 -28 118.667 -42 198 -42c46 0 82.167 13.5 108.5 40.5
s39.5 63.833 39.5 110.5v21c0 8 0.333008 19.5 1 34.5s1.33398 25.5 2.00098 31.5h-4c-36 -54 -91.333 -81 -166 -81c-69.333 0 -123.5 24.333 -162.5 73s-58.5 116.667 -58.5 204c0 85.333 19.5 153.166 58.5 203.499s92.833 75.5 161.5 75.5zM287 472.001
c-44.667 0 -79.333 -17.833 -104 -53.5s-37 -86.5 -37 -152.5s12 -116.5 36 -151.5s59.667 -52.5 107 -52.5c54 0 93.333 14.5 118 43.5s37 75.833 37 140.5v21c0 72.667 -12.667 125 -38 157s-65 48 -119 48zM300.001 737.001c13.333 0 25.166 -4.5 35.499 -13.5
s15.5 -23.167 15.5 -42.5s-5.16699 -33.5 -15.5 -42.5s-22.166 -13.5 -35.499 -13.5c-14.667 0 -27 4.5 -37 13.5s-15 23.167 -15 42.5s5 33.5 15 42.5s22.333 13.5 37 13.5z" />
    <glyph glyph-name="uni0122" unicode="&#x122;" horiz-adv-x="728" 
d="M407 377l247 0.000976562v-350c-38.667 -12.667 -77.667 -22 -117 -28s-84 -9 -134 -9c-74 0 -136.333 14.833 -187 44.5s-89.167 72 -115.5 127s-39.5 120.167 -39.5 195.5c0 74 14.5 138.5 43.5 193.5s71.167 97.667 126.5 128s122 45.5 200 45.5
c40 0 77.833 -3.66699 113.5 -11s68.834 -17.666 99.501 -30.999l-34 -78c-25.333 10.667 -53.833 20.167 -85.5 28.5s-64.5 12.5 -98.5 12.5c-85.333 0 -151.833 -25.833 -199.5 -77.5s-71.5 -121.834 -71.5 -210.501c0 -56.667 9.16699 -106.834 27.5 -150.501
s47.166 -77.667 86.499 -102s91 -36.5 155 -36.5c31.333 0 58 1.66699 80 5s42 7.33301 60 12v212h-157v80zM466 -60.999v-9c-3.33301 -12 -9 -27.167 -17 -45.5s-17.5 -37 -28.5 -56s-22.5 -35.5 -34.5 -49.5h-48v12c4.66699 11.333 10 25.833 16 43.5s11.333 36 16 55
s7.66699 35.5 9 49.5h87z" />
    <glyph glyph-name="uni0123" unicode="&#x123;" horiz-adv-x="615" 
d="M275 546c35.333 0 67.166 -6.66602 95.499 -19.999s52.5 -33.666 72.5 -60.999h5l12 71h70v-545c0 -76.667 -19.5 -134.334 -58.5 -173.001s-99.5 -58 -181.5 -58c-78.667 0 -143 11.333 -193 34v81c52.667 -28 118.667 -42 198 -42c46 0 82.167 13.5 108.5 40.5
s39.5 63.833 39.5 110.5v21c0 8 0.333008 19.5 1 34.5s1.33398 25.5 2.00098 31.5h-4c-36 -54 -91.333 -81 -166 -81c-69.333 0 -123.5 24.333 -162.5 73s-58.5 116.667 -58.5 204c0 85.333 19.5 153.166 58.5 203.499s92.833 75.5 161.5 75.5zM287 472.001
c-44.667 0 -79.333 -17.833 -104 -53.5s-37 -86.5 -37 -152.5s12 -116.5 36 -151.5s59.667 -52.5 107 -52.5c54 0 93.333 14.5 118 43.5s37 75.833 37 140.5v21c0 72.667 -12.667 125 -38 157s-65 48 -119 48zM363.001 766.001l0.000976562 -11.998
c-5.33301 -11.333 -10.833 -25.833 -16.5 -43.5s-10.834 -35.834 -15.501 -54.501s-8 -35.334 -10 -50.001h-87v9c3.33301 12 9 27 17 45s17.5 36.5 28.5 55.5s22.5 35.833 34.5 50.5h49z" />
    <glyph glyph-name="Hcircumflex" unicode="&#x124;" horiz-adv-x="741" 
d="M643 0h-90v333h-366v-333h-90v714h90v-302h366v302h90v-714zM417 944c8 -14.667 19.499 -31.167 34.499 -49.5s30.667 -36.333 47 -54l43.5 -45.5v-11h-62c-17.333 10.667 -35.333 23.834 -54 39.501s-37 32.5 -55 50.5c-18 -18 -36 -34.833 -54 -50.5
s-35.667 -28.834 -53 -39.501h-60v11l42 45.5c16 17.667 31.333 35.667 46 54s26.334 34.833 35.001 49.5h90z" />
    <glyph glyph-name="hcircumflex" unicode="&#x125;" horiz-adv-x="618" 
d="M173 760l-0.000976562 -222.999c0 -26.667 -1.66699 -51.667 -5 -75h6c17.333 27.333 40.833 48 70.5 62s61.834 21 96.501 21c64.667 0 113.5 -15.5 146.5 -46.5s49.5 -80.833 49.5 -149.5v-349h-87v343c0 86 -40 129 -120 129c-60 0 -101.167 -16.833 -123.5 -50.5
s-33.5 -81.834 -33.5 -144.501v-277h-88v760h88zM175.999 990.001c8 -14.667 19.499 -31.167 34.499 -49.5s30.667 -36.333 47 -54l43.5 -45.5v-11h-62c-17.333 10.667 -35.333 23.834 -54 39.501s-37 32.5 -55 50.5c-18 -18 -36 -34.833 -54 -50.5
s-35.667 -28.834 -53 -39.501h-60v11l42 45.5c16 17.667 31.333 35.667 46 54s26.334 34.833 35.001 49.5h90z" />
    <glyph glyph-name="Hbar" unicode="&#x126;" horiz-adv-x="741" 
d="M97 0v523h-97v72h97v119h90v-119h366v119h90v-119h97v-72h-97v-523h-90v333h-366v-333h-90zM187 412h366v111h-366v-111z" />
    <glyph glyph-name="hbar" unicode="&#x127;" horiz-adv-x="618" 
d="M173 760l-0.000976562 -90h212v-66h-212v-87c0 -12.667 -0.5 -25.5 -1.5 -38.5s-2.16699 -24.833 -3.5 -35.5h6c17.333 27.333 41 48 71 62s62.333 21 97 21c64.667 0 113.334 -15.667 146.001 -47s49 -81.333 49 -150v-329h-87v323c0 86 -40 129 -120 129
c-60 0 -101.167 -16.667 -123.5 -50s-33.5 -81.333 -33.5 -144v-258h-88v604h-76v66h76v90h88z" />
    <glyph glyph-name="Itilde" unicode="&#x128;" horiz-adv-x="339" 
d="M298 0h-258v52l84 19v571l-84 20v52h258v-52l-84 -20v-571l84 -19v-52zM-14 784c4 39.333 15.502 70.5 34.502 93.5s44.167 34.5 75.5 34.5c20 0 38.833 -4.83301 56.5 -14.5l50.5 -28.5c16 -9.33301 31 -14 45 -14c15.333 0 27.166 4.83301 35.499 14.5
s14.833 24.167 19.5 43.5h50c-4 -39.333 -15.333 -70.5 -34 -93.5s-43.667 -34.5 -75 -34.5c-18.667 0 -36.834 4.66699 -54.501 14s-34.667 18.833 -51 28.5s-31.833 14.5 -46.5 14.5c-16 0 -28 -4.83301 -36 -14.5s-14.333 -24.167 -19 -43.5h-51z" />
    <glyph glyph-name="itilde" unicode="&#x129;" horiz-adv-x="258" 
d="M173 0h-88v536h88v-536zM-55 606c4 39.333 15.502 70.5 34.502 93.5s44.167 34.5 75.5 34.5c20 0 38.833 -4.83301 56.5 -14.5l50.5 -28.5c16 -9.33301 31 -14 45 -14c15.333 0 27.166 4.83301 35.499 14.5s14.833 24.167 19.5 43.5h50
c-4 -39.333 -15.333 -70.5 -34 -93.5s-43.667 -34.5 -75 -34.5c-18.667 0 -36.834 4.66699 -54.501 14s-34.667 18.833 -51 28.5s-31.833 14.5 -46.5 14.5c-16 0 -28 -4.83301 -36 -14.5s-14.333 -24.167 -19 -43.5h-51z" />
    <glyph glyph-name="Imacron" unicode="&#x12a;" horiz-adv-x="339" 
d="M298 0h-258v52l84 19v571l-84 20v52h258v-52l-84 -20v-571l84 -19v-52zM318 855v-71h-297v71h297z" />
    <glyph glyph-name="imacron" unicode="&#x12b;" horiz-adv-x="258" 
d="M173 0h-88v536h88v-536zM277 677v-71h-297v71h297z" />
    <glyph glyph-name="Ibreve" unicode="&#x12c;" horiz-adv-x="339" 
d="M298 0h-258v52l84 19v571l-84 20v52h258v-52l-84 -20v-571l84 -19v-52zM330 918c-3.33301 -40 -18.5 -72.334 -45.5 -97.001s-64.5 -37 -112.5 -37c-49.333 0 -86.5 12 -111.5 36s-38.833 56.667 -41.5 98h54c2.66699 -27.333 12.5 -44.666 29.5 -51.999
s40.833 -11 71.5 -11c26 0 48.5 4 67.5 12s30.167 25 33.5 51h55z" />
    <glyph glyph-name="ibreve" unicode="&#x12d;" horiz-adv-x="258" 
d="M173 0h-88v536h88v-536zM289 740c-3.33301 -40 -18.5 -72.334 -45.5 -97.001s-64.5 -37 -112.5 -37c-49.333 0 -86.5 12 -111.5 36s-38.833 56.667 -41.5 98h54c2.66699 -27.333 12.5 -44.666 29.5 -51.999s40.833 -11 71.5 -11c26 0 48.5 4 67.5 12s30.167 25 33.5 51
h55z" />
    <glyph glyph-name="Iogonek" unicode="&#x12e;" horiz-adv-x="339" 
d="M298 0h-258v52l84 19v571l-84 20v52h258v-52l-84 -20v-571l84 -19v-52zM204 -116c0 -30 15.002 -44.999 45.002 -44.999c11.333 0 20.833 0.833008 28.5 2.5s14.167 2.83398 19.5 3.50098v-56c-9.33301 -2.66699 -18.833 -4.83398 -28.5 -6.50098
s-20.834 -2.5 -33.501 -2.5c-35.333 0 -61.333 8.33301 -78 25s-25 39.667 -25 69c0 18.667 4.83301 37.167 14.5 55.5s21.667 34.833 36 49.5s28.166 26.667 41.499 36l48 -15c-22.667 -21.333 -39.667 -40.833 -51 -58.5s-17 -36.834 -17 -57.501z" />
    <glyph glyph-name="iogonek" unicode="&#x12f;" horiz-adv-x="258" 
d="M130 737c13.333 0 25.166 -4.5 35.499 -13.5s15.5 -23.167 15.5 -42.5s-5.16699 -33.5 -15.5 -42.5s-22.166 -13.5 -35.499 -13.5c-14.667 0 -27 4.5 -37 13.5s-15 23.167 -15 42.5s5 33.5 15 42.5s22.333 13.5 37 13.5zM173 536v-536h-88v536h88zM99 -116
c0 -30 15.002 -44.999 45.002 -44.999c11.333 0 20.833 0.833008 28.5 2.5s14.167 2.83398 19.5 3.50098v-56c-9.33301 -2.66699 -18.833 -4.83398 -28.5 -6.50098s-20.834 -2.5 -33.501 -2.5c-35.333 0 -61.333 8.33301 -78 25s-25 39.667 -25 69
c0 18.667 4.83301 37.167 14.5 55.5s21.667 34.833 36 49.5s28.166 26.667 41.499 36l48 -15c-22.667 -21.333 -39.667 -40.833 -51 -58.5s-17 -36.834 -17 -57.501z" />
    <glyph glyph-name="Idotaccent" unicode="&#x130;" horiz-adv-x="339" 
d="M298 0h-258v52l84 19v571l-84 20v52h258v-52l-84 -20v-571l84 -19v-52zM173 915c13.333 0 25.166 -4.5 35.499 -13.5s15.5 -23.167 15.5 -42.5s-5.16699 -33.5 -15.5 -42.5s-22.166 -13.5 -35.499 -13.5c-14.667 0 -27 4.5 -37 13.5s-15 23.167 -15 42.5s5 33.5 15 42.5
s22.333 13.5 37 13.5z" />
    <glyph glyph-name="dotlessi" unicode="&#x131;" horiz-adv-x="258" 
d="M173 0h-88v536h88v-536z" />
    <glyph glyph-name="IJ" unicode="&#x132;" horiz-adv-x="612" 
d="M298 0h-258v52l84 19v571l-84 20v52h258v-52l-84 -20v-571l84 -19v-52zM335 -190c-16 0 -30 1.16797 -42 3.50098s-22.667 5.5 -32 9.5v76c10.667 -3.33301 22 -5.83301 34 -7.5s24.667 -2.5 38 -2.5c16.667 0 32.5 3.33301 47.5 10s27.167 18.167 36.5 34.5
s14 39.833 14 70.5v710h90v-703c0 -68.667 -17 -119.334 -51 -152.001s-79 -49 -135 -49z" />
    <glyph glyph-name="ij" unicode="&#x133;" horiz-adv-x="516" 
d="M130 737c13.333 0 25.166 -4.5 35.499 -13.5s15.5 -23.167 15.5 -42.5s-5.16699 -33.5 -15.5 -42.5s-22.166 -13.5 -35.499 -13.5c-14.667 0 -27 4.5 -37 13.5s-15 23.167 -15 42.5s5 33.5 15 42.5s22.333 13.5 37 13.5zM173 536v-536h-88v536h88zM336 681
c0 19.333 5 33.5 15 42.5s22.333 13.5 37 13.5c13.333 0 25.166 -4.5 35.499 -13.5s15.5 -23.167 15.5 -42.5s-5.16699 -33.5 -15.5 -42.5s-22.166 -13.5 -35.499 -13.5c-14.667 0 -27 4.5 -37 13.5s-15 23.167 -15 42.5zM280 -240c-17.333 0 -32.333 1.16699 -45 3.5
s-23.334 5.16602 -32.001 8.49902v71c10 -3.33301 20.333 -5.83301 31 -7.5s22.334 -2.5 35.001 -2.5c21.333 0 39 5.83301 53 17.5s21 33.834 21 66.501v619h88v-616c0 -50 -12 -89.167 -36 -117.5s-62.333 -42.5 -115 -42.5z" />
    <glyph glyph-name="Jcircumflex" unicode="&#x134;" horiz-adv-x="273" 
d="M-4 -190c-16 0 -30 1.16797 -42 3.50098s-22.667 5.5 -32 9.5v76c10.667 -3.33301 22 -5.83301 34 -7.5s24.667 -2.5 38 -2.5c16.667 0 32.5 3.33301 47.5 10s27.167 18.167 36.5 34.5s14 39.833 14 70.5v710h90v-703c0 -68.667 -17 -119.334 -51 -152.001
s-79 -49 -135 -49zM183 944.001c8 -14.667 19.499 -31.167 34.499 -49.5s30.667 -36.333 47 -54l43.5 -45.5v-11h-62c-17.333 10.667 -35.333 23.834 -54 39.501s-37 32.5 -55 50.5c-18 -18 -36 -34.833 -54 -50.5s-35.667 -28.834 -53 -39.501h-60v11l42 45.5
c16 17.667 31.333 35.667 46 54s26.334 34.833 35.001 49.5h90z" />
    <glyph glyph-name="jcircumflex" unicode="&#x135;" horiz-adv-x="258" 
d="M22 -240c-17.333 0 -32.333 1.16699 -45 3.5s-23.334 5.16602 -32.001 8.49902v71c10 -3.33301 20.333 -5.83301 31 -7.5s22.334 -2.5 35.001 -2.5c21.333 0 39 5.83301 53 17.5s21 33.834 21 66.501v619h88v-616c0 -50 -12 -89.167 -36 -117.5s-62.333 -42.5 -115 -42.5
zM175 766c8 -14.667 19.499 -31.167 34.499 -49.5s30.667 -36.333 47 -54l43.5 -45.5v-11h-62c-17.333 10.667 -35.333 23.834 -54 39.501s-37 32.5 -55 50.5c-18 -18 -36 -34.833 -54 -50.5s-35.667 -28.834 -53 -39.501h-60v11l42 45.5c16 17.667 31.333 35.667 46 54
s26.334 34.833 35.001 49.5h90z" />
    <glyph glyph-name="uni0136" unicode="&#x136;" horiz-adv-x="619" 
d="M619 0h-106l-253 341l-73 -64v-277h-90v714h90v-352l61 68l62 68l193 216h105l-283 -311zM394 -61v-9c-3.33301 -12 -9 -27.167 -17 -45.5s-17.5 -37 -28.5 -56s-22.5 -35.5 -34.5 -49.5h-48v12c4.66699 11.333 10 25.833 16 43.5s11.333 36 16 55s7.66699 35.5 9 49.5
h87z" />
    <glyph glyph-name="uni0137" unicode="&#x137;" horiz-adv-x="534" 
d="M172 760v-397c0 -10.667 -0.5 -24.667 -1.5 -42s-1.83301 -32.333 -2.5 -45h4l18 23l24.5 30.5c8.33301 10.333 15.5 18.833 21.5 25.5l171 181h103l-217 -229l232 -307h-106l-186 250l-61 -53v-197h-87v760h87zM331 -61v-9c-3.33301 -12 -9 -27.167 -17 -45.5
s-17.5 -37 -28.5 -56s-22.5 -35.5 -34.5 -49.5h-48v12c4.66699 11.333 10 25.833 16 43.5s11.333 36 16 55s7.66699 35.5 9 49.5h87z" />
    <glyph glyph-name="kgreenlandic" unicode="&#x138;" horiz-adv-x="534" 
d="M509 536l-203.001 -237.001l219 -299h-105l-176 242l-66 -54v-188h-93v536h93v-139c0 -26.667 -0.666992 -52.667 -2 -78s-2.66602 -44.666 -3.99902 -57.999h2c6 8.66699 12.5 17.5 19.5 26.5l19.5 24.5l190 224h106z" />
    <glyph glyph-name="Lacute" unicode="&#x139;" horiz-adv-x="524" 
d="M97 0v714h90v-634h312v-80h-402zM281 944l0.000976562 -10c-8.66699 -12 -21.167 -27.5 -37.5 -46.5s-34 -38 -53 -57s-36.5 -34.5 -52.5 -46.5h-58v12c9.33301 12 20 26.833 32 44.5l35 54c11.333 18.333 20.666 34.833 27.999 49.5h106z" />
    <glyph glyph-name="lacute" unicode="&#x13a;" horiz-adv-x="258" 
d="M173 0h-88v760h88v-760zM270 990l0.000976562 -10c-8.66699 -12 -21.167 -27.5 -37.5 -46.5s-34 -38 -53 -57s-36.5 -34.5 -52.5 -46.5h-58v12c9.33301 12 20 26.833 32 44.5l35 54c11.333 18.333 20.666 34.833 27.999 49.5h106z" />
    <glyph glyph-name="uni013B" unicode="&#x13b;" horiz-adv-x="524" 
d="M97 0v714h90v-634h312v-80h-402zM364 -61v-9c-3.33301 -12 -9 -27.167 -17 -45.5s-17.5 -37 -28.5 -56s-22.5 -35.5 -34.5 -49.5h-48v12c4.66699 11.333 10 25.833 16 43.5s11.333 36 16 55s7.66699 35.5 9 49.5h87z" />
    <glyph glyph-name="uni013C" unicode="&#x13c;" horiz-adv-x="258" 
d="M173 0h-88v760h88v-760zM193 -61v-9c-3.33301 -12 -9 -27.167 -17 -45.5s-17.5 -37 -28.5 -56s-22.5 -35.5 -34.5 -49.5h-48v12c4.66699 11.333 10 25.833 16 43.5s11.333 36 16 55s7.66699 35.5 9 49.5h87z" />
    <glyph glyph-name="Lcaron" unicode="&#x13d;" horiz-adv-x="524" 
d="M97 0v714h90v-634h312v-80h-402zM499 714l0.000976562 -9.00098c-2.66699 -12 -7.83398 -27 -15.501 -45s-16.5 -36.5 -26.5 -55.5s-20 -35.833 -30 -50.5h-48v12c4 12.667 8.33301 27.834 13 45.501s8.66699 35.5 12 53.5s6 34.333 8 49h87z" />
    <glyph glyph-name="lcaron" unicode="&#x13e;" horiz-adv-x="258" 
d="M173 0h-88v760h88v-760zM337 760l0.000976562 -9.00098c-2.66699 -12 -7.83398 -27 -15.501 -45s-16.5 -36.5 -26.5 -55.5s-20 -35.833 -30 -50.5h-48v12c4 12.667 8.33301 27.834 13 45.501s8.66699 35.5 12 53.5s6 34.333 8 49h87z" />
    <glyph glyph-name="Ldot" unicode="&#x13f;" horiz-adv-x="524" 
d="M97 0v714h90v-634h312v-80h-402zM383 413c13.333 0 25.166 -4.5 35.499 -13.5s15.5 -23.167 15.5 -42.5s-5.16699 -33.5 -15.5 -42.5s-22.166 -13.5 -35.499 -13.5c-14.667 0 -27 4.5 -37 13.5s-15 23.167 -15 42.5s5 33.5 15 42.5s22.333 13.5 37 13.5z" />
    <glyph glyph-name="ldot" unicode="&#x140;" horiz-adv-x="268" 
d="M173 0h-88v760h88v-760zM263 435c13.333 0 25.166 -4.5 35.499 -13.5s15.5 -23.167 15.5 -42.5s-5.16699 -33.5 -15.5 -42.5s-22.166 -13.5 -35.499 -13.5c-14.667 0 -27 4.5 -37 13.5s-15 23.167 -15 42.5s5 33.5 15 42.5s22.333 13.5 37 13.5z" />
    <glyph glyph-name="Lslash" unicode="&#x141;" horiz-adv-x="524" 
d="M97 0v247l-49 -28l-35 60l84 50v385h90v-332l137 81l36 -63l-173 -100v-220h312v-80h-402z" />
    <glyph glyph-name="lslash" unicode="&#x142;" horiz-adv-x="258" 
d="M78 0v285l-51 -32l-36 59l87 56v392h88v-335l64 44l37 -59l-101 -68v-342h-88z" />
    <glyph glyph-name="Nacute" unicode="&#x143;" horiz-adv-x="760" 
d="M663 0l-105 0.000976562l-382 593h-4l5 -87c2 -34.667 3 -70.334 3 -107.001v-399h-83v714h104l381 -591h4c-0.666992 10.667 -1.5 26.667 -2.5 48s-2 44.5 -3 69.5s-1.5 48.5 -1.5 70.5v403h84v-714zM521 944.001l0.000976562 -10
c-8.66699 -12 -21.167 -27.5 -37.5 -46.5s-34 -38 -53 -57s-36.5 -34.5 -52.5 -46.5h-58v12c9.33301 12 20 26.833 32 44.5l35 54c11.333 18.333 20.666 34.833 27.999 49.5h106z" />
    <glyph glyph-name="nacute" unicode="&#x144;" horiz-adv-x="618" 
d="M343 546c64 0 112.333 -15.667 145 -47s49 -81.333 49 -150v-349h-87v343c0 86 -40 129 -120 129c-59.333 0 -100.333 -16.667 -123 -50s-34 -81.333 -34 -144v-278h-88v536h71l13 -73h5c17.333 28 41.333 48.833 72 62.5s63 20.5 97 20.5zM450 766l0.000976562 -10
c-8.66699 -12 -21.167 -27.5 -37.5 -46.5s-34 -38 -53 -57s-36.5 -34.5 -52.5 -46.5h-58v12c9.33301 12 20 26.833 32 44.5l35 54c11.333 18.333 20.666 34.833 27.999 49.5h106z" />
    <glyph glyph-name="uni0145" unicode="&#x145;" horiz-adv-x="760" 
d="M663 0l-105 0.000976562l-382 593h-4l5 -87c2 -34.667 3 -70.334 3 -107.001v-399h-83v714h104l381 -591h4c-0.666992 10.667 -1.5 26.667 -2.5 48s-2 44.5 -3 69.5s-1.5 48.5 -1.5 70.5v403h84v-714zM444 -60.999v-9c-3.33301 -12 -9 -27.167 -17 -45.5
s-17.5 -37 -28.5 -56s-22.5 -35.5 -34.5 -49.5h-48v12c4.66699 11.333 10 25.833 16 43.5s11.333 36 16 55s7.66699 35.5 9 49.5h87z" />
    <glyph glyph-name="uni0146" unicode="&#x146;" horiz-adv-x="618" 
d="M343 546c64 0 112.333 -15.667 145 -47s49 -81.333 49 -150v-349h-87v343c0 86 -40 129 -120 129c-59.333 0 -100.333 -16.667 -123 -50s-34 -81.333 -34 -144v-278h-88v536h71l13 -73h5c17.333 28 41.333 48.833 72 62.5s63 20.5 97 20.5zM373 -61v-9
c-3.33301 -12 -9 -27.167 -17 -45.5s-17.5 -37 -28.5 -56s-22.5 -35.5 -34.5 -49.5h-48v12c4.66699 11.333 10 25.833 16 43.5s11.333 36 16 55s7.66699 35.5 9 49.5h87z" />
    <glyph glyph-name="Ncaron" unicode="&#x147;" horiz-adv-x="760" 
d="M663 0l-105 0.000976562l-382 593h-4l5 -87c2 -34.667 3 -70.334 3 -107.001v-399h-83v714h104l381 -591h4c-0.666992 10.667 -1.5 26.667 -2.5 48s-2 44.5 -3 69.5s-1.5 48.5 -1.5 70.5v403h84v-714zM334 784.001c-8.66699 14.667 -20.334 31 -35.001 49
s-30 35.667 -46 53l-42 45v13h60c17.333 -11.333 35.333 -25 54 -41s36.334 -33 53.001 -51c18 18 36.333 35 55 51s36.667 29.667 54 41h62v-13l-43.5 -45c-16.333 -17.333 -32 -35 -47 -53s-26.5 -34.333 -34.5 -49h-90z" />
    <glyph glyph-name="ncaron" unicode="&#x148;" horiz-adv-x="618" 
d="M343 546c64 0 112.333 -15.667 145 -47s49 -81.333 49 -150v-349h-87v343c0 86 -40 129 -120 129c-59.333 0 -100.333 -16.667 -123 -50s-34 -81.333 -34 -144v-278h-88v536h71l13 -73h5c17.333 28 41.333 48.833 72 62.5s63 20.5 97 20.5zM263 606
c-8.66699 14.667 -20.334 31 -35.001 49s-30 35.667 -46 53l-42 45v13h60c17.333 -11.333 35.333 -25 54 -41s36.334 -33 53.001 -51c18 18 36.333 35 55 51s36.667 29.667 54 41h62v-13l-43.5 -45c-16.333 -17.333 -32 -35 -47 -53s-26.5 -34.333 -34.5 -49h-90z" />
    <glyph glyph-name="napostrophe" unicode="&#x149;" horiz-adv-x="688" 
d="M413 546c64 0 112.333 -15.667 145 -47s49 -81.333 49 -150v-349h-87v343c0 86 -40 129 -120 129c-59.333 0 -100.333 -16.667 -123 -50s-34 -81.333 -34 -144v-278h-88v536h71l13 -73h5c17.333 28 41.333 48.833 72 62.5s63 20.5 97 20.5zM145 714l7.00195 -10.998
c-8.66699 -35.333 -21.167 -74.333 -37.5 -117s-32.5 -81.667 -48.5 -117h-65c6.66699 24.667 13.167 51.667 19.5 81s12.166 58.166 17.499 86.499s9.66602 54.166 12.999 77.499h94z" />
    <glyph glyph-name="Eng" unicode="&#x14a;" horiz-adv-x="760" 
d="M475 -190c-16.667 0 -31.334 1.16992 -44.001 3.50293s-23.334 5.5 -32.001 9.5v76c10.667 -3.33301 22.334 -5.83301 35.001 -7.5s26.334 -2.5 41.001 -2.5c16.667 0 33 3.16699 49 9.5s29 17.5 39 33.5s15.333 38.667 16 68l-403 593h-4
c1.33301 -12.667 2.5 -30.667 3.5 -54s2 -48.333 3 -75s1.5 -52.334 1.5 -77.001v-387h-83v714h104l381 -572h4c-2 21.333 -3.66699 50.666 -5 87.999s-2 74.666 -2 111.999v372h84v-708c0 -66.667 -17 -116 -51 -148s-79.667 -48 -137 -48z" />
    <glyph glyph-name="eng" unicode="&#x14b;" horiz-adv-x="618" 
d="M394 -240c-16 0 -29.6699 1.16699 -41.0029 3.5s-21.333 5.16602 -30 8.49902v71c8.66699 -3.33301 17.834 -5.83301 27.501 -7.5s20.5 -2.5 32.5 -2.5c19.333 0 35.333 5.83301 48 17.5s19 33.834 19 66.501v427c0 85.333 -39.667 128 -119 128
c-59.333 0 -100.5 -16.5 -123.5 -49.5s-34.5 -80.833 -34.5 -143.5v-279h-88v536h71l14 -73h5c17.333 28 40.833 48.833 70.5 62.5s61.834 20.5 96.501 20.5c65.333 0 114.333 -15.5 147 -46.5s49 -80.833 49 -149.5v-430c0 -50 -11.667 -89.167 -35 -117.5
s-59.666 -42.5 -108.999 -42.5z" />
    <glyph glyph-name="Omacron" unicode="&#x14c;" horiz-adv-x="781" 
d="M720 358c0 -74 -12.5 -138.5 -37.5 -193.5s-62 -97.833 -111 -128.5s-109.167 -46 -180.5 -46c-74 0 -135.5 15.333 -184.5 46s-85.5 73.667 -109.5 129s-36 120 -36 194c0 72.667 12 136.5 36 191.5s60.5 97.833 109.5 128.5s110.833 46 185.5 46
c71.333 0 131.333 -15.167 180 -45.5s85.5 -73 110.5 -128s37.5 -119.5 37.5 -193.5zM156 358c0 -90 18.999 -160.833 56.999 -212.5s97.333 -77.5 178 -77.5s139.834 25.833 177.501 77.5s56.5 122.5 56.5 212.5s-18.667 160.5 -56 211.5s-96.333 76.5 -177 76.5
c-81.333 0 -141 -25.5 -179 -76.5s-57 -121.5 -57 -211.5zM538.999 855v-71h-297v71h297z" />
    <glyph glyph-name="omacron" unicode="&#x14d;" horiz-adv-x="605" 
d="M551 269c0 -88.667 -22.499 -157.334 -67.499 -206.001s-105.833 -73 -182.5 -73c-47.333 0 -89.5 10.833 -126.5 32.5s-66.167 53.334 -87.5 95.001s-32 92.167 -32 151.5c0 88.667 22.167 157 66.5 205s105.166 72 182.499 72c48 0 90.667 -10.833 128 -32.5
s66.5 -53 87.5 -94s31.5 -91.167 31.5 -150.5zM146.001 269c0 -63.333 12.501 -113.5 37.501 -150.5s64.833 -55.5 119.5 -55.5c54 0 93.667 18.5 119 55.5s38 87.167 38 150.5s-12.667 113 -38 149s-65.333 54 -120 54s-94.334 -18 -119.001 -54s-37 -85.667 -37 -149z
M451.002 677v-71h-297v71h297z" />
    <glyph glyph-name="Obreve" unicode="&#x14e;" horiz-adv-x="781" 
d="M720 358c0 -74 -12.5 -138.5 -37.5 -193.5s-62 -97.833 -111 -128.5s-109.167 -46 -180.5 -46c-74 0 -135.5 15.333 -184.5 46s-85.5 73.667 -109.5 129s-36 120 -36 194c0 72.667 12 136.5 36 191.5s60.5 97.833 109.5 128.5s110.833 46 185.5 46
c71.333 0 131.333 -15.167 180 -45.5s85.5 -73 110.5 -128s37.5 -119.5 37.5 -193.5zM156 358c0 -90 18.999 -160.833 56.999 -212.5s97.333 -77.5 178 -77.5s139.834 25.833 177.501 77.5s56.5 122.5 56.5 212.5s-18.667 160.5 -56 211.5s-96.333 76.5 -177 76.5
c-81.333 0 -141 -25.5 -179 -76.5s-57 -121.5 -57 -211.5zM550.999 918c-3.33301 -40 -18.5 -72.334 -45.5 -97.001s-64.5 -37 -112.5 -37c-49.333 0 -86.5 12 -111.5 36s-38.833 56.667 -41.5 98h54c2.66699 -27.333 12.5 -44.666 29.5 -51.999s40.833 -11 71.5 -11
c26 0 48.5 4 67.5 12s30.167 25 33.5 51h55z" />
    <glyph glyph-name="obreve" unicode="&#x14f;" horiz-adv-x="605" 
d="M551 269c0 -88.667 -22.499 -157.334 -67.499 -206.001s-105.833 -73 -182.5 -73c-47.333 0 -89.5 10.833 -126.5 32.5s-66.167 53.334 -87.5 95.001s-32 92.167 -32 151.5c0 88.667 22.167 157 66.5 205s105.166 72 182.499 72c48 0 90.667 -10.833 128 -32.5
s66.5 -53 87.5 -94s31.5 -91.167 31.5 -150.5zM146.001 269c0 -63.333 12.501 -113.5 37.501 -150.5s64.833 -55.5 119.5 -55.5c54 0 93.667 18.5 119 55.5s38 87.167 38 150.5s-12.667 113 -38 149s-65.333 54 -120 54s-94.334 -18 -119.001 -54s-37 -85.667 -37 -149z
M463.002 740c-3.33301 -40 -18.5 -72.334 -45.5 -97.001s-64.5 -37 -112.5 -37c-49.333 0 -86.5 12 -111.5 36s-38.833 56.667 -41.5 98h54c2.66699 -27.333 12.5 -44.666 29.5 -51.999s40.833 -11 71.5 -11c26 0 48.5 4 67.5 12s30.167 25 33.5 51h55z" />
    <glyph glyph-name="Ohungarumlaut" unicode="&#x150;" horiz-adv-x="781" 
d="M720 358c0 -74 -12.5 -138.5 -37.5 -193.5s-62 -97.833 -111 -128.5s-109.167 -46 -180.5 -46c-74 0 -135.5 15.333 -184.5 46s-85.5 73.667 -109.5 129s-36 120 -36 194c0 72.667 12 136.5 36 191.5s60.5 97.833 109.5 128.5s110.833 46 185.5 46
c71.333 0 131.333 -15.167 180 -45.5s85.5 -73 110.5 -128s37.5 -119.5 37.5 -193.5zM156 358c0 -90 18.999 -160.833 56.999 -212.5s97.333 -77.5 178 -77.5s139.834 25.833 177.501 77.5s56.5 122.5 56.5 212.5s-18.667 160.5 -56 211.5s-96.333 76.5 -177 76.5
c-81.333 0 -141 -25.5 -179 -76.5s-57 -121.5 -57 -211.5zM625.999 944l-0.000976562 -9.99902c-7.33301 -12 -18.666 -27.5 -33.999 -46.5s-32 -38 -50 -57s-34.333 -34.5 -49 -46.5h-50v12c9.33301 12.667 19.333 27.667 30 45s21 35.166 31 53.499s18.667 34.833 26 49.5
h96zM449.998 944.001v-10.002c-7.33301 -12 -18.666 -27.5 -33.999 -46.5s-32 -38 -50 -57s-34.333 -34.5 -49 -46.5h-50v12c14 18.667 29.167 42.334 45.5 71.001s30.166 54.334 41.499 77.001h96z" />
    <glyph glyph-name="ohungarumlaut" unicode="&#x151;" horiz-adv-x="605" 
d="M551 269c0 -88.667 -22.499 -157.334 -67.499 -206.001s-105.833 -73 -182.5 -73c-47.333 0 -89.5 10.833 -126.5 32.5s-66.167 53.334 -87.5 95.001s-32 92.167 -32 151.5c0 88.667 22.167 157 66.5 205s105.166 72 182.499 72c48 0 90.667 -10.833 128 -32.5
s66.5 -53 87.5 -94s31.5 -91.167 31.5 -150.5zM146.001 269c0 -63.333 12.501 -113.5 37.501 -150.5s64.833 -55.5 119.5 -55.5c54 0 93.667 18.5 119 55.5s38 87.167 38 150.5s-12.667 113 -38 149s-65.333 54 -120 54s-94.334 -18 -119.001 -54s-37 -85.667 -37 -149z
M538.002 766l-0.000976562 -9.99902c-7.33301 -12 -18.666 -27.5 -33.999 -46.5s-32 -38 -50 -57s-34.333 -34.5 -49 -46.5h-50v12c9.33301 12.667 19.333 27.667 30 45s21 35.166 31 53.499s18.667 34.833 26 49.5h96zM362.001 766.001v-10.002
c-7.33301 -12 -18.666 -27.5 -33.999 -46.5s-32 -38 -50 -57s-34.333 -34.5 -49 -46.5h-50v12c14 18.667 29.167 42.334 45.5 71.001s30.166 54.334 41.499 77.001h96z" />
    <glyph glyph-name="OE" unicode="&#x152;" horiz-adv-x="928" 
d="M386 725c33.333 0 65.335 -3.66699 96.002 -11h386v-79h-287v-223h268v-78h-268v-255h287v-79h-380c-14.667 -2.66699 -30.334 -5 -47.001 -7s-33.334 -3 -50.001 -3c-74 0 -135.5 15.333 -184.5 46s-85.5 73.667 -109.5 129s-36 120 -36 194s11.833 138.333 35.5 193
s59.5 97.167 107.5 127.5s108.667 45.5 182 45.5zM394.002 646c-82 0 -142.333 -25.5 -181 -76.5s-58 -121.5 -58 -211.5s19.333 -160.833 58 -212.5s98.667 -77.5 180 -77.5c38 0 71 5.66699 99 17v545c-27.333 10.667 -60 16 -98 16z" />
    <glyph glyph-name="oe" unicode="&#x153;" horiz-adv-x="946" 
d="M677 545c67.333 0 120.332 -21.834 158.999 -65.501s58 -102.167 58 -175.5v-53h-356c1.33301 -64 15.833 -111 43.5 -141s67.167 -45 118.5 -45c34.667 0 65 3.16699 91 9.5s52.333 15.5 79 27.5v-77c-26.667 -12 -53 -20.833 -79 -26.5s-56.667 -8.5 -92 -8.5
c-45.333 0 -85.5 9.33301 -120.5 28s-62.833 46.334 -83.5 83.001c-20.667 -36.667 -48 -64.334 -82 -83.001s-73 -28 -117 -28c-46.667 0 -88.167 10.833 -124.5 32.5s-65 53.334 -86 95.001s-31.5 92.167 -31.5 151.5c0 88 21.833 156 65.5 204s103.5 72 179.5 72
c42 0 79.667 -9.33301 113 -28s60 -46 80 -82c19.333 35.333 44.833 62.5 76.5 81.5s67.834 28.5 108.501 28.5zM675.999 472.999c-40 0 -71.667 -13 -95 -39s-37 -63.667 -41 -113h261c0 46 -10 82.833 -30 110.5s-51.667 41.5 -95 41.5zM294.999 471.999
c-52.667 0 -90.667 -16.999 -114 -50.999s-35 -84.667 -35 -152s12 -118.5 36 -153.5s62.333 -52.5 115 -52.5c52 0 90 17 114 51s36 84.333 36 151c0 69.333 -12.167 121.166 -36.5 155.499s-62.833 51.5 -115.5 51.5z" />
    <glyph glyph-name="Racute" unicode="&#x154;" horiz-adv-x="622" 
d="M294 714c88.667 0 154.167 -16.834 196.5 -50.501s63.5 -84.5 63.5 -152.5c0 -38 -7 -69.667 -21 -95s-31.833 -45.666 -53.5 -60.999s-44.5 -27 -68.5 -35l196 -320h-105l-173 295h-142v-295h-90v714h197zM289 635.999l-102 -0.000976562v-265h107
c58 0 100.333 11.5 127 34.5s40 56.833 40 101.5c0 46.667 -14 79.834 -42 99.501s-71.333 29.5 -130 29.5zM452 943.998l0.000976562 -10c-8.66699 -12 -21.167 -27.5 -37.5 -46.5s-34 -38 -53 -57s-36.5 -34.5 -52.5 -46.5h-58v12c9.33301 12 20 26.833 32 44.5l35 54
c11.333 18.333 20.666 34.833 27.999 49.5h106z" />
    <glyph glyph-name="racute" unicode="&#x155;" horiz-adv-x="413" 
d="M335 546c10 0 20.6689 -0.499023 32.002 -1.49902s21.666 -2.5 30.999 -4.5l-11 -81c-8.66699 2 -18.334 3.66699 -29.001 5s-20.334 2 -29.001 2c-27.333 0 -53 -7.5 -77 -22.5s-43.167 -36 -57.5 -63s-21.5 -58.5 -21.5 -94.5v-286h-88v536h72l10 -98h4
c16.667 29.333 38.834 54.666 66.501 75.999s60.167 32 97.5 32zM381.002 766.001l0.000976562 -10c-8.66699 -12 -21.167 -27.5 -37.5 -46.5s-34 -38 -53 -57s-36.5 -34.5 -52.5 -46.5h-58v12c9.33301 12 20 26.833 32 44.5l35 54c11.333 18.333 20.666 34.833 27.999 49.5
h106z" />
    <glyph glyph-name="uni0156" unicode="&#x156;" horiz-adv-x="622" 
d="M294 714c88.667 0 154.167 -16.834 196.5 -50.501s63.5 -84.5 63.5 -152.5c0 -38 -7 -69.667 -21 -95s-31.833 -45.666 -53.5 -60.999s-44.5 -27 -68.5 -35l196 -320h-105l-173 295h-142v-295h-90v714h197zM289 635.999l-102 -0.000976562v-265h107
c58 0 100.333 11.5 127 34.5s40 56.833 40 101.5c0 46.667 -14 79.834 -42 99.501s-71.333 29.5 -130 29.5zM392 -61.002v-9c-3.33301 -12 -9 -27.167 -17 -45.5s-17.5 -37 -28.5 -56s-22.5 -35.5 -34.5 -49.5h-48v12c4.66699 11.333 10 25.833 16 43.5s11.333 36 16 55
s7.66699 35.5 9 49.5h87z" />
    <glyph glyph-name="uni0157" unicode="&#x157;" horiz-adv-x="413" 
d="M335 546c10 0 20.6689 -0.499023 32.002 -1.49902s21.666 -2.5 30.999 -4.5l-11 -81c-8.66699 2 -18.334 3.66699 -29.001 5s-20.334 2 -29.001 2c-27.333 0 -53 -7.5 -77 -22.5s-43.167 -36 -57.5 -63s-21.5 -58.5 -21.5 -94.5v-286h-88v536h72l10 -98h4
c16.667 29.333 38.834 54.666 66.501 75.999s60.167 32 97.5 32zM190.002 -60.999v-9c-3.33301 -12 -9 -27.167 -17 -45.5s-17.5 -37 -28.5 -56s-22.5 -35.5 -34.5 -49.5h-48v12c4.66699 11.333 10 25.833 16 43.5s11.333 36 16 55s7.66699 35.5 9 49.5h87z" />
    <glyph glyph-name="Rcaron" unicode="&#x158;" horiz-adv-x="622" 
d="M294 714c88.667 0 154.167 -16.834 196.5 -50.501s63.5 -84.5 63.5 -152.5c0 -38 -7 -69.667 -21 -95s-31.833 -45.666 -53.5 -60.999s-44.5 -27 -68.5 -35l196 -320h-105l-173 295h-142v-295h-90v714h197zM289 635.999l-102 -0.000976562v-265h107
c58 0 100.333 11.5 127 34.5s40 56.833 40 101.5c0 46.667 -14 79.834 -42 99.501s-71.333 29.5 -130 29.5zM265 783.998c-8.66699 14.667 -20.334 31 -35.001 49s-30 35.667 -46 53l-42 45v13h60c17.333 -11.333 35.333 -25 54 -41s36.334 -33 53.001 -51
c18 18 36.333 35 55 51s36.667 29.667 54 41h62v-13l-43.5 -45c-16.333 -17.333 -32 -35 -47 -53s-26.5 -34.333 -34.5 -49h-90z" />
    <glyph glyph-name="rcaron" unicode="&#x159;" horiz-adv-x="413" 
d="M335 546c10 0 20.6689 -0.499023 32.002 -1.49902s21.666 -2.5 30.999 -4.5l-11 -81c-8.66699 2 -18.334 3.66699 -29.001 5s-20.334 2 -29.001 2c-27.333 0 -53 -7.5 -77 -22.5s-43.167 -36 -57.5 -63s-21.5 -58.5 -21.5 -94.5v-286h-88v536h72l10 -98h4
c16.667 29.333 38.834 54.666 66.501 75.999s60.167 32 97.5 32zM194.002 606.001c-8.66699 14.667 -20.334 31 -35.001 49s-30 35.667 -46 53l-42 45v13h60c17.333 -11.333 35.333 -25 54 -41s36.334 -33 53.001 -51c18 18 36.333 35 55 51s36.667 29.667 54 41h62v-13
l-43.5 -45c-16.333 -17.333 -32 -35 -47 -53s-26.5 -34.333 -34.5 -49h-90z" />
    <glyph glyph-name="Sacute" unicode="&#x15a;" horiz-adv-x="549" 
d="M502 191c0 -63.333 -23 -112.664 -69 -147.997s-108 -53 -186 -53c-40 0 -77 3 -111 9s-62.333 14.333 -85 25v86c24 -10.667 53.833 -20.334 89.5 -29.001s72.5 -13 110.5 -13c52.667 0 92.667 10.333 120 31s41 48.667 41 84c0 23.333 -5 43 -15 59
s-27.333 30.667 -52 44s-58.334 28 -101.001 44c-61.333 22 -107.333 49 -138 81s-46 75.667 -46 131c0 37.333 9.66699 69.666 29 96.999s46 48.333 80 63s73.667 22 119 22c38.667 0 74.334 -3.66699 107.001 -11s62.667 -17 90 -29l-28 -77
c-24.667 10.667 -51.667 19.667 -81 27s-59.333 11 -90 11c-44.667 0 -78.334 -9.5 -101.001 -28.5s-34 -44.167 -34 -75.5c0 -24 5 -44 15 -60s26.333 -30.5 49 -43.5s53.334 -26.5 92.001 -40.5c42 -15.333 77.5 -31.833 106.5 -49.5s51 -38.834 66 -63.501
s22.5 -55.667 22.5 -93zM426 944.002l0.000976562 -10c-8.66699 -12 -21.167 -27.5 -37.5 -46.5s-34 -38 -53 -57s-36.5 -34.5 -52.5 -46.5h-58v12c9.33301 12 20 26.833 32 44.5l35 54c11.333 18.333 20.666 34.833 27.999 49.5h106z" />
    <glyph glyph-name="sacute" unicode="&#x15b;" horiz-adv-x="479" 
d="M434 148c0 -52 -19.3291 -91.332 -57.9961 -117.999s-90.667 -40 -156 -40c-37.333 0 -69.5 3 -96.5 9s-50.833 14.333 -71.5 25v80c21.333 -10.667 47.166 -20.5 77.499 -29.5s61.166 -13.5 92.499 -13.5c44.667 0 77 7.16699 97 21.5s30 33.5 30 57.5
c0 13.333 -3.66699 25.333 -11 36s-20.5 21.334 -39.5 32.001s-46.167 22.667 -81.5 36c-34.667 13.333 -64.334 26.666 -89.001 39.999s-43.667 29.333 -57 48s-20 42.667 -20 72c0 45.333 18.5 80.333 55.5 105s85.5 37 145.5 37c32.667 0 63.167 -3.33301 91.5 -10
s54.833 -15.334 79.5 -26.001l-30 -70c-22.667 9.33301 -46.334 17.333 -71.001 24s-50 10 -76 10c-36 0 -63.5 -5.83301 -82.5 -17.5s-28.5 -27.5 -28.5 -47.5c0 -15.333 4.33301 -28 13 -38s23.167 -20 43.5 -30s47.5 -21.333 81.5 -34s63 -25.667 87 -39
s42.333 -29.5 55 -48.5s19 -42.833 19 -71.5zM381.004 766.001l0.000976562 -10c-8.66699 -12 -21.167 -27.5 -37.5 -46.5s-34 -38 -53 -57s-36.5 -34.5 -52.5 -46.5h-58v12c9.33301 12 20 26.833 32 44.5l35 54c11.333 18.333 20.666 34.833 27.999 49.5h106z" />
    <glyph glyph-name="Scircumflex" unicode="&#x15c;" horiz-adv-x="549" 
d="M502 191c0 -63.333 -23 -112.664 -69 -147.997s-108 -53 -186 -53c-40 0 -77 3 -111 9s-62.333 14.333 -85 25v86c24 -10.667 53.833 -20.334 89.5 -29.001s72.5 -13 110.5 -13c52.667 0 92.667 10.333 120 31s41 48.667 41 84c0 23.333 -5 43 -15 59
s-27.333 30.667 -52 44s-58.334 28 -101.001 44c-61.333 22 -107.333 49 -138 81s-46 75.667 -46 131c0 37.333 9.66699 69.666 29 96.999s46 48.333 80 63s73.667 22 119 22c38.667 0 74.334 -3.66699 107.001 -11s62.667 -17 90 -29l-28 -77
c-24.667 10.667 -51.667 19.667 -81 27s-59.333 11 -90 11c-44.667 0 -78.334 -9.5 -101.001 -28.5s-34 -44.167 -34 -75.5c0 -24 5 -44 15 -60s26.333 -30.5 49 -43.5s53.334 -26.5 92.001 -40.5c42 -15.333 77.5 -31.833 106.5 -49.5s51 -38.834 66 -63.501
s22.5 -55.667 22.5 -93zM331 944.002c8 -14.667 19.499 -31.167 34.499 -49.5s30.667 -36.333 47 -54l43.5 -45.5v-11h-62c-17.333 10.667 -35.333 23.834 -54 39.501s-37 32.5 -55 50.5c-18 -18 -36 -34.833 -54 -50.5s-35.667 -28.834 -53 -39.501h-60v11l42 45.5
c16 17.667 31.333 35.667 46 54s26.334 34.833 35.001 49.5h90z" />
    <glyph glyph-name="scircumflex" unicode="&#x15d;" horiz-adv-x="479" 
d="M434 148c0 -52 -19.3291 -91.332 -57.9961 -117.999s-90.667 -40 -156 -40c-37.333 0 -69.5 3 -96.5 9s-50.833 14.333 -71.5 25v80c21.333 -10.667 47.166 -20.5 77.499 -29.5s61.166 -13.5 92.499 -13.5c44.667 0 77 7.16699 97 21.5s30 33.5 30 57.5
c0 13.333 -3.66699 25.333 -11 36s-20.5 21.334 -39.5 32.001s-46.167 22.667 -81.5 36c-34.667 13.333 -64.334 26.666 -89.001 39.999s-43.667 29.333 -57 48s-20 42.667 -20 72c0 45.333 18.5 80.333 55.5 105s85.5 37 145.5 37c32.667 0 63.167 -3.33301 91.5 -10
s54.833 -15.334 79.5 -26.001l-30 -70c-22.667 9.33301 -46.334 17.333 -71.001 24s-50 10 -76 10c-36 0 -63.5 -5.83301 -82.5 -17.5s-28.5 -27.5 -28.5 -47.5c0 -15.333 4.33301 -28 13 -38s23.167 -20 43.5 -30s47.5 -21.333 81.5 -34s63 -25.667 87 -39
s42.333 -29.5 55 -48.5s19 -42.833 19 -71.5zM286.004 766.001c8 -14.667 19.499 -31.167 34.499 -49.5s30.667 -36.333 47 -54l43.5 -45.5v-11h-62c-17.333 10.667 -35.333 23.834 -54 39.501s-37 32.5 -55 50.5c-18 -18 -36 -34.833 -54 -50.5
s-35.667 -28.834 -53 -39.501h-60v11l42 45.5c16 17.667 31.333 35.667 46 54s26.334 34.833 35.001 49.5h90z" />
    <glyph glyph-name="Scedilla" unicode="&#x15e;" horiz-adv-x="549" 
d="M502 191c0 -63.333 -23 -112.664 -69 -147.997s-108 -53 -186 -53c-40 0 -77 3 -111 9s-62.333 14.333 -85 25v86c24 -10.667 53.833 -20.334 89.5 -29.001s72.5 -13 110.5 -13c52.667 0 92.667 10.333 120 31s41 48.667 41 84c0 23.333 -5 43 -15 59
s-27.333 30.667 -52 44s-58.334 28 -101.001 44c-61.333 22 -107.333 49 -138 81s-46 75.667 -46 131c0 37.333 9.66699 69.666 29 96.999s46 48.333 80 63s73.667 22 119 22c38.667 0 74.334 -3.66699 107.001 -11s62.667 -17 90 -29l-28 -77
c-24.667 10.667 -51.667 19.667 -81 27s-59.333 11 -90 11c-44.667 0 -78.334 -9.5 -101.001 -28.5s-34 -44.167 -34 -75.5c0 -24 5 -44 15 -60s26.333 -30.5 49 -43.5s53.334 -26.5 92.001 -40.5c42 -15.333 77.5 -31.833 106.5 -49.5s51 -38.834 66 -63.501
s22.5 -55.667 22.5 -93zM358 -138.998c0 -32 -12.333 -56.835 -37 -74.502s-61.667 -26.5 -111 -26.5c-21.333 0 -38 1.66699 -50 5v55c6 -1.33301 14 -2.5 24 -3.5s19.667 -1.5 29 -1.5c24 0 42.333 3.16699 55 9.5s19 17.833 19 34.5c0 17.333 -8.83301 30 -26.5 38
s-39.167 13.667 -64.5 17l43 86h58l-26 -53c24 -5.33301 44.5 -14.666 61.5 -27.999s25.5 -32.666 25.5 -57.999z" />
    <glyph glyph-name="scedilla" unicode="&#x15f;" horiz-adv-x="479" 
d="M434 148c0 -52 -19.3291 -91.332 -57.9961 -117.999s-90.667 -40 -156 -40c-37.333 0 -69.5 3 -96.5 9s-50.833 14.333 -71.5 25v80c21.333 -10.667 47.166 -20.5 77.499 -29.5s61.166 -13.5 92.499 -13.5c44.667 0 77 7.16699 97 21.5s30 33.5 30 57.5
c0 13.333 -3.66699 25.333 -11 36s-20.5 21.334 -39.5 32.001s-46.167 22.667 -81.5 36c-34.667 13.333 -64.334 26.666 -89.001 39.999s-43.667 29.333 -57 48s-20 42.667 -20 72c0 45.333 18.5 80.333 55.5 105s85.5 37 145.5 37c32.667 0 63.167 -3.33301 91.5 -10
s54.833 -15.334 79.5 -26.001l-30 -70c-22.667 9.33301 -46.334 17.333 -71.001 24s-50 10 -76 10c-36 0 -63.5 -5.83301 -82.5 -17.5s-28.5 -27.5 -28.5 -47.5c0 -15.333 4.33301 -28 13 -38s23.167 -20 43.5 -30s47.5 -21.333 81.5 -34s63 -25.667 87 -39
s42.333 -29.5 55 -48.5s19 -42.833 19 -71.5zM341.004 -138.999c0 -32 -12.333 -56.835 -37 -74.502s-61.667 -26.5 -111 -26.5c-21.333 0 -38 1.66699 -50 5v55c6 -1.33301 14 -2.5 24 -3.5s19.667 -1.5 29 -1.5c24 0 42.333 3.16699 55 9.5s19 17.833 19 34.5
c0 17.333 -8.83301 30 -26.5 38s-39.167 13.667 -64.5 17l43 86h58l-26 -53c24 -5.33301 44.5 -14.666 61.5 -27.999s25.5 -32.666 25.5 -57.999z" />
    <glyph glyph-name="Scaron" unicode="&#x160;" horiz-adv-x="549" 
d="M502 191c0 -63.333 -23 -112.664 -69 -147.997s-108 -53 -186 -53c-40 0 -77 3 -111 9s-62.333 14.333 -85 25v86c24 -10.667 53.833 -20.334 89.5 -29.001s72.5 -13 110.5 -13c52.667 0 92.667 10.333 120 31s41 48.667 41 84c0 23.333 -5 43 -15 59
s-27.333 30.667 -52 44s-58.334 28 -101.001 44c-61.333 22 -107.333 49 -138 81s-46 75.667 -46 131c0 37.333 9.66699 69.666 29 96.999s46 48.333 80 63s73.667 22 119 22c38.667 0 74.334 -3.66699 107.001 -11s62.667 -17 90 -29l-28 -77
c-24.667 10.667 -51.667 19.667 -81 27s-59.333 11 -90 11c-44.667 0 -78.334 -9.5 -101.001 -28.5s-34 -44.167 -34 -75.5c0 -24 5 -44 15 -60s26.333 -30.5 49 -43.5s53.334 -26.5 92.001 -40.5c42 -15.333 77.5 -31.833 106.5 -49.5s51 -38.834 66 -63.501
s22.5 -55.667 22.5 -93zM239 784.002c-8.66699 14.667 -20.334 31 -35.001 49s-30 35.667 -46 53l-42 45v13h60c17.333 -11.333 35.333 -25 54 -41s36.334 -33 53.001 -51c18 18 36.333 35 55 51s36.667 29.667 54 41h62v-13l-43.5 -45c-16.333 -17.333 -32 -35 -47 -53
s-26.5 -34.333 -34.5 -49h-90z" />
    <glyph glyph-name="scaron" unicode="&#x161;" horiz-adv-x="479" 
d="M434 148c0 -52 -19.3291 -91.332 -57.9961 -117.999s-90.667 -40 -156 -40c-37.333 0 -69.5 3 -96.5 9s-50.833 14.333 -71.5 25v80c21.333 -10.667 47.166 -20.5 77.499 -29.5s61.166 -13.5 92.499 -13.5c44.667 0 77 7.16699 97 21.5s30 33.5 30 57.5
c0 13.333 -3.66699 25.333 -11 36s-20.5 21.334 -39.5 32.001s-46.167 22.667 -81.5 36c-34.667 13.333 -64.334 26.666 -89.001 39.999s-43.667 29.333 -57 48s-20 42.667 -20 72c0 45.333 18.5 80.333 55.5 105s85.5 37 145.5 37c32.667 0 63.167 -3.33301 91.5 -10
s54.833 -15.334 79.5 -26.001l-30 -70c-22.667 9.33301 -46.334 17.333 -71.001 24s-50 10 -76 10c-36 0 -63.5 -5.83301 -82.5 -17.5s-28.5 -27.5 -28.5 -47.5c0 -15.333 4.33301 -28 13 -38s23.167 -20 43.5 -30s47.5 -21.333 81.5 -34s63 -25.667 87 -39
s42.333 -29.5 55 -48.5s19 -42.833 19 -71.5zM194.004 606.001c-8.66699 14.667 -20.334 31 -35.001 49s-30 35.667 -46 53l-42 45v13h60c17.333 -11.333 35.333 -25 54 -41s36.334 -33 53.001 -51c18 18 36.333 35 55 51s36.667 29.667 54 41h62v-13l-43.5 -45
c-16.333 -17.333 -32 -35 -47 -53s-26.5 -34.333 -34.5 -49h-90z" />
    <glyph glyph-name="uni0162" unicode="&#x162;" horiz-adv-x="556" 
d="M323 0h-90v635h-223v79h535v-79h-222v-635zM379 -139c0 -32 -12.333 -56.835 -37 -74.502s-61.667 -26.5 -111 -26.5c-21.333 0 -38 1.66699 -50 5v55c6 -1.33301 14 -2.5 24 -3.5s19.667 -1.5 29 -1.5c24 0 42.333 3.16699 55 9.5s19 17.833 19 34.5
c0 17.333 -8.83301 30 -26.5 38s-39.167 13.667 -64.5 17l43 86h58l-26 -53c24 -5.33301 44.5 -14.666 61.5 -27.999s25.5 -32.666 25.5 -57.999z" />
    <glyph glyph-name="uni0163" unicode="&#x163;" horiz-adv-x="361" 
d="M264 62c13.333 0 26.999 1.00098 40.999 3.00098s25.333 4.66699 34 8v-67c-9.33301 -4.66699 -22.666 -8.5 -39.999 -11.5s-34 -4.5 -50 -4.5c-28 0 -53.833 4.83301 -77.5 14.5s-42.834 26.5 -57.501 50.5s-22 57.667 -22 101v312h-76v42l77 35l35 114h52v-123h155v-68
h-155v-310c0 -32.667 7.83301 -56.834 23.5 -72.501s35.834 -23.5 60.501 -23.5zM314.999 -138.999c0 -32 -12.333 -56.835 -37 -74.502s-61.667 -26.5 -111 -26.5c-21.333 0 -38 1.66699 -50 5v55c6 -1.33301 14 -2.5 24 -3.5s19.667 -1.5 29 -1.5
c24 0 42.333 3.16699 55 9.5s19 17.833 19 34.5c0 17.333 -8.83301 30 -26.5 38s-39.167 13.667 -64.5 17l43 86h58l-26 -53c24 -5.33301 44.5 -14.666 61.5 -27.999s25.5 -32.666 25.5 -57.999z" />
    <glyph glyph-name="Tcaron" unicode="&#x164;" horiz-adv-x="556" 
d="M323 0h-90v635h-223v79h535v-79h-222v-635zM232 784c-8.66699 14.667 -20.334 31 -35.001 49s-30 35.667 -46 53l-42 45v13h60c17.333 -11.333 35.333 -25 54 -41s36.334 -33 53.001 -51c18 18 36.333 35 55 51s36.667 29.667 54 41h62v-13l-43.5 -45
c-16.333 -17.333 -32 -35 -47 -53s-26.5 -34.333 -34.5 -49h-90z" />
    <glyph glyph-name="tcaron" unicode="&#x165;" horiz-adv-x="361" 
d="M264 62c13.333 0 26.999 1.00098 40.999 3.00098s25.333 4.66699 34 8v-67c-9.33301 -4.66699 -22.666 -8.5 -39.999 -11.5s-34 -4.5 -50 -4.5c-28 0 -53.833 4.83301 -77.5 14.5s-42.834 26.5 -57.501 50.5s-22 57.667 -22 101v312h-76v42l77 35l35 114h52v-123h155v-68
h-155v-310c0 -32.667 7.83301 -56.834 23.5 -72.501s35.834 -23.5 60.501 -23.5zM469.999 760.001l0.000976562 -9.00098c-2.66699 -12 -7.83398 -27 -15.501 -45s-16.5 -36.5 -26.5 -55.5s-20 -35.833 -30 -50.5h-48v12c4 12.667 8.33301 27.834 13 45.501
s8.66699 35.5 12 53.5s6 34.333 8 49h87z" />
    <glyph glyph-name="Tbar" unicode="&#x166;" horiz-adv-x="556" 
d="M232 0v325h-149v74h149v235h-222v80h535v-80h-223v-235h148v-74h-148v-325h-90z" />
    <glyph glyph-name="tbar" unicode="&#x167;" horiz-adv-x="361" 
d="M264 62c13.333 0 26.999 1.00098 40.999 3.00098s25.333 4.66699 34 8v-67c-9.33301 -4.66699 -22.666 -8.5 -39.999 -11.5s-34 -4.5 -50 -4.5c-28 0 -53.833 4.83301 -77.5 14.5s-42.834 26.5 -57.501 50.5s-22 57.667 -22 101v124h-68v66h68v122h-76v42l77 35l35 114
h52v-123h155v-68h-155v-122h146v-66h-146v-122c0 -32.667 7.83301 -56.834 23.5 -72.501s35.834 -23.5 60.501 -23.5z" />
    <glyph glyph-name="Utilde" unicode="&#x168;" horiz-adv-x="731" 
d="M640 714v-461.999c0 -49.333 -10 -93.833 -30 -133.5s-50.667 -71 -92 -94s-93.333 -34.5 -156 -34.5c-89.333 0 -157 24.167 -203 72.5s-69 112.166 -69 191.499v460h90v-463c0 -58 15.5 -103 46.5 -135s77.833 -48 140.5 -48c64.667 0 111.5 17.167 140.5 51.5
s43.5 78.5 43.5 132.5v462h89zM182 784.001c4 39.333 15.502 70.5 34.502 93.5s44.167 34.5 75.5 34.5c20 0 38.833 -4.83301 56.5 -14.5l50.5 -28.5c16 -9.33301 31 -14 45 -14c15.333 0 27.166 4.83301 35.499 14.5s14.833 24.167 19.5 43.5h50
c-4 -39.333 -15.333 -70.5 -34 -93.5s-43.667 -34.5 -75 -34.5c-18.667 0 -36.834 4.66699 -54.501 14s-34.667 18.833 -51 28.5s-31.833 14.5 -46.5 14.5c-16 0 -28 -4.83301 -36 -14.5s-14.333 -24.167 -19 -43.5h-51z" />
    <glyph glyph-name="utilde" unicode="&#x169;" horiz-adv-x="618" 
d="M533 536l0.00195312 -536h-72l-13 71h-4c-17.333 -28 -41.333 -48.5 -72 -61.5s-63.334 -19.5 -98.001 -19.5c-64.667 0 -113.334 15.5 -146.001 46.5s-49 80.5 -49 148.5v351h89v-345c0 -85.333 39.667 -128 119 -128c59.333 0 100.5 16.667 123.5 50
s34.5 81.333 34.5 144v279h88zM125.002 606c4 39.333 15.502 70.5 34.502 93.5s44.167 34.5 75.5 34.5c20 0 38.833 -4.83301 56.5 -14.5l50.5 -28.5c16 -9.33301 31 -14 45 -14c15.333 0 27.166 4.83301 35.499 14.5s14.833 24.167 19.5 43.5h50
c-4 -39.333 -15.333 -70.5 -34 -93.5s-43.667 -34.5 -75 -34.5c-18.667 0 -36.834 4.66699 -54.501 14s-34.667 18.833 -51 28.5s-31.833 14.5 -46.5 14.5c-16 0 -28 -4.83301 -36 -14.5s-14.333 -24.167 -19 -43.5h-51z" />
    <glyph glyph-name="Umacron" unicode="&#x16a;" horiz-adv-x="731" 
d="M640 714v-461.999c0 -49.333 -10 -93.833 -30 -133.5s-50.667 -71 -92 -94s-93.333 -34.5 -156 -34.5c-89.333 0 -157 24.167 -203 72.5s-69 112.166 -69 191.499v460h90v-463c0 -58 15.5 -103 46.5 -135s77.833 -48 140.5 -48c64.667 0 111.5 17.167 140.5 51.5
s43.5 78.5 43.5 132.5v462h89zM514 855.001v-71h-297v71h297z" />
    <glyph glyph-name="umacron" unicode="&#x16b;" horiz-adv-x="618" 
d="M533 536l0.00195312 -536h-72l-13 71h-4c-17.333 -28 -41.333 -48.5 -72 -61.5s-63.334 -19.5 -98.001 -19.5c-64.667 0 -113.334 15.5 -146.001 46.5s-49 80.5 -49 148.5v351h89v-345c0 -85.333 39.667 -128 119 -128c59.333 0 100.5 16.667 123.5 50
s34.5 81.333 34.5 144v279h88zM457.002 677v-71h-297v71h297z" />
    <glyph glyph-name="Ubreve" unicode="&#x16c;" horiz-adv-x="731" 
d="M640 714v-461.999c0 -49.333 -10 -93.833 -30 -133.5s-50.667 -71 -92 -94s-93.333 -34.5 -156 -34.5c-89.333 0 -157 24.167 -203 72.5s-69 112.166 -69 191.499v460h90v-463c0 -58 15.5 -103 46.5 -135s77.833 -48 140.5 -48c64.667 0 111.5 17.167 140.5 51.5
s43.5 78.5 43.5 132.5v462h89zM526 918.001c-3.33301 -40 -18.5 -72.334 -45.5 -97.001s-64.5 -37 -112.5 -37c-49.333 0 -86.5 12 -111.5 36s-38.833 56.667 -41.5 98h54c2.66699 -27.333 12.5 -44.666 29.5 -51.999s40.833 -11 71.5 -11c26 0 48.5 4 67.5 12
s30.167 25 33.5 51h55z" />
    <glyph glyph-name="ubreve" unicode="&#x16d;" horiz-adv-x="618" 
d="M533 536l0.00195312 -536h-72l-13 71h-4c-17.333 -28 -41.333 -48.5 -72 -61.5s-63.334 -19.5 -98.001 -19.5c-64.667 0 -113.334 15.5 -146.001 46.5s-49 80.5 -49 148.5v351h89v-345c0 -85.333 39.667 -128 119 -128c59.333 0 100.5 16.667 123.5 50
s34.5 81.333 34.5 144v279h88zM469.002 740c-3.33301 -40 -18.5 -72.334 -45.5 -97.001s-64.5 -37 -112.5 -37c-49.333 0 -86.5 12 -111.5 36s-38.833 56.667 -41.5 98h54c2.66699 -27.333 12.5 -44.666 29.5 -51.999s40.833 -11 71.5 -11c26 0 48.5 4 67.5 12
s30.167 25 33.5 51h55z" />
    <glyph glyph-name="Uring" unicode="&#x16e;" horiz-adv-x="731" 
d="M640 714v-461.999c0 -49.333 -10 -93.833 -30 -133.5s-50.667 -71 -92 -94s-93.333 -34.5 -156 -34.5c-89.333 0 -157 24.167 -203 72.5s-69 112.166 -69 191.499v460h90v-463c0 -58 15.5 -103 46.5 -135s77.833 -48 140.5 -48c64.667 0 111.5 17.167 140.5 51.5
s43.5 78.5 43.5 132.5v462h89zM367 784.001c-32.667 0 -58.999 9.33398 -78.999 28.001s-30 44.667 -30 78s10 59.166 30 77.499s46.333 27.5 79 27.5c31.333 0 57.666 -9.16699 78.999 -27.5s32 -43.833 32 -76.5c0 -34 -10.5 -60.333 -31.5 -79s-47.5 -28 -79.5 -28z
M367.001 834.002c16.667 0 30.167 5 40.5 15s15.5 23.667 15.5 41s-5.33301 31 -16 41s-24 15 -40 15s-29.333 -5 -40 -15s-16 -23.667 -16 -41s4.83301 -31 14.5 -41s23.5 -15 41.5 -15z" />
    <glyph glyph-name="uring" unicode="&#x16f;" horiz-adv-x="618" 
d="M533 536l0.00195312 -536h-72l-13 71h-4c-17.333 -28 -41.333 -48.5 -72 -61.5s-63.334 -19.5 -98.001 -19.5c-64.667 0 -113.334 15.5 -146.001 46.5s-49 80.5 -49 148.5v351h89v-345c0 -85.333 39.667 -128 119 -128c59.333 0 100.5 16.667 123.5 50
s34.5 81.333 34.5 144v279h88zM310.002 606c-32.667 0 -58.999 9.33398 -78.999 28.001s-30 44.667 -30 78s10 59.166 30 77.499s46.333 27.5 79 27.5c31.333 0 57.666 -9.16699 78.999 -27.5s32 -43.833 32 -76.5c0 -34 -10.5 -60.333 -31.5 -79s-47.5 -28 -79.5 -28z
M310.003 656.001c16.667 0 30.167 5 40.5 15s15.5 23.667 15.5 41s-5.33301 31 -16 41s-24 15 -40 15s-29.333 -5 -40 -15s-16 -23.667 -16 -41s4.83301 -31 14.5 -41s23.5 -15 41.5 -15z" />
    <glyph glyph-name="Uhungarumlaut" unicode="&#x170;" horiz-adv-x="731" 
d="M640 714v-461.999c0 -49.333 -10 -93.833 -30 -133.5s-50.667 -71 -92 -94s-93.333 -34.5 -156 -34.5c-89.333 0 -157 24.167 -203 72.5s-69 112.166 -69 191.499v460h90v-463c0 -58 15.5 -103 46.5 -135s77.833 -48 140.5 -48c64.667 0 111.5 17.167 140.5 51.5
s43.5 78.5 43.5 132.5v462h89zM601 944.001l-0.000976562 -9.99902c-7.33301 -12 -18.666 -27.5 -33.999 -46.5s-32 -38 -50 -57s-34.333 -34.5 -49 -46.5h-50v12c9.33301 12.667 19.333 27.667 30 45s21 35.166 31 53.499s18.667 34.833 26 49.5h96zM424.999 944.002
v-10.002c-7.33301 -12 -18.666 -27.5 -33.999 -46.5s-32 -38 -50 -57s-34.333 -34.5 -49 -46.5h-50v12c14 18.667 29.167 42.334 45.5 71.001s30.166 54.334 41.499 77.001h96z" />
    <glyph glyph-name="uhungarumlaut" unicode="&#x171;" horiz-adv-x="618" 
d="M533 536l0.00195312 -536h-72l-13 71h-4c-17.333 -28 -41.333 -48.5 -72 -61.5s-63.334 -19.5 -98.001 -19.5c-64.667 0 -113.334 15.5 -146.001 46.5s-49 80.5 -49 148.5v351h89v-345c0 -85.333 39.667 -128 119 -128c59.333 0 100.5 16.667 123.5 50
s34.5 81.333 34.5 144v279h88zM544.002 766l-0.000976562 -9.99902c-7.33301 -12 -18.666 -27.5 -33.999 -46.5s-32 -38 -50 -57s-34.333 -34.5 -49 -46.5h-50v12c9.33301 12.667 19.333 27.667 30 45s21 35.166 31 53.499s18.667 34.833 26 49.5h96zM368.001 766.001
v-10.002c-7.33301 -12 -18.666 -27.5 -33.999 -46.5s-32 -38 -50 -57s-34.333 -34.5 -49 -46.5h-50v12c14 18.667 29.167 42.334 45.5 71.001s30.166 54.334 41.499 77.001h96z" />
    <glyph glyph-name="Uogonek" unicode="&#x172;" horiz-adv-x="731" 
d="M466 -107c0 -19.333 4.00098 -33.166 12.001 -41.499s19 -12.5 33 -12.5c11.333 0 20.833 0.833008 28.5 2.5s14.167 2.83398 19.5 3.50098v-56c-9.33301 -2.66699 -18.833 -4.83398 -28.5 -6.50098s-20.834 -2.5 -33.501 -2.5c-35.333 0 -61.333 8.66699 -78 26
s-25 43 -25 77c0 20.667 5.33301 41.167 16 61.5s23 38.5 37 54.5c-26 -6 -54.333 -9 -85 -9c-89.333 0 -157 24.167 -203 72.5s-69 112.166 -69 191.499v460h90v-463c0 -58 15.5 -103 46.5 -135s77.833 -48 140.5 -48c64.667 0 111.5 17.167 140.5 51.5
s43.5 78.5 43.5 132.5v462h89v-462c0 -42 -7.33301 -80.667 -22 -116s-36.667 -65 -66 -89c-29.333 -33.333 -51 -61.5 -65 -84.5s-21 -46.167 -21 -69.5z" />
    <glyph glyph-name="uogonek" unicode="&#x173;" horiz-adv-x="618" 
d="M533 536l0.00195312 -536h-72l-13 71h-4c-17.333 -28 -41.333 -48.5 -72 -61.5s-63.334 -19.5 -98.001 -19.5c-64.667 0 -113.334 15.5 -146.001 46.5s-49 80.5 -49 148.5v351h89v-345c0 -85.333 39.667 -128 119 -128c59.333 0 100.5 16.667 123.5 50
s34.5 81.333 34.5 144v279h88zM448.002 -116c0 -30 15.002 -44.999 45.002 -44.999c11.333 0 20.833 0.833008 28.5 2.5s14.167 2.83398 19.5 3.50098v-56c-9.33301 -2.66699 -18.833 -4.83398 -28.5 -6.50098s-20.834 -2.5 -33.501 -2.5c-35.333 0 -61.333 8.33301 -78 25
s-25 39.667 -25 69c0 18.667 4.83301 37.167 14.5 55.5s21.667 34.833 36 49.5s28.166 26.667 41.499 36l48 -15c-22.667 -21.333 -39.667 -40.833 -51 -58.5s-17 -36.834 -17 -57.501z" />
    <glyph glyph-name="Wcircumflex" unicode="&#x174;" horiz-adv-x="930" 
d="M917 714l-189.998 -713.998h-91l-139 468c-6 18.667 -11.5 37.834 -16.5 57.501l-13 52c-3.66699 15 -5.83398 25.5 -6.50098 31.5c-0.666992 -8.66699 -4.33398 -27.167 -11.001 -55.5s-14.334 -57.833 -23.001 -88.5l-135 -465h-91l-189 714h94l111 -436
c8 -30.667 14.833 -60.334 20.5 -89.001s10.167 -55.667 13.5 -81c3.33301 26 8.33301 54.333 15 85s14.334 60.667 23.001 90l126 431h93l131 -434c9.33301 -30.667 17.333 -61.334 24 -92.001s11.667 -57.334 15 -80.001c2.66699 24.667 7.16699 51.5 13.5 80.5
s13.5 59.167 21.5 90.5l110 435h94zM511.002 944.002c8 -14.667 19.499 -31.167 34.499 -49.5s30.667 -36.333 47 -54l43.5 -45.5v-11h-62c-17.333 10.667 -35.333 23.834 -54 39.501s-37 32.5 -55 50.5c-18 -18 -36 -34.833 -54 -50.5s-35.667 -28.834 -53 -39.501h-60v11
l42 45.5c16 17.667 31.333 35.667 46 54s26.334 34.833 35.001 49.5h90z" />
    <glyph glyph-name="wcircumflex" unicode="&#x175;" horiz-adv-x="786" 
d="M523 1l-92 302c-8.66699 27.333 -16.334 54 -23.001 80s-11.334 46.667 -14.001 62h-4c-2.66699 -15.333 -7 -36 -13 -62s-13.667 -53 -23 -81l-96 -301h-100l-147 536h91l74 -286c7.33301 -28.667 14.333 -57.667 21 -87s11.334 -53.666 14.001 -72.999h4
c2 11.333 5 25.333 9 42l13 52.5c4.66699 18.333 9.33398 34.833 14.001 49.5l95 302h96l92 -302l21 -75c7.33301 -26.667 12.333 -49.334 15 -68.001h4c2 16.667 6.5 39.667 13.5 69l22.5 90l75 286h90l-149 -536h-103zM439 766c8 -14.667 19.499 -31.167 34.499 -49.5
s30.667 -36.333 47 -54l43.5 -45.5v-11h-62c-17.333 10.667 -35.333 23.834 -54 39.501s-37 32.5 -55 50.5c-18 -18 -36 -34.833 -54 -50.5s-35.667 -28.834 -53 -39.501h-60v11l42 45.5c16 17.667 31.333 35.667 46 54s26.334 34.833 35.001 49.5h90z" />
    <glyph glyph-name="Ycircumflex" unicode="&#x176;" horiz-adv-x="566" 
d="M283 363l186 351h97l-238 -437v-277h-90v273l-238 441h98zM329 944c8 -14.667 19.499 -31.167 34.499 -49.5s30.667 -36.333 47 -54l43.5 -45.5v-11h-62c-17.333 10.667 -35.333 23.834 -54 39.501s-37 32.5 -55 50.5c-18 -18 -36 -34.833 -54 -50.5
s-35.667 -28.834 -53 -39.501h-60v11l42 45.5c16 17.667 31.333 35.667 46 54s26.334 34.833 35.001 49.5h90z" />
    <glyph glyph-name="ycircumflex" unicode="&#x177;" horiz-adv-x="510" 
d="M1 536l94 -0.000976562l116 -305c10 -27.333 19 -53 27 -77s14 -47 18 -69h4c4 16.667 10.333 38.5 19 65.5l27 81.5l109 304h95l-231 -610c-19.333 -50.667 -43.666 -91 -72.999 -121s-70 -45 -122 -45c-16 0 -30 0.833008 -42 2.5s-22.333 3.5 -31 5.5v70
c7.33301 -1.33301 16.166 -2.66602 26.499 -3.99902s21.166 -2 32.499 -2c30.667 0 55.334 8.66699 74.001 26s33.667 40.333 45 69l28 71zM301 765.999c8 -14.667 19.499 -31.167 34.499 -49.5s30.667 -36.333 47 -54l43.5 -45.5v-11h-62
c-17.333 10.667 -35.333 23.834 -54 39.501s-37 32.5 -55 50.5c-18 -18 -36 -34.833 -54 -50.5s-35.667 -28.834 -53 -39.501h-60v11l42 45.5c16 17.667 31.333 35.667 46 54s26.334 34.833 35.001 49.5h90z" />
    <glyph glyph-name="Ydieresis" unicode="&#x178;" horiz-adv-x="566" 
d="M283 363l186 351h97l-238 -437v-277h-90v273l-238 441h98zM142 859c0 17.333 4.5 29.833 13.5 37.5s20.167 11.5 33.5 11.5c12.667 0 23.667 -3.83301 33 -11.5s14 -20.167 14 -37.5c0 -16.667 -4.66699 -29.167 -14 -37.5s-20.333 -12.5 -33 -12.5
c-13.333 0 -24.5 4.16699 -33.5 12.5s-13.5 20.833 -13.5 37.5zM330 859c0 17.333 4.5 29.833 13.5 37.5s19.833 11.5 32.5 11.5s23.667 -3.83301 33 -11.5s14 -20.167 14 -37.5c0 -16.667 -4.66699 -29.167 -14 -37.5s-20.333 -12.5 -33 -12.5s-23.5 4.16699 -32.5 12.5
s-13.5 20.833 -13.5 37.5z" />
    <glyph glyph-name="Zacute" unicode="&#x179;" horiz-adv-x="572" 
d="M533 0h-495v68l376 566h-364v80h473v-68l-376 -566h386v-80zM431 944l0.000976562 -10c-8.66699 -12 -21.167 -27.5 -37.5 -46.5s-34 -38 -53 -57s-36.5 -34.5 -52.5 -46.5h-58v12c9.33301 12 20 26.833 32 44.5l35 54c11.333 18.333 20.666 34.833 27.999 49.5h106z" />
    <glyph glyph-name="zacute" unicode="&#x17a;" horiz-adv-x="470" 
d="M431 0h-392v58l288 410h-271v68h368v-66l-284 -402h291v-68zM376 766l0.000976562 -10c-8.66699 -12 -21.167 -27.5 -37.5 -46.5s-34 -38 -53 -57s-36.5 -34.5 -52.5 -46.5h-58v12c9.33301 12 20 26.833 32 44.5l35 54c11.333 18.333 20.666 34.833 27.999 49.5h106z" />
    <glyph glyph-name="Zdotaccent" unicode="&#x17b;" horiz-adv-x="572" 
d="M533 0h-495v68l376 566h-364v80h473v-68l-376 -566h386v-80zM293 915c13.333 0 25.166 -4.5 35.499 -13.5s15.5 -23.167 15.5 -42.5s-5.16699 -33.5 -15.5 -42.5s-22.166 -13.5 -35.499 -13.5c-14.667 0 -27 4.5 -37 13.5s-15 23.167 -15 42.5s5 33.5 15 42.5
s22.333 13.5 37 13.5z" />
    <glyph glyph-name="zdotaccent" unicode="&#x17c;" horiz-adv-x="470" 
d="M431 0h-392v58l288 410h-271v68h368v-66l-284 -402h291v-68zM238 737c13.333 0 25.166 -4.5 35.499 -13.5s15.5 -23.167 15.5 -42.5s-5.16699 -33.5 -15.5 -42.5s-22.166 -13.5 -35.499 -13.5c-14.667 0 -27 4.5 -37 13.5s-15 23.167 -15 42.5s5 33.5 15 42.5
s22.333 13.5 37 13.5z" />
    <glyph glyph-name="Zcaron" unicode="&#x17d;" horiz-adv-x="572" 
d="M533 0h-495v68l376 566h-364v80h473v-68l-376 -566h386v-80zM244 784c-8.66699 14.667 -20.334 31 -35.001 49s-30 35.667 -46 53l-42 45v13h60c17.333 -11.333 35.333 -25 54 -41s36.334 -33 53.001 -51c18 18 36.333 35 55 51s36.667 29.667 54 41h62v-13l-43.5 -45
c-16.333 -17.333 -32 -35 -47 -53s-26.5 -34.333 -34.5 -49h-90z" />
    <glyph glyph-name="zcaron" unicode="&#x17e;" horiz-adv-x="470" 
d="M431 0h-392v58l288 410h-271v68h368v-66l-284 -402h291v-68zM189 606c-8.66699 14.667 -20.334 31 -35.001 49s-30 35.667 -46 53l-42 45v13h60c17.333 -11.333 35.333 -25 54 -41s36.334 -33 53.001 -51c18 18 36.333 35 55 51s36.667 29.667 54 41h62v-13l-43.5 -45
c-16.333 -17.333 -32 -35 -47 -53s-26.5 -34.333 -34.5 -49h-90z" />
    <glyph glyph-name="longs" unicode="&#x17f;" horiz-adv-x="326" 
d="M261 692c-27.333 0 -48.8311 -8.66602 -64.498 -25.999s-23.5 -47 -23.5 -89v-577h-88v577c0 68.667 16.167 117.167 48.5 145.5s75.166 42.5 128.499 42.5c20.667 0 39.167 -1.83301 55.5 -5.5s31.166 -8.16699 44.499 -13.5l-23 -69
c-10.667 3.33301 -23 6.66602 -37 9.99902s-27.667 5 -41 5z" />
    <glyph glyph-name="uni0180" unicode="&#x180;" horiz-adv-x="615" 
d="M339 -10c-42 0 -76.333 7.66895 -103 23.002s-47.667 33.666 -63 54.999h-7l-18 -68h-63v605h-76v66h76v89h88v-89h213v-66h-213v-30c0 -22.667 -0.5 -43.834 -1.5 -63.501s-2.16699 -35.167 -3.5 -46.5h5c15.333 22.667 36.333 41.667 63 57s61 23 103 23
c66.667 0 120.167 -23.167 160.5 -69.5s60.5 -115.5 60.5 -207.5s-20.333 -161.333 -61 -208s-94 -70 -160 -70zM326 63.002c48 0 83.832 17.668 107.499 53.001s35.5 86.333 35.5 153c0 135.333 -48.333 203 -145 203c-57.333 0 -96.833 -16.333 -118.5 -49
s-32.5 -83.334 -32.5 -152.001v-4c0 -66 10.833 -116.5 32.5 -151.5s61.834 -52.5 120.501 -52.5z" />
    <glyph glyph-name="uni0181" unicode="&#x181;" horiz-adv-x="730" 
d="M177 0v637h-26c-20.667 0 -36 -4.5 -46 -13.5s-15 -21.167 -15 -36.5c0 -11.333 1.16699 -22 3.5 -32s4.5 -17.333 6.5 -22h-79c-3.33301 7.33301 -6 16.333 -8 27s-3 20 -3 28c0 42.667 11.5 74.334 34.5 95.001s58.5 31 106.5 31h230c88.667 0 156 -13.333 202 -40
s69 -72.334 69 -137.001c0 -42 -11.667 -76.833 -35 -104.5s-57 -45.5 -101 -53.5v-5c30 -5.33301 57.167 -14.333 81.5 -27s43.5 -30.667 57.5 -54s21 -53.333 21 -90c0 -64.667 -22.167 -114.667 -66.5 -150s-104.833 -53 -181.5 -53h-251zM267 410l132.001 -0.000976562
c60.667 0 102.5 9.83301 125.5 29.5s34.5 48.834 34.5 87.501c0 39.333 -13.833 67.5 -41.5 84.5s-71.834 25.5 -132.501 25.5h-118v-227zM267.001 75.999h144c63.333 0 107.333 12.333 132 37s37 57 37 97c0 37.333 -12.833 67.5 -38.5 90.5s-71.5 34.5 -137.5 34.5h-137
v-259z" />
    <glyph glyph-name="uni0182" unicode="&#x182;" horiz-adv-x="615" 
d="M97 0l0.000976562 713.999h424v-79h-334v-223h106c71.333 0 126.666 -8.83301 165.999 -26.5s66.666 -41.667 81.999 -72s23 -65.166 23 -104.499c0 -65.333 -19.667 -116.5 -59 -153.5s-105.666 -55.5 -198.999 -55.5h-209zM187.001 76.999l110.001 -0.000976562
c64 0 109 10.833 135 32.5s39 54.834 39 99.501c0 46 -14.333 78.333 -43 97s-77.334 28 -146.001 28h-95v-257z" />
    <glyph glyph-name="uni0183" unicode="&#x183;" horiz-adv-x="615" 
d="M339 -10c-42 0 -76.333 7.66895 -103 23.002s-47.667 33.666 -63 54.999h-7l-18 -68h-63v760h421v-74h-333v-111c0 -22.667 -0.5 -43.834 -1.5 -63.501s-2.16699 -35.167 -3.5 -46.5h5c15.333 22.667 36.333 41.667 63 57s61 23 103 23
c66.667 0 120.167 -23.167 160.5 -69.5s60.5 -115.5 60.5 -207.5s-20.333 -161.333 -61 -208s-94 -70 -160 -70zM326 63.002c48 0 83.832 17.668 107.499 53.001s35.5 86.333 35.5 153c0 135.333 -48.333 203 -145 203c-57.333 0 -96.833 -16.333 -118.5 -49
s-32.5 -83.334 -32.5 -152.001v-4c0 -66 10.833 -116.5 32.5 -151.5s61.834 -52.5 120.501 -52.5z" />
    <glyph glyph-name="uni0184" unicode="&#x184;" horiz-adv-x="635" 
d="M341 -10c-62 0 -111.332 9.33301 -147.999 28s-63 44.5 -79 77.5s-24 71.167 -24 114.5v504h90v-302h134c66.667 0 119.667 -9.33301 159 -28s67.666 -43.667 84.999 -75s26 -66 26 -104c0 -63.333 -20 -115 -60 -155s-101 -60 -183 -60zM340.001 67
c53.333 0 91.833 11.832 115.5 35.499s35.5 57.834 35.5 102.501c0 46 -16 79 -48 99s-78.667 30 -140 30h-123v-124c0 -52 12.5 -88.833 37.5 -110.5s65.833 -32.5 122.5 -32.5z" />
    <glyph glyph-name="uni0185" unicode="&#x185;" horiz-adv-x="612" 
d="M322 -10c-73.333 0 -131.667 23.168 -175 69.501s-65 115.5 -65 207.5v493h88v-185c0 -22.667 -0.666992 -43.834 -2 -63.501s-2.33301 -35.167 -3 -46.5h5c14.667 22.667 35.5 41.667 62.5 57s61.5 23 103.5 23c66.667 0 120.167 -23.167 160.5 -69.5
s60.5 -115.5 60.5 -207.5s-21 -161.333 -63 -208s-99.333 -70 -172 -70zM322.999 63.001c48 0 83.833 17.668 107.5 53.001s35.5 86.333 35.5 153c0 135.333 -48.333 203 -145 203c-56.667 0 -96 -16.333 -118 -49s-33 -83.334 -33 -152.001v-6
c0 -64 13.5 -113.667 40.5 -149s64.5 -53 112.5 -53z" />
    <glyph glyph-name="uni0186" unicode="&#x186;" horiz-adv-x="632" 
d="M243 -10c-39.333 0 -73.1641 2.33398 -101.497 7.00098s-55.833 12 -82.5 22v78c27.333 -8 54.666 -14.667 81.999 -20s56.666 -8 87.999 -8c76.667 0 137 25.667 181 77s66 121.666 66 210.999c0 88.667 -20.667 158.834 -62 210.501s-103 77.5 -185 77.5
c-32 0 -61.5 -4 -88.5 -12s-51.5 -17 -73.5 -27l-36 76c27.333 13.333 58.666 23.666 93.999 30.999s74.666 11 117.999 11c72.667 0 133.334 -15 182.001 -45s85.167 -72.667 109.5 -128s36.5 -120.333 36.5 -195c0 -72 -13 -135.5 -39 -190.5s-63.5 -98 -112.5 -129
s-107.833 -46.5 -176.5 -46.5z" />
    <glyph glyph-name="uni0187" unicode="&#x187;" horiz-adv-x="632" 
d="M636 858c12.667 0 24.1709 -1.33301 34.5039 -4s18.833 -5.66699 25.5 -9v-72c-4.66699 2 -11.834 4.16699 -21.501 6.5s-19.834 3.5 -30.501 3.5c-31.333 0 -47 -16 -47 -48v-51l-36 -78c-22 10 -45.833 19 -71.5 27s-54.5 12 -86.5 12c-76.667 0 -137 -25.667 -181 -77
s-66 -121.666 -66 -210.999c0 -88.667 20.5 -158.834 61.5 -210.501s102.5 -77.5 184.5 -77.5c30.667 0 60 2.66699 88 8s55.667 12 83 20v-78c-26.667 -10 -54.167 -17.333 -82.5 -22s-62.166 -7 -101.499 -7c-72.667 0 -133.334 15 -182.001 45s-85.167 72.667 -109.5 128
s-36.5 120.333 -36.5 195c0 72 13.167 135.5 39.5 190.5s65.166 98 116.499 129s113.666 46.5 186.999 46.5c39.333 0 78.333 -4.66699 117 -14v14c0 42.667 8.83301 75.667 26.5 99s47.167 35 88.5 35z" />
    <glyph glyph-name="uni0188" unicode="&#x188;" horiz-adv-x="503" 
d="M300 -10c-48 0 -90.333 9.66797 -127 29.001s-65.5 49.333 -86.5 90s-31.5 92.667 -31.5 156c0 66 10.833 119.667 32.5 161s51.5 71.666 89.5 90.999s81 29 129 29c10.667 0 21.5 -0.666992 32.5 -2l32.5 -4v91c0 43.333 8.83301 76.5 26.5 99.5s47.167 34.5 88.5 34.5
c12.667 0 24.167 -1.5 34.5 -4.5s18.833 -5.83301 25.5 -8.5v-73c-4.66699 2 -11.834 4.16699 -21.501 6.5s-19.834 3.5 -30.501 3.5c-31.333 0 -47 -16 -47 -48v-124l-27 -73c-16 6 -34.667 11.667 -56 17s-41.333 8 -60 8c-105.333 0 -158 -67.667 -158 -203
c0 -64.667 12.833 -114.167 38.5 -148.5s63.834 -51.5 114.501 -51.5c28.667 0 54.334 3 77.001 9s43.334 13.333 62.001 22v-78c-18 -9.33301 -37.833 -16.5 -59.5 -21.5s-47.834 -7.5 -78.501 -7.5z" />
    <glyph glyph-name="uni0189" unicode="&#x189;" horiz-adv-x="730" 
d="M317 714c71.333 0 133.333 -13.333 186 -40s93.5 -66 122.5 -118s43.5 -116 43.5 -192c0 -120.667 -32.833 -211.5 -98.5 -272.5s-157.5 -91.5 -275.5 -91.5h-191v314h-74v78h74v322h213zM304 637l-110.001 0.000976562v-245h178v-78h-178v-237h90
c193.333 0 290 94.667 290 284c0 95.333 -23.667 165.166 -71 209.499s-113.666 66.5 -198.999 66.5z" />
    <glyph glyph-name="uni018A" unicode="&#x18a;" horiz-adv-x="810" 
d="M177 0v636.999h-26c-20.667 0 -36 -4.5 -46 -13.5s-15 -21.167 -15 -36.5c0 -11.333 1.16699 -22 3.5 -32s4.5 -17.333 6.5 -22h-79c-3.33301 7.33301 -6 16.333 -8 27s-3 20 -3 28c0 42.667 11.5 74.334 34.5 95.001s58.5 31 106.5 31h246
c71.333 0 133.5 -13.333 186.5 -40s93.833 -66 122.5 -118s43 -116 43 -192c0 -120.667 -32.833 -211.5 -98.5 -272.5s-157.167 -91.5 -274.5 -91.5h-199zM267 76.999l97 0.000976562c193.333 0 290 94.667 290 284c0 95.333 -23.5 165.166 -70.5 209.499
s-113.5 66.5 -199.5 66.5h-117v-560z" />
    <glyph glyph-name="uni018B" unicode="&#x18b;" horiz-adv-x="615" 
d="M319 0c-93.333 0 -161.334 17.332 -204.001 51.999s-64 83.334 -64 146.001c0 37.333 8.83301 72.333 26.5 105s47.334 59 89.001 79s98.167 30 169.5 30h92v223h-334v79h424v-714h-199zM326.999 76.999h101.001v258h-82c-68 0 -118.667 -10.167 -152 -30.5
s-50 -54.5 -50 -102.5c0 -42 14.667 -73.333 44 -94s75.666 -31 138.999 -31z" />
    <glyph glyph-name="uni018C" unicode="&#x18c;" horiz-adv-x="615" 
d="M275 -10c-66.667 0 -120 23.167 -160 69.5s-60 115.5 -60 207.5s20.167 161.5 60.5 208.5s93.833 70.5 160.5 70.5c41.333 0 75.166 -7.66699 101.499 -23s47.833 -34 64.5 -56h6c-1.33301 8.66699 -2.66602 21.5 -3.99902 38.5s-2 30.5 -2 40.5v140h-333v74h421v-760
h-71l-13 72h-4c-16 -22.667 -37.333 -42 -64 -58s-61 -24 -103 -24zM289 63c56.667 0 96.5 15.499 119.5 46.499s34.5 77.833 34.5 140.5v16c0 66.667 -11 117.834 -33 153.501s-62.667 53.5 -122 53.5c-47.333 0 -82.833 -18.833 -106.5 -56.5s-35.5 -88.167 -35.5 -151.5
c0 -64 11.833 -113.667 35.5 -149s59.5 -53 107.5 -53z" />
    <glyph glyph-name="uni018D" unicode="&#x18d;" horiz-adv-x="604" 
d="M285 -224c-46 0 -85.335 5.66406 -118.002 16.9971s-62 23.666 -88 36.999l38 69c24.667 -14 51 -26 79 -36s59 -15 93 -15c30 0 52 6.83301 66 20.5s21 29.834 21 48.501c0 16 -4.33301 30.5 -13 43.5s-22.667 26.167 -42 39.5s-45.666 29 -78.999 47
c-60.667 32.667 -107.167 68.5 -139.5 107.5s-48.5 87.5 -48.5 145.5c0 80 22.833 141 68.5 183s106.167 63 181.5 63c48 0 90.5 -8.66699 127.5 -26s66 -42.666 87 -75.999s31.5 -74 31.5 -122c0 -42.667 -9.16699 -80 -27.5 -112s-43.333 -58.667 -75 -80
s-67.167 -38 -106.5 -50c37.333 -21.333 67.333 -44.666 90 -69.999s34 -56.666 34 -93.999c0 -46 -17.167 -80.833 -51.5 -104.5s-77.166 -35.5 -128.499 -35.5zM270.998 117.997c20.667 5.33301 41.833 12.666 63.5 21.999s41.834 21.833 60.501 37.5
s33.834 35.334 45.501 59.001s17.5 52.5 17.5 86.5c0 44 -13.5 80 -40.5 108s-64.833 42 -113.5 42c-50.667 0 -89.834 -14.833 -117.501 -44.5s-41.5 -72.167 -41.5 -127.5c0 -44.667 11.167 -81.167 33.5 -109.5s53.166 -52.833 92.499 -73.5z" />
    <glyph glyph-name="uni018E" unicode="&#x18e;" horiz-adv-x="556" 
d="M60 0v79h309v255h-291v78h291v223h-309v79h399v-714h-399z" />
    <glyph glyph-name="uni018F" unicode="&#x18f;" horiz-adv-x="739" 
d="M332 646c-45.333 0 -86.6689 -4.00098 -124.002 -12.001s-72 -17.667 -104 -29v82c29.333 10.667 61.833 19.667 97.5 27s79.834 11 132.501 11c74.667 0 137.5 -15.333 188.5 -46s89.5 -73.5 115.5 -128.5s39 -119.833 39 -194.5c0 -74 -12.333 -138.333 -37 -193
s-60.834 -97.167 -108.501 -127.5s-106.5 -45.5 -176.5 -45.5c-71.333 0 -128.666 15.167 -171.999 45.5s-74.833 73 -94.5 128s-29.5 119.5 -29.5 193.5v34h523c-5.33301 80.667 -28.166 143.334 -68.499 188.001s-100.833 67 -181.5 67zM354.997 68.999
c65.333 0 118.169 20.832 158.502 62.499s63.166 101.834 68.499 180.501h-427c0 -50 6.33301 -93.167 19 -129.5s33.667 -64.333 63 -84s68.666 -29.5 117.999 -29.5z" />
    <glyph glyph-name="uni0190" unicode="&#x190;" horiz-adv-x="588" 
d="M314 724c49.333 0 93.6641 -7.16602 132.997 -21.499s72.666 -31.833 99.999 -52.5l-43 -61c-26.667 18 -54 32.667 -82 44s-63.333 17 -106 17c-40 0 -72.667 -9.66699 -98 -29s-38 -47 -38 -83c0 -40 16 -71.833 48 -95.5s80.333 -35.5 145 -35.5h97v-75h-102
c-69.333 0 -123.333 -10.333 -162 -31s-58 -53.667 -58 -99c0 -44 16.167 -78 48.5 -102s78.833 -36 139.5 -36c36.667 0 73.834 5 111.501 15s71.834 22.333 102.501 37v-82c-30 -14.667 -63 -25.667 -99 -33s-76 -11 -120 -11c-67.333 0 -121.166 8.83301 -161.499 26.5
s-69.666 42 -87.999 73s-27.5 66.167 -27.5 105.5c0 50.667 15.667 91 47 121s77 49 137 57v4c-46 8 -82.667 26.167 -110 54.5s-41 66.833 -41 115.5c0 51.333 19.333 93.666 58 126.999s95 50 169 50z" />
    <glyph glyph-name="uni0191" unicode="&#x191;" horiz-adv-x="519" 
d="M45 -240c-12 0 -22.501 1.16699 -31.501 3.5s-17.167 5.5 -24.5 9.5v76c6.66699 -3.33301 13.667 -5.83301 21 -7.5s15.333 -2.5 24 -2.5c20.667 0 36.334 5.83301 47.001 17.5s16 33.167 16 64.5v793h399v-79h-309v-253h290v-79h-290v-386
c0 -55.333 -12.5 -95.333 -37.5 -120s-59.833 -37 -104.5 -37z" />
    <glyph glyph-name="florin" unicode="&#x192;" horiz-adv-x="572" 
d="M407 724c20.667 0 39.8311 -2.33105 57.498 -6.99805s32.834 -9.33398 45.501 -14.001l-22 -68c-10.667 3.33301 -22.834 6.83301 -36.501 10.5s-27.5 5.5 -41.5 5.5c-29.333 0 -50.666 -7.83301 -63.999 -23.5s-20 -43.834 -20 -84.501v-69h135v-68h-133v-470
c0 -65.333 -14.5 -111 -43.5 -137s-70.167 -39 -123.5 -39c-12.667 0 -25 0.833008 -37 2.5s-22.333 3.83398 -31 6.50098v73c10 -2.66699 20.333 -4.83398 31 -6.50098s21.334 -2.5 32.001 -2.5c28 0 48.667 7.33301 62 22s20 41.667 20 81v470h-105v41l105 30v65
c0 69.333 14.667 117 44 143s71 39 125 39z" />
    <glyph glyph-name="uni0193" unicode="&#x193;" horiz-adv-x="728" 
d="M683 858c12.667 0 24 -1.33105 34 -3.99805s18.667 -5.66699 26 -9v-72c-4.66699 2 -11.667 4.16699 -21 6.5s-19.666 3.5 -30.999 3.5c-31.333 0 -47 -16 -47 -48v-53l-34 -78c-25.333 10.667 -53.833 20.167 -85.5 28.5s-64.5 12.5 -98.5 12.5
c-85.333 0 -151.833 -25.833 -199.5 -77.5s-71.5 -121.834 -71.5 -210.501c0 -56.667 9.16699 -106.834 27.5 -150.501s47.166 -77.667 86.499 -102s91 -36.5 155 -36.5c31.333 0 58 1.66699 80 5s42 7.33301 60 12v212h-157v80h247v-350
c-38.667 -12.667 -77.667 -22 -117 -28s-84 -9 -134 -9c-74 0 -136.333 14.833 -187 44.5s-89.167 72 -115.5 127s-39.5 120.167 -39.5 195.5c0 74 14.5 138.5 43.5 193.5s71.167 97.667 126.5 128s122 45.5 200 45.5c48 0 93.667 -5.66699 137 -17v17
c0 42.667 9 75.667 27 99s47.333 35 88 35z" />
    <glyph glyph-name="uni0194" unicode="&#x194;" horiz-adv-x="570" 
d="M285 -240c-36 0 -64.335 12.6699 -85.002 38.0029s-31 57 -31 95c0 29.333 6.66699 63.333 20 102s29 76 47 112l-236 607h94l141 -373c11.333 -29.333 21.333 -56.833 30 -82.5s15.334 -50.167 20.001 -73.5c4.66699 23.333 11.334 48.166 20.001 74.499
s18.667 54.166 30 83.499l140 371h95l-236 -606c22 -43.333 38.667 -83.833 50 -121.5s17 -68.834 17 -93.501c0 -37.333 -10.333 -68.833 -31 -94.5s-49 -38.5 -85 -38.5zM284.998 -161.997c22.667 0 34 19 34 57c0 15.333 -2.66699 35 -8 59s-14 47.667 -26 71
c-12.667 -24.667 -21.5 -48.5 -26.5 -71.5s-7.5 -41.833 -7.5 -56.5c0 -20.667 3.16699 -35.667 9.5 -45s14.5 -14 24.5 -14z" />
    <glyph glyph-name="uni0195" unicode="&#x195;" horiz-adv-x="934" 
d="M639 -10c-70.667 0 -124 15.502 -160 46.502s-54 80.833 -54 149.5v157c0 43.333 -8.83301 75.666 -26.5 96.999s-45.167 32 -82.5 32c-54.667 0 -92.167 -16.833 -112.5 -50.5s-30.5 -81.834 -30.5 -144.501v-277h-88v760h88v-223c0 -26.667 -1.66699 -51.667 -5 -75h6
c16 27.333 38 48 66 62s58 21 90 21c60.667 0 106.334 -15.5 137.001 -46.5s46 -80.833 46 -149.5v-157c0 -86 42 -129 126 -129c43.333 0 75.166 11.5 95.499 34.5s30.5 61.167 30.5 114.5v324h88v-327c0 -80 -17.833 -136.5 -53.5 -169.5s-89.167 -49.5 -160.5 -49.5z" />
    <glyph glyph-name="uni0196" unicode="&#x196;" horiz-adv-x="348" 
d="M243 -10c-29.333 0 -55.5039 4.83398 -78.5039 14.501s-41.167 26.667 -54.5 51s-20 58.166 -20 101.499v557h89v-549c0 -32 6.16699 -56 18.5 -72s31.833 -24 58.5 -24c14.667 0 29.834 1.16699 45.501 3.5s27.834 4.83301 36.501 7.5v-74
c-9.33301 -4.66699 -23.166 -8.5 -41.499 -11.5s-36.166 -4.5 -53.499 -4.5z" />
    <glyph glyph-name="uni0197" unicode="&#x197;" horiz-adv-x="339" 
d="M298 714v-52l-84 -20v-237h90v-78h-90v-256l84 -19v-52h-258v52l84 19v256h-90v78h90v237l-84 20v52h258z" />
    <glyph glyph-name="uni0198" unicode="&#x198;" horiz-adv-x="619" 
d="M553 720c11.333 0 20.998 -0.666992 28.998 -2s15 -3.33301 21 -6v-70c-4.66699 1.33301 -11.667 2.16602 -21 2.49902s-17 0.5 -23 0.5c-8.66699 0 -18 -2.5 -28 -7.5s-23.333 -17.833 -40 -38.5l-164 -194l292 -405h-106l-247 342l-79 -77v-265h-90v714h90v-360
c18.667 23.333 38.834 47.333 60.501 72s41.834 49 60.501 73l124 152c16 20.667 30.5 35.834 43.5 45.501s25.5 16 37.5 19s25.333 4.5 40 4.5z" />
    <glyph glyph-name="uni0199" unicode="&#x199;" horiz-adv-x="534" 
d="M206 765c12.667 0 24.832 -1.5 36.499 -4.5s21.167 -5.83301 28.5 -8.5v-73c-4.66699 2 -11.667 4.16699 -21 6.5s-19.666 3.5 -30.999 3.5c-15.333 0 -27 -4.5 -35 -13.5s-12 -23.833 -12 -44.5v-268c0 -10.667 -0.333008 -24.667 -1 -42s-1.66699 -32.333 -3 -45h4
l18 23l24.5 30.5c8.33301 10.333 15.5 18.833 21.5 25.5l171 181h103l-217 -229l232 -307h-106l-186 250l-61 -53v-197h-87v625c0 93.333 40.333 140 121 140z" />
    <glyph glyph-name="uni019A" unicode="&#x19a;" horiz-adv-x="258" 
d="M85 0v354h-70v66h70v340h88v-340h70v-66h-70v-354h-88z" />
    <glyph glyph-name="uni019B" unicode="&#x19b;" horiz-adv-x="542" 
d="M-6 0l230.998 526l-23 64l-106 -32l-19 63l99 30c-9.33301 16 -19.666 27 -30.999 33s-26 9 -44 9c-12 0 -22.5 -0.666992 -31.5 -2s-17.167 -2.66602 -24.5 -3.99902v71c8.66699 2 18.834 3.83301 30.501 5.5s23.5 2.5 35.5 2.5c38 0 67.833 -7.33301 89.5 -22
s40.5 -37.334 56.5 -68.001l109 33l19 -63l-102 -32l179 -498c12.667 -36 29.334 -54 50.001 -54c5.33301 0 10.833 0.666992 16.5 2s10.167 2.33301 13.5 3v-65c-7.33301 -3.33301 -15.833 -6.16602 -25.5 -8.49902s-20.167 -3.5 -31.5 -3.5
c-24.667 0 -44.167 6.16699 -58.5 18.5s-26.833 33.166 -37.5 62.499l-73 205l-18.5 53.5c-7 19.667 -13.333 39 -19 58s-9.83398 34.833 -12.501 47.5h-4c-6 -23.333 -13.833 -48.333 -23.5 -75s-20.167 -53 -31.5 -79l-122 -281h-91z" />
    <glyph glyph-name="uni019C" unicode="&#x19c;" horiz-adv-x="1030" 
d="M287 -10c-67.333 0 -116.999 17.167 -148.999 51.5s-48 89.833 -48 166.5v506h90v-506c0 -46.667 9.66699 -81.667 29 -105s50 -35 92 -35c59.333 0 101.666 16.667 126.999 50s38 81.333 38 144v452h90v-506c0 -46.667 9.66699 -81.667 29 -105s50.666 -35 93.999 -35
c61.333 0 103.833 18.333 127.5 55s35.5 89.667 35.5 159v432h90v-714h-71l-15 82h-5c-18.667 -30.667 -44.667 -53.667 -78 -69s-67.666 -23 -102.999 -23c-88 0 -146.333 33.333 -175 100h-5c-20 -34 -47.5 -59.167 -82.5 -75.5s-71.833 -24.5 -110.5 -24.5z" />
    <glyph glyph-name="uni019D" unicode="&#x19d;" horiz-adv-x="760" 
d="M45 -240c-12 0 -22.5 1.16797 -31.5 3.50098s-17.167 5.5 -24.5 9.5v76c6.66699 -3.33301 13.667 -5.83301 21 -7.5s15.333 -2.5 24 -2.5c20.667 0 36.334 5.83301 47.001 17.5s16 33.167 16 64.5v793h104l381 -591h4c-0.666992 10.667 -1.5 26.667 -2.5 48
s-2 44.5 -3 69.5s-1.5 48.5 -1.5 70.5v403h84v-714h-105l-382 593h-4l5 -87c2 -34.667 3 -70.334 3 -107.001v-482c0 -55.333 -11.333 -95.333 -34 -120s-56.334 -37 -101.001 -37z" />
    <glyph glyph-name="uni019E" unicode="&#x19e;" horiz-adv-x="618" 
d="M343 546c64 0 112.332 -15.668 144.999 -47.001s49 -81.333 49 -150v-589h-87v583c0 42.667 -9.66699 74.834 -29 96.501s-49.666 32.5 -90.999 32.5c-58.667 0 -99.5 -16.667 -122.5 -50s-34.5 -81.333 -34.5 -144v-278h-88v536h71l13 -73h5
c17.333 28 41.333 48.833 72 62.5s63 20.5 97 20.5z" />
    <glyph glyph-name="uni019F" unicode="&#x19f;" horiz-adv-x="782" 
d="M720 358c0 -74 -12.5 -138.5 -37.5 -193.5s-62 -97.833 -111 -128.5s-109.167 -46 -180.5 -46c-74 0 -135.5 15.333 -184.5 46s-85.5 73.667 -109.5 129s-36 120 -36 194c0 72.667 12 136.5 36 191.5s60.5 97.833 109.5 128.5s110.833 46 185.5 46
c71.333 0 131.333 -15.167 180 -45.5s85.5 -73 110.5 -128s37.5 -119.5 37.5 -193.5zM392 646c-74.667 0 -131 -21.5 -169 -64.5s-60 -102.5 -66 -178.5h466c-6 76 -27.5 135.5 -64.5 178.5s-92.5 64.5 -166.5 64.5zM391 68c76 0 132.832 22.667 170.499 68
s58.5 108.333 62.5 189h-467c4 -80.667 24.833 -143.667 62.5 -189s94.834 -68 171.501 -68z" />
    <glyph glyph-name="Ohorn" unicode="&#x1a0;" horiz-adv-x="784" 
d="M719 358c0 -74 -12.3311 -138.5 -36.998 -193.5s-61.5 -97.833 -110.5 -128.5s-109.167 -46 -180.5 -46c-74.667 0 -136.334 15.333 -185.001 46s-85 73.667 -109 129s-36 120 -36 194c0 72.667 12 136.5 36 191.5s60.5 97.833 109.5 128.5s110.833 46 185.5 46
c54.667 0 102.667 -9.16699 144 -27.5s75.666 -43.833 102.999 -76.5c28 7.33301 45.667 23.666 53 48.999s11 55.333 11 90h95l7 -11c-7.33301 -39.333 -20.5 -75.666 -39.5 -108.999s-49.5 -57.666 -91.5 -72.999c30 -56.667 45 -126.334 45 -209.001zM156.002 358
c0 -90 18.833 -160.833 56.5 -212.5s97.167 -77.5 178.5 -77.5s140.5 25.833 177.5 77.5s55.5 122.5 55.5 212.5c0 89.333 -18.333 159.666 -55 210.999s-95.667 77 -177 77c-82 0 -141.833 -25.667 -179.5 -77s-56.5 -121.666 -56.5 -210.999z" />
    <glyph glyph-name="ohorn" unicode="&#x1a1;" horiz-adv-x="616" 
d="M551 269c0 -88.667 -22.499 -157.333 -67.499 -206s-105.833 -73 -182.5 -73c-47.333 0 -89.5 10.833 -126.5 32.5s-66.167 53.334 -87.5 95.001s-32 92.167 -32 151.5c0 88.667 22.167 157 66.5 205s105.166 72 182.499 72c34.667 0 67 -6 97 -18s55.667 -29 77 -51
c30 8.66699 48.667 26 56 52s11 55.667 11 89h94l7 -11c-9.33301 -46 -23.5 -84.5 -42.5 -115.5s-47.833 -53.5 -86.5 -67.5c10.667 -21.333 19 -44.833 25 -70.5s9 -53.834 9 -84.501zM146.001 269.001c0 -67.333 12.334 -118.5 37.001 -153.5s64.667 -52.5 120 -52.5
s95.333 17.5 120 52.5s37 86.167 37 153.5s-12.667 118 -38 152s-65.333 51 -120 51s-94.334 -17 -119.001 -51s-37 -84.667 -37 -152z" />
    <glyph glyph-name="uni01A2" unicode="&#x1a2;" horiz-adv-x="1075" 
d="M688 358c0 -74 -11.835 -138.5 -35.502 -193.5s-58.667 -97.833 -105 -128.5s-103.833 -46 -172.5 -46c-70.667 0 -129.167 15.333 -175.5 46s-81 73.667 -104 129s-34.5 120 -34.5 194c0 72.667 11.5 136.5 34.5 191.5s57.833 97.833 104.5 128.5s105.334 46 176.001 46
c48.667 0 91.667 -7.83301 129 -23.5s69 -38.167 95 -67.5c20.667 30.667 47.834 53.5 81.501 68.5s69.167 22.5 106.5 22.5c66.667 0 116.167 -17.167 148.5 -51.5s48.5 -89.833 48.5 -166.5v-507h-90v507c0 46.667 -9.66699 81.667 -29 105s-50 35 -92 35
c-68 0 -114.333 -20.333 -139 -61c35.333 -61.333 53 -137.333 53 -228zM155.998 358c0 -90 17.668 -160.833 53.001 -212.5s90.666 -77.5 165.999 -77.5s130.5 25.833 165.5 77.5s52.5 122.5 52.5 212.5s-17.5 160.5 -52.5 211.5s-89.833 76.5 -164.5 76.5
c-75.333 0 -130.833 -25.5 -166.5 -76.5s-53.5 -121.5 -53.5 -211.5z" />
    <glyph glyph-name="uni01A3" unicode="&#x1a3;" horiz-adv-x="845" 
d="M526 269c0 -88.667 -21.332 -157.335 -63.999 -206.002s-100.334 -73 -173.001 -73c-44.667 0 -84.667 10.833 -120 32.5s-63.166 53.334 -83.499 95.001s-30.5 92.167 -30.5 151.5c0 88.667 21.167 157 63.5 205s99.833 72 172.5 72c70.667 0 127 -24 169 -72
c17.333 24.667 38.666 42.834 63.999 54.501s52 17.5 80 17.5c53.333 0 93.333 -15.667 120 -47s40 -81.333 40 -150v-589h-87v585c0 84.667 -30.667 127 -92 127c-42.667 0 -74 -14.667 -94 -44c23.333 -42.667 35 -95.667 35 -159zM146.001 268.999
c0 -63.333 11.501 -113.5 34.501 -150.5s59.5 -55.5 109.5 -55.5s86.667 18.5 110 55.5s35 87.167 35 150.5s-11.667 113 -35 149s-60 54 -110 54c-50.667 0 -87.334 -18 -110.001 -54s-34 -85.667 -34 -149z" />
    <glyph glyph-name="uni01A4" unicode="&#x1a4;" horiz-adv-x="685" 
d="M177 0l0.000976562 636.998h-26c-20.667 0 -36 -4.5 -46 -13.5s-15 -21.167 -15 -36.5c0 -11.333 1.16699 -22 3.5 -32s4.5 -17.333 6.5 -22h-79c-3.33301 7.33301 -6 16.333 -8 27s-3 20 -3 28c0 42.667 11.5 74.334 34.5 95.001s58.5 31 106.5 31h215
c93.333 0 161.333 -18.333 204 -55s64 -88.334 64 -155.001c0 -39.333 -8.83301 -76.166 -26.5 -110.499s-47.334 -62.166 -89.001 -83.499s-98.167 -32 -169.5 -32h-82v-278h-90zM267.001 354.998h72.001c68 0 118.667 11 152 33s50 59.333 50 112
c0 46 -14.833 80.333 -44.5 103s-75.834 34 -138.501 34h-91v-282z" />
    </font>
</defs>
</svg>
